<?xml version="1.0" encoding="utf-8"?>
<!-- Generator: Adobe Illustrator 25.4.1, SVG Export Plug-In . SVG Version: 6.00 Build 0)  -->
<svg version="1.1" id="Capa_1" xmlns="http://www.w3.org/2000/svg" xmlns:xlink="http://www.w3.org/1999/xlink" x="0px" y="0px"
	 width="384.9px" height="150.8px" viewBox="0 0 384.9 150.8" style="enable-background:new 0 0 384.9 150.8;" xml:space="preserve"
	>
<style type="text/css">
	.st0{fill:#F7F7F7;}
	.st1{fill:#FFFFFF;}
	.st2{clip-path:url(#SVGID_00000147936539920480183770000015513690913286902452_);}
	.st3{fill:#B1B1B1;}
	.st4{clip-path:url(#SVGID_00000150784021990321590650000011670640821677766290_);}
	.st5{fill:#3D42DF;}
	.st6{fill:#7A7A7A;}
	.st7{fill:#CECECE;}
	.st8{enable-background:new    ;}
	.st9{fill-rule:evenodd;clip-rule:evenodd;fill:#3D42DF;}
	.st10{fill:#69696B;}
	.st11{fill:#3D42DF;enable-background:new    ;}
	.st12{fill:url(#SVGID_00000044146147990000730370000006367898209780759467_);}
	.st13{fill:none;stroke:#EEEEEE;stroke-width:3;stroke-miterlimit:10;}
	.st14{fill:url(#SVGID_00000012454803337401430850000003917368492877668774_);}
	.st15{fill:url(#SVGID_00000132789705354208426970000014006758895455469744_);}
	.st16{fill:none;stroke:url(#SVGID_00000030471467171317468810000012073906481823100807_);stroke-width:3;stroke-miterlimit:10;}
	.st17{fill:none;stroke:url(#SVGID_00000169549274252490820730000004718823903498042547_);stroke-width:3;stroke-miterlimit:10;}
	.st18{fill:#D11A2A;}
	.st19{fill:url(#SVGID_00000125585913839338776500000001065003436965418678_);}
	.st20{opacity:0.6;fill:url(#SVGID_00000181782810369835157690000000953967027908559787_);}
	.st21{fill:url(#SVGID_00000054242764329779580920000018178610290695247798_);}
	.st22{opacity:0.6;fill:url(#SVGID_00000055664933627766568430000006290289218195060893_);}
	.st23{opacity:0.6;fill:url(#SVGID_00000003807254425517195720000005103031643050297014_);}
</style>
<g>
	
		<linearGradient id="SVGID_00000160878365814115933780000014008508256156431268_" gradientUnits="userSpaceOnUse" x1="0" y1="75.4085" x2="384.8993" y2="75.4085">
		<stop  offset="0" style="stop-color:#D11A2A"/>
		<stop  offset="1" style="stop-color:#DE1C2D"/>
	</linearGradient>
	
		<path style="fill:none;stroke:url(#SVGID_00000160878365814115933780000014008508256156431268_);stroke-width:3;stroke-miterlimit:10;" d="
		M370,149.3H14.9c-7.4,0-13.4-6-13.4-13.4V14.9c0-7.4,6-13.4,13.4-13.4H370c7.4,0,13.4,6,13.4,13.4v121.1
		C383.4,143.3,377.4,149.3,370,149.3z"/>
	<g>
		<path class="st18" d="M144.4,95.4h-5.7l-4.6-11.9h-18.5l-4.5,11.9h-5.6L119.7,59c0.6-1.4,1.2-2.4,2-3.1c0.8-0.6,1.8-0.9,3.1-0.9
			c1.4,0,2.5,0.3,3.3,0.9c0.8,0.7,1.5,1.7,2.1,3.1L144.4,95.4z M124.1,61l-6.6,17.4h14.6L125.4,61c-0.2-0.4-0.4-0.6-0.7-0.6
			C124.5,60.4,124.2,60.6,124.1,61z"/>
		<path class="st18" d="M149.1,95.4V81.3c0-4,1.2-7.1,3.5-9.3c2.3-2.3,5.3-3.4,9-3.4s6.7,1.1,9.1,3.4c2.3,2.3,3.5,5.4,3.5,9.3v14.1
			H169v-14c0-2.5-0.7-4.4-2-5.8c-1.4-1.4-3.1-2.1-5.4-2.1s-4,0.7-5.3,2.1c-1.4,1.4-2.1,3.3-2.1,5.8v14H149.1z"/>
		<path class="st18" d="M206.4,69.1v14.2c0,3.9-1.1,7-3.3,9.2c-2.3,2.3-5.2,3.4-8.8,3.4c-3.6,0-6.5-1.1-8.8-3.4
			c-2.3-2.2-3.4-5.3-3.4-9.2V69.1h5.1v14.2c0,2.4,0.7,4.3,2,5.6c1.3,1.3,2.9,2,5,2s3.8-0.7,5.1-2c1.3-1.3,1.9-3.2,1.9-5.6V69.1
			H206.4z"/>
		<path class="st18" d="M215.1,95.4V55.2h5.2v40.2H215.1z"/>
		<path class="st18" d="M240.9,95.9c-3.8,0-6.9-1.3-9.4-3.9c-2.5-2.6-3.8-5.8-3.8-9.7c0-4,1.3-7.2,4-9.8c2.6-2.6,5.9-3.9,9.9-3.9
			c4,0,7.2,1.3,9.8,3.8c2.6,2.5,3.9,5.7,3.9,9.6v13.4h-4.8v-4.7c-1,1.6-2.4,2.9-4.1,3.8C244.6,95.4,242.8,95.9,240.9,95.9z
			 M250,82.2c0-2.5-0.8-4.5-2.4-6.2c-1.6-1.6-3.7-2.5-6.1-2.5c-2.4,0-4.5,0.8-6.1,2.5c-1.6,1.6-2.4,3.7-2.4,6.2
			c0,2.5,0.8,4.6,2.4,6.2c1.6,1.6,3.7,2.5,6.1,2.5c2.5,0,4.5-0.8,6.1-2.5C249.1,86.8,250,84.8,250,82.2z"/>
		<path class="st18" d="M276.2,69.1h2.7v5h-2.7c-2.5,0-4.5,0.8-6,2.3c-1.5,1.5-2.3,3.6-2.3,6.2v12.8h-5.1V82.6
			c0-4.5,1.2-7.8,3.6-10.1C268.8,70.2,272.1,69.1,276.2,69.1z"/>
	</g>
</g>
</svg>
