<?xml version="1.0" encoding="utf-8"?>
<!-- Generator: Adobe Illustrator 25.4.1, SVG Export Plug-In . SVG Version: 6.00 Build 0)  -->
<svg version="1.1" id="Capa_1" xmlns="http://www.w3.org/2000/svg" xmlns:xlink="http://www.w3.org/1999/xlink" x="0px" y="0px"
	 width="350.7px" height="147.8px" viewBox="0 0 350.7 147.8" style="enable-background:new 0 0 350.7 147.8;" xml:space="preserve"
	>
<style type="text/css">
	.st0{fill:#F7F7F7;}
	.st1{fill:#FFFFFF;}
	.st2{clip-path:url(#SVGID_00000111188804638942373970000000249700467458401667_);}
	.st3{fill:#B1B1B1;}
	.st4{clip-path:url(#SVGID_00000124883923851221921760000000464619564410240149_);}
	.st5{fill:#3D42DF;}
	.st6{fill:#7A7A7A;}
	.st7{fill:#CECECE;}
	.st8{enable-background:new    ;}
	.st9{fill-rule:evenodd;clip-rule:evenodd;fill:#3D42DF;}
	.st10{fill:#69696B;}
	.st11{fill:#3D42DF;enable-background:new    ;}
	.st12{fill:url(#SVGID_00000142886837582204565690000011857278971778530948_);}
	.st13{fill:none;stroke:#EEEEEE;stroke-width:3;stroke-miterlimit:10;}
	.st14{fill:url(#SVGID_00000055671677753654977510000007172989146303291015_);}
	.st15{fill:url(#SVGID_00000155841898329770560720000016680079440123685262_);}
	.st16{fill:url(#SVGID_00000125592285173812003310000013764674861994914995_);}
	.st17{opacity:0.6;fill:url(#SVGID_00000022560230754385030710000001305757821168502656_);}
	.st18{fill:url(#SVGID_00000008109034385867389440000000108347043839863175_);}
	.st19{opacity:0.6;fill:url(#SVGID_00000074414944423520246000000016852981489425279644_);}
	.st20{opacity:0.6;fill:url(#SVGID_00000178207217552528155150000005332721632897250205_);}
</style>
<linearGradient id="SVGID_00000066488509353649147120000009052726092277644162_" gradientUnits="userSpaceOnUse" x1="0" y1="73.9085" x2="350.7057" y2="73.9085">
	<stop  offset="0" style="stop-color:#5BC5D1"/>
	<stop  offset="1" style="stop-color:#79F6D2"/>
</linearGradient>
<path style="fill:url(#SVGID_00000066488509353649147120000009052726092277644162_);" d="M337.3,147.8h-324c-7.4,0-13.4-6-13.4-13.4
	V13.4C0,6,6,0,13.4,0h324c7.4,0,13.4,6,13.4,13.4v121.1C350.7,141.8,344.7,147.8,337.3,147.8z"/>
<g>
	<path class="st1" d="M150.4,80h5.8c-1.4,4.6-3.8,8.1-7.2,10.7c-3.5,2.5-7.6,3.8-12.4,3.8c-6.1,0-11-2-14.8-5.8
		c-3.9-3.9-5.8-8.8-5.8-14.8c0-6,1.9-10.9,5.8-14.8c3.8-3.9,8.8-5.8,14.8-5.8c4.8,0,9,1.3,12.4,3.9c3.5,2.6,5.8,6.2,7.1,10.7h-5.8
		c-1.1-3-2.9-5.3-5.3-7c-2.4-1.6-5.3-2.5-8.4-2.5c-4.5,0-8.1,1.4-10.9,4.4c-2.8,2.9-4.2,6.6-4.2,11.1c0,4.5,1.4,8.1,4.2,11.1
		c2.8,2.9,6.4,4.4,10.9,4.4c3.2,0,6-0.8,8.4-2.4C147.4,85.4,149.2,83.1,150.4,80z"/>
	<path class="st1" d="M178,94.5c-9.9,0-15.7-4.2-17.3-12.7h5.8c1.3,5.1,5.2,7.7,11.5,7.7c3.1,0,5.7-0.6,7.6-1.8
		c1.9-1.2,2.9-3,2.9-5.5c0-3.6-2.3-5.5-7-5.8l-7.8-0.6c-3.7-0.3-6.5-1.3-8.7-3.2c-2.1-1.9-3.1-4.4-3.1-7.6c0-3.7,1.4-6.5,4.1-8.6
		s6.4-3.1,11-3.1c2.5,0,4.8,0.4,7,1c2.1,0.7,4.1,1.9,5.8,3.6s2.8,3.9,3.5,6.4h-5.8c-1.4-4-4.9-6-10.5-6c-3,0-5.4,0.6-7,1.8
		c-1.7,1.2-2.5,2.8-2.5,4.8c0,1.8,0.6,3.1,1.9,4.1c1.2,1,2.9,1.5,5.1,1.6l7.7,0.6c3.7,0.3,6.6,1.3,8.8,3.1c2.1,1.8,3.2,4.4,3.2,7.6
		c0,3.9-1.4,7-4.4,9.2C186.6,93.4,182.7,94.5,178,94.5z"/>
	<path class="st1" d="M217,88.4l11.9-34.6h5.8l-13.3,36.4c-0.5,1.4-1.2,2.4-2,3c-0.8,0.7-1.9,1-3.3,1s-2.5-0.3-3.3-1
		c-0.9-0.6-1.5-1.6-2-3l-13.3-36.4h5.9l12.2,34.6c0.2,0.4,0.4,0.6,0.7,0.6C216.6,88.9,216.8,88.7,217,88.4z"/>
</g>
</svg>
