<?xml version="1.0" encoding="utf-8"?>
<!-- Generator: Adobe Illustrator 25.4.1, SVG Export Plug-In . SVG Version: 6.00 Build 0)  -->
<svg version="1.1" id="Capa_1" xmlns="http://www.w3.org/2000/svg" xmlns:xlink="http://www.w3.org/1999/xlink" x="0px" y="0px"
	 width="458.9px" height="147.8px" viewBox="0 0 458.9 147.8" style="enable-background:new 0 0 458.9 147.8;" xml:space="preserve"
	>
<style type="text/css">
	.st0{fill:#F7F7F7;}
	.st1{fill:#FFFFFF;}
	.st2{clip-path:url(#SVGID_00000033366509186088629180000018382809063679972014_);}
	.st3{fill:#B1B1B1;}
	.st4{clip-path:url(#SVGID_00000027584343360314946120000014590223147756412063_);}
	.st5{fill:#3D42DF;}
	.st6{fill:#7A7A7A;}
	.st7{fill:#CECECE;}
	.st8{enable-background:new    ;}
	.st9{fill-rule:evenodd;clip-rule:evenodd;fill:#3D42DF;}
	.st10{fill:#69696B;}
	.st11{fill:#3D42DF;enable-background:new    ;}
	.st12{fill:url(#SVGID_00000065056879872587625470000003278796459072407208_);}
	.st13{fill:none;stroke:#EEEEEE;stroke-width:3;stroke-miterlimit:10;}
	.st14{fill:url(#SVGID_00000051358797027855586530000014900017749727058344_);}
	.st15{fill:url(#SVGID_00000087372731634228532740000018171375117318027159_);}
	.st16{fill:url(#SVGID_00000124163513010374528650000017351307305679383698_);}
	.st17{opacity:0.6;fill:url(#SVGID_00000085972268881030572210000016839515554770426519_);}
	.st18{fill:url(#SVGID_00000107578041820458597570000011538061075839207353_);}
	.st19{opacity:0.6;fill:url(#SVGID_00000114072556666919899200000000730802639354531506_);}
	.st20{opacity:0.6;fill:url(#SVGID_00000039816224174196747700000003507705425305114798_);}
</style>
<linearGradient id="SVGID_00000128443478057545069280000002807653368607221647_" gradientUnits="userSpaceOnUse" x1="0" y1="73.9085" x2="458.8736" y2="73.9085">
	<stop  offset="0" style="stop-color:#0006B2"/>
	<stop  offset="1" style="stop-color:#5300E3"/>
</linearGradient>
<path style="fill:url(#SVGID_00000128443478057545069280000002807653368607221647_);" d="M445.5,147.8H13.4c-7.4,0-13.4-6-13.4-13.4
	V13.4C0,6,6,0,13.4,0h432.1c7.4,0,13.4,6,13.4,13.4v121.1C458.9,141.8,452.9,147.8,445.5,147.8z"/>
<g>
	<path class="st1" d="M100.8,53.6v5.1H86.7v35.1h-5.4V58.7H67.1v-5.1H100.8z"/>
	<path class="st1" d="M118.6,67.5h2.7v5h-2.7c-2.5,0-4.5,0.8-6,2.3c-1.5,1.5-2.3,3.6-2.3,6.2v12.8h-5.1V81c0-4.5,1.2-7.8,3.6-10.1
		C111.2,68.6,114.5,67.5,118.6,67.5z"/>
	<path class="st1" d="M138.5,94.3c-3.8,0-6.9-1.3-9.4-3.9c-2.5-2.6-3.8-5.8-3.8-9.7c0-4,1.3-7.2,4-9.8c2.6-2.6,5.9-3.9,9.9-3.9
		c4,0,7.2,1.3,9.8,3.8c2.6,2.5,3.9,5.7,3.9,9.6v13.4H148V89c-1,1.6-2.4,2.9-4.1,3.8C142.2,93.8,140.4,94.3,138.5,94.3z M147.6,80.6
		c0-2.5-0.8-4.5-2.4-6.2c-1.6-1.6-3.7-2.5-6.1-2.5c-2.4,0-4.5,0.8-6.1,2.5c-1.6,1.6-2.4,3.7-2.4,6.2c0,2.5,0.8,4.6,2.4,6.2
		c1.6,1.6,3.7,2.5,6.1,2.5c2.5,0,4.5-0.8,6.1-2.5C146.7,85.2,147.6,83.1,147.6,80.6z"/>
	<path class="st1" d="M160.6,93.7V79.7c0-4,1.2-7.1,3.5-9.3c2.3-2.3,5.3-3.4,9-3.4s6.7,1.1,9.1,3.4c2.3,2.3,3.5,5.4,3.5,9.3v14.1
		h-5.1v-14c0-2.5-0.7-4.4-2-5.8c-1.4-1.4-3.1-2.1-5.4-2.1s-4,0.7-5.3,2.1c-1.4,1.4-2.1,3.3-2.1,5.8v14H160.6z"/>
	<path class="st1" d="M204.6,94.3c-3.3,0-6.1-0.8-8.4-2.3c-2.3-1.5-3.7-3.6-4.2-6.4h5.4c0.8,2.8,3.3,4.3,7.5,4.3
		c1.9,0,3.4-0.3,4.5-1c1.1-0.6,1.6-1.5,1.6-2.8c0-2-1.4-3.1-4.2-3.2l-5.8-0.5c-2.5-0.2-4.5-0.9-6-2.2c-1.5-1.2-2.3-2.9-2.3-5.2
		c0-2.6,1-4.6,3-6c2-1.4,4.6-2.1,7.9-2.1c3.1,0,5.8,0.7,8,2.1c2.2,1.4,3.6,3.5,4.2,6.2h-5.5c-0.5-1.3-1.4-2.3-2.6-2.9
		s-2.6-0.9-4.1-0.9c-1.8,0-3.1,0.3-4.2,0.9c-1.1,0.6-1.6,1.5-1.6,2.6c0,1.9,1.4,2.9,4.2,3.1l5.6,0.4c2.7,0.2,4.8,0.9,6.3,2.1
		c1.5,1.2,2.2,3,2.2,5.3c0,2.7-1.1,4.8-3.2,6.3C210.8,93.5,208.1,94.3,204.6,94.3z"/>
	<path class="st1" d="M234.8,94.3c-3.8,0-6.9-1.3-9.4-3.9c-2.5-2.6-3.8-5.8-3.8-9.7c0-4,1.3-7.2,4-9.8c2.6-2.6,5.9-3.9,9.9-3.9
		c4,0,7.2,1.3,9.8,3.8c2.6,2.5,3.9,5.7,3.9,9.6v13.4h-4.8V89c-1,1.6-2.4,2.9-4.1,3.8C238.5,93.8,236.7,94.3,234.8,94.3z M243.9,80.6
		c0-2.5-0.8-4.5-2.4-6.2c-1.6-1.6-3.7-2.5-6.1-2.5c-2.4,0-4.5,0.8-6.1,2.5c-1.6,1.6-2.4,3.7-2.4,6.2c0,2.5,0.8,4.6,2.4,6.2
		c1.6,1.6,3.7,2.5,6.1,2.5c2.5,0,4.5-0.8,6.1-2.5C243,85.2,243.9,83.1,243.9,80.6z"/>
	<path class="st1" d="M276.7,84.1h5.4c-0.7,3-2.2,5.5-4.5,7.4c-2.3,1.9-5.1,2.8-8.4,2.8c-3.9,0-7.1-1.3-9.6-3.9
		c-2.6-2.6-3.9-5.8-3.9-9.8c0-4,1.3-7.2,3.9-9.8c2.5-2.6,5.8-3.9,9.6-3.9c3.3,0,6.1,0.9,8.5,2.8c2.3,1.9,3.8,4.4,4.5,7.4h-5.4
		c-0.6-1.6-1.5-2.8-2.9-3.8c-1.3-0.9-2.9-1.4-4.7-1.4c-2.4,0-4.3,0.8-5.9,2.5c-1.6,1.6-2.4,3.7-2.4,6.2c0,2.5,0.8,4.6,2.3,6.2
		c1.5,1.6,3.5,2.5,5.9,2.5c1.8,0,3.3-0.5,4.7-1.4C275.1,86.9,276.1,85.7,276.7,84.1z"/>
	<path class="st1" d="M307.9,84.1h5.4c-0.7,3-2.2,5.5-4.5,7.4c-2.3,1.9-5.1,2.8-8.4,2.8c-3.9,0-7.1-1.3-9.6-3.9
		c-2.6-2.6-3.9-5.8-3.9-9.8c0-4,1.3-7.2,3.9-9.8c2.5-2.6,5.8-3.9,9.6-3.9c3.3,0,6.1,0.9,8.5,2.8c2.3,1.9,3.8,4.4,4.5,7.4h-5.4
		c-0.6-1.6-1.5-2.8-2.9-3.8c-1.3-0.9-2.9-1.4-4.7-1.4c-2.4,0-4.3,0.8-5.9,2.5c-1.6,1.6-2.4,3.7-2.4,6.2c0,2.5,0.8,4.6,2.3,6.2
		c1.5,1.6,3.5,2.5,5.9,2.5c1.8,0,3.3-0.5,4.7-1.4C306.3,86.9,307.3,85.7,307.9,84.1z"/>
	<path class="st1" d="M322.7,61.1c-1,0-1.9-0.4-2.5-1.1c-0.7-0.7-1-1.5-1-2.5c0-1,0.4-1.8,1.1-2.5c0.7-0.7,1.5-1,2.5-1
		s1.8,0.4,2.5,1c0.7,0.7,1,1.5,1,2.5c0,1-0.4,1.8-1,2.5C324.5,60.8,323.7,61.1,322.7,61.1z M320.1,93.7V67.5h5.2v26.3H320.1z"/>
	<path class="st1" d="M356.3,90.4c-2.6,2.6-5.9,3.9-9.9,3.9c-4,0-7.3-1.3-9.8-3.9c-2.6-2.5-3.9-5.8-3.9-9.8c0-4,1.3-7.2,3.9-9.8
		c2.6-2.6,5.9-3.9,9.8-3.9c4,0,7.3,1.3,9.9,3.9c2.6,2.6,3.9,5.8,3.9,9.8C360.2,84.6,358.9,87.9,356.3,90.4z M340.3,86.8
		c1.6,1.6,3.6,2.5,6.1,2.5c2.5,0,4.5-0.8,6.1-2.5c1.6-1.6,2.4-3.7,2.4-6.2s-0.8-4.6-2.4-6.2c-1.6-1.6-3.7-2.4-6.1-2.4
		c-2.5,0-4.5,0.8-6.1,2.4c-1.6,1.6-2.4,3.7-2.4,6.2S338.8,85.2,340.3,86.8z M342.6,62.3l5.4-8.2h5.9l-5.9,8.2H342.6z"/>
	<path class="st1" d="M366.8,93.7V79.7c0-4,1.2-7.1,3.5-9.3c2.3-2.3,5.3-3.4,9-3.4s6.7,1.1,9.1,3.4c2.3,2.3,3.5,5.4,3.5,9.3v14.1
		h-5.1v-14c0-2.5-0.7-4.4-2-5.8c-1.4-1.4-3.1-2.1-5.4-2.1s-4,0.7-5.3,2.1c-1.4,1.4-2.1,3.3-2.1,5.8v14H366.8z"/>
</g>
</svg>
