<?xml version="1.0" encoding="utf-8"?>
<!-- Generator: Adobe Illustrator 25.4.1, SVG Export Plug-In . SVG Version: 6.00 Build 0)  -->
<svg version="1.1" id="Capa_1" xmlns="http://www.w3.org/2000/svg" xmlns:xlink="http://www.w3.org/1999/xlink" x="0px" y="0px"
	 width="384.9px" height="150.8px" viewBox="0 0 384.9 150.8" style="enable-background:new 0 0 384.9 150.8;" xml:space="preserve"
	>
<style type="text/css">
	.st0{fill:#F7F7F7;}
	.st1{fill:#FFFFFF;}
	.st2{clip-path:url(#SVGID_00000025435965110218953280000004830596898313578653_);}
	.st3{fill:#B1B1B1;}
	.st4{clip-path:url(#SVGID_00000040572495751406936680000003807713131039667339_);}
	.st5{fill:#3D42DF;}
	.st6{fill:#7A7A7A;}
	.st7{fill:#CECECE;}
	.st8{enable-background:new    ;}
	.st9{fill-rule:evenodd;clip-rule:evenodd;fill:#3D42DF;}
	.st10{fill:#69696B;}
	.st11{fill:#3D42DF;enable-background:new    ;}
	.st12{fill:url(#SVGID_00000018956608836389746590000012191982970217579422_);}
	.st13{fill:none;stroke:#EEEEEE;stroke-width:3;stroke-miterlimit:10;}
	.st14{fill:url(#SVGID_00000011730611631397628230000017442808607504509108_);}
	.st15{fill:url(#SVGID_00000086690559447913803130000016626738476176235939_);}
	.st16{fill:none;stroke:url(#SVGID_00000129183563246316543830000008222281774805596807_);stroke-width:3;stroke-miterlimit:10;}
	.st17{fill:#D11A2A;}
	.st18{fill:url(#SVGID_00000129191000387642984410000001865393843997891980_);}
	.st19{opacity:0.6;fill:url(#SVGID_00000062912526444752488370000004175737053642551975_);}
	.st20{fill:url(#SVGID_00000124147808597999269910000009799626305103913898_);}
	.st21{opacity:0.6;fill:url(#SVGID_00000085230451680027661630000000810297368951740339_);}
	.st22{opacity:0.6;fill:url(#SVGID_00000078018163806710543830000000365470219531554207_);}
</style>
<g>
	
		<linearGradient id="SVGID_00000078750596906256371370000000221828901618341256_" gradientUnits="userSpaceOnUse" x1="0" y1="75.4085" x2="384.8993" y2="75.4085">
		<stop  offset="0" style="stop-color:#D11A2A"/>
		<stop  offset="1" style="stop-color:#DE1C2D"/>
	</linearGradient>
	
		<path style="fill:none;stroke:url(#SVGID_00000078750596906256371370000000221828901618341256_);stroke-width:3;stroke-miterlimit:10;" d="
		M370,149.3H14.9c-7.4,0-13.4-6-13.4-13.4V14.9c0-7.4,6-13.4,13.4-13.4H370c7.4,0,13.4,6,13.4,13.4v121.1
		C383.4,143.3,377.4,149.3,370,149.3z"/>
	<g>
		<path class="st17" d="M94.9,90.1h20.6v5.1h-22c-1.7,0-3.1-0.5-4.1-1.5c-1-1-1.5-2.4-1.5-4.1V60.7c0-1.7,0.5-3.1,1.5-4.1
			c1-1,2.4-1.5,4.1-1.5h21.7v5.1H94.9c-0.5,0-0.9,0.2-1.2,0.5c-0.3,0.3-0.5,0.7-0.5,1.2v10.4h21.1v4.9H93.3v11.3
			c0,0.5,0.2,0.9,0.5,1.2C94,90,94.5,90.1,94.9,90.1z"/>
		<path class="st17" d="M123.6,95.2V55.1h5.2v40.2H123.6z"/>
		<path class="st17" d="M140.9,62.6c-1,0-1.9-0.4-2.5-1.1c-0.7-0.7-1-1.5-1-2.5c0-1,0.4-1.8,1.1-2.5c0.7-0.7,1.5-1,2.5-1
			s1.8,0.4,2.5,1c0.7,0.7,1,1.5,1,2.5c0,1-0.4,1.8-1,2.5C142.7,62.3,141.9,62.6,140.9,62.6z M138.3,95.2V69h5.2v26.3H138.3z"/>
		<path class="st17" d="M174.4,80v15.2h-5.1V80c0-2.1-0.5-3.7-1.6-4.8c-1.1-1.2-2.5-1.8-4.3-1.8c-1.7,0-3.1,0.6-4.2,1.8
			c-1.1,1.2-1.6,2.8-1.6,4.8v15.2h-5.1V80c0-3.6,1-6.3,3-8.4s4.6-3.1,7.8-3.1c3.9,0,6.7,1.5,8.7,4.5c1.9-3,4.8-4.5,8.7-4.5
			c3.1,0,5.8,1,7.8,3.1c2,2.1,3,4.9,3,8.5v15.2h-5.1V80c0-2.1-0.5-3.7-1.6-4.8c-1.1-1.2-2.5-1.8-4.3-1.8c-1.7,0-3.1,0.6-4.2,1.8
			C175,76.4,174.4,78,174.4,80z"/>
		<path class="st17" d="M202.8,62.6c-1,0-1.9-0.4-2.5-1.1c-0.7-0.7-1-1.5-1-2.5c0-1,0.4-1.8,1.1-2.5c0.7-0.7,1.5-1,2.5-1
			s1.8,0.4,2.5,1c0.7,0.7,1,1.5,1,2.5c0,1-0.4,1.8-1,2.5C204.6,62.3,203.8,62.6,202.8,62.6z M200.2,95.2V69h5.2v26.3H200.2z"/>
		<path class="st17" d="M214.1,95.2V81.2c0-4,1.2-7.1,3.5-9.3c2.3-2.3,5.3-3.4,9-3.4s6.7,1.1,9.1,3.4c2.3,2.3,3.5,5.4,3.5,9.3v14.1
			H234v-14c0-2.5-0.7-4.4-2-5.8c-1.4-1.4-3.1-2.1-5.4-2.1s-4,0.7-5.3,2.1c-1.4,1.4-2.1,3.3-2.1,5.8v14H214.1z"/>
		<path class="st17" d="M259,95.8c-3.8,0-6.9-1.3-9.4-3.9c-2.5-2.6-3.8-5.8-3.8-9.7c0-4,1.3-7.2,4-9.8c2.6-2.6,5.9-3.9,9.9-3.9
			c4,0,7.2,1.3,9.8,3.8c2.6,2.5,3.9,5.7,3.9,9.6v13.4h-4.8v-4.7c-1,1.6-2.4,2.9-4.1,3.8C262.7,95.3,260.9,95.8,259,95.8z
			 M268.1,82.1c0-2.5-0.8-4.5-2.4-6.2c-1.6-1.6-3.7-2.5-6.1-2.5c-2.4,0-4.5,0.8-6.1,2.5c-1.6,1.6-2.4,3.7-2.4,6.2
			c0,2.5,0.8,4.6,2.4,6.2c1.6,1.6,3.7,2.5,6.1,2.5c2.5,0,4.5-0.8,6.1-2.5C267.3,86.7,268.1,84.6,268.1,82.1z"/>
		<path class="st17" d="M294.4,69h2.7v5h-2.7c-2.5,0-4.5,0.8-6,2.3c-1.5,1.5-2.3,3.6-2.3,6.2v12.8h-5.1V82.5c0-4.5,1.2-7.8,3.6-10.1
			S290.2,69,294.4,69z"/>
	</g>
</g>
</svg>
