<?xml version="1.0" encoding="utf-8"?>
<!-- Generator: Adobe Illustrator 25.4.1, SVG Export Plug-In . SVG Version: 6.00 Build 0)  -->
<svg version="1.1" id="Capa_1" xmlns="http://www.w3.org/2000/svg" xmlns:xlink="http://www.w3.org/1999/xlink" x="0px" y="0px"
	 width="381.9px" height="147.8px" viewBox="0 0 381.9 147.8" style="enable-background:new 0 0 381.9 147.8;" xml:space="preserve"
	>
<style type="text/css">
	.st0{fill:#F7F7F7;}
	.st1{fill:#FFFFFF;}
	.st2{clip-path:url(#SVGID_00000119104546066457685560000003233782698506675604_);}
	.st3{fill:#B1B1B1;}
	.st4{clip-path:url(#SVGID_00000011743366310550339370000017311221449431890326_);}
	.st5{fill:#3D42DF;}
	.st6{fill:#7A7A7A;}
	.st7{fill:#CECECE;}
	.st8{enable-background:new    ;}
	.st9{fill-rule:evenodd;clip-rule:evenodd;fill:#3D42DF;}
	.st10{fill:#69696B;}
	.st11{fill:#3D42DF;enable-background:new    ;}
	.st12{fill:url(#SVGID_00000156573022299202186490000002585749227136209558_);}
	.st13{fill:none;stroke:#EEEEEE;stroke-width:3;stroke-miterlimit:10;}
	.st14{fill:url(#SVGID_00000139290632633032328770000002715393283477051017_);}
	.st15{fill:url(#SVGID_00000018940249884597509690000004039041698598456241_);}
	.st16{fill:none;stroke:url(#SVGID_00000024002090710559977990000012395680762783213966_);stroke-width:3;stroke-miterlimit:10;}
	.st17{fill:#D11A2A;}
	.st18{fill:url(#SVGID_00000140714313285204514230000010662246800798942852_);}
	.st19{opacity:0.6;fill:url(#SVGID_00000074408880476790435630000006407827126747030974_);}
	.st20{fill:url(#SVGID_00000112625582161935876460000002853511210892480642_);}
	.st21{opacity:0.6;fill:url(#SVGID_00000088133627172059529590000012580099739864896936_);}
	.st22{opacity:0.6;fill:url(#SVGID_00000134250707548099336110000009388051041663584142_);}
</style>
<g>
	
		<linearGradient id="SVGID_00000053527026962117483290000010944880932186186650_" gradientUnits="userSpaceOnUse" x1="0" y1="73.9085" x2="381.8993" y2="73.9085">
		<stop  offset="0" style="stop-color:#0006B2"/>
		<stop  offset="1" style="stop-color:#5300E3"/>
	</linearGradient>
	<path style="fill:url(#SVGID_00000053527026962117483290000010944880932186186650_);" d="M368.5,147.8H13.4
		c-7.4,0-13.4-6-13.4-13.4V13.4C0,6,6,0,13.4,0h355.2c7.4,0,13.4,6,13.4,13.4v121.1C381.9,141.8,375.9,147.8,368.5,147.8z"/>
	<g>
		<path class="st1" d="M121.9,76.7v1c0,5.2-1.8,9.3-5.4,12.3c-3.7,3-8.1,4.5-13.5,4.5c-6.1,0-11.1-1.9-15-5.8
			c-4-3.9-5.9-8.8-5.9-14.8s1.9-11,5.8-14.8c3.8-3.9,8.8-5.8,14.8-5.8c4.7,0,8.8,1.2,12.2,3.6c3.5,2.4,5.8,5.7,7.1,9.9H116
			c-1.1-2.7-2.8-4.8-5.2-6.2c-2.4-1.4-5.1-2.1-8.3-2.1c-4.5,0-8.1,1.4-10.9,4.3c-2.8,2.9-4.2,6.6-4.2,11.1c0,4.6,1.4,8.3,4.3,11.2
			s6.6,4.3,11.2,4.3c3.8,0,7-0.9,9.4-2.8c2.4-1.9,3.7-4.2,3.7-7v-0.3c0-0.6-0.3-0.9-0.9-0.9h-14.1v-4.9h17.8c0.9,0,1.6,0.3,2.2,0.9
			S121.9,75.8,121.9,76.7z"/>
		<path class="st1" d="M152.9,67.7v14.2c0,3.9-1.1,7-3.3,9.2c-2.3,2.3-5.2,3.4-8.8,3.4c-3.6,0-6.5-1.1-8.8-3.4
			c-2.3-2.2-3.4-5.3-3.4-9.2V67.7h5.1v14.2c0,2.4,0.7,4.3,2,5.6c1.3,1.3,2.9,2,5,2s3.8-0.7,5.1-2c1.3-1.3,1.9-3.2,1.9-5.6V67.7
			H152.9z"/>
		<path class="st1" d="M172.8,94.5c-3.8,0-6.9-1.3-9.4-3.9c-2.5-2.6-3.8-5.8-3.8-9.7c0-4,1.3-7.2,4-9.8c2.6-2.6,5.9-3.9,9.9-3.9
			c4,0,7.2,1.3,9.8,3.8c2.6,2.5,3.9,5.7,3.9,9.6V94h-4.8v-4.7c-1,1.6-2.4,2.9-4.1,3.8C176.5,94,174.7,94.5,172.8,94.5z M181.8,80.9
			c0-2.5-0.8-4.5-2.4-6.2c-1.6-1.6-3.7-2.5-6.1-2.5c-2.4,0-4.5,0.8-6.1,2.5c-1.6,1.6-2.4,3.7-2.4,6.2c0,2.5,0.8,4.6,2.4,6.2
			c1.6,1.6,3.7,2.5,6.1,2.5c2.5,0,4.5-0.8,6.1-2.5C181,85.4,181.8,83.4,181.8,80.9z"/>
		<path class="st1" d="M208.1,67.7h2.7v5h-2.7c-2.5,0-4.5,0.8-6,2.3c-1.5,1.5-2.3,3.6-2.3,6.2V94h-5.1V81.2c0-4.5,1.2-7.8,3.6-10.1
			S203.9,67.7,208.1,67.7z"/>
		<path class="st1" d="M227.9,67.2c1.9,0,3.6,0.4,5.3,1.2c1.6,0.8,2.9,1.9,3.9,3.3V53.8h5.1v27.1c0,3.9-1.3,7.2-3.9,9.7
			c-2.6,2.6-5.9,3.9-9.9,3.9c-4,0-7.3-1.3-9.8-3.9c-2.6-2.6-3.9-5.8-3.9-9.8c0-3.9,1.2-7.2,3.8-9.8C221,68.5,224.2,67.2,227.9,67.2z
			 M237,80.9c0-2.5-0.8-4.5-2.4-6.2c-1.6-1.6-3.7-2.5-6.1-2.5c-2.5,0-4.5,0.8-6.1,2.5c-1.6,1.6-2.4,3.7-2.4,6.2
			c0,2.5,0.8,4.6,2.4,6.2c1.6,1.6,3.7,2.5,6.1,2.5c2.4,0,4.5-0.8,6.1-2.5C236.2,85.4,237,83.4,237,80.9z"/>
		<path class="st1" d="M261.9,94.5c-3.8,0-6.9-1.3-9.4-3.9c-2.5-2.6-3.8-5.8-3.8-9.7c0-4,1.3-7.2,4-9.8c2.6-2.6,5.9-3.9,9.9-3.9
			c4,0,7.2,1.3,9.8,3.8c2.6,2.5,3.9,5.7,3.9,9.6V94h-4.8v-4.7c-1,1.6-2.4,2.9-4.1,3.8C265.6,94,263.8,94.5,261.9,94.5z M271,80.9
			c0-2.5-0.8-4.5-2.4-6.2c-1.6-1.6-3.7-2.5-6.1-2.5c-2.4,0-4.5,0.8-6.1,2.5c-1.6,1.6-2.4,3.7-2.4,6.2c0,2.5,0.8,4.6,2.4,6.2
			c1.6,1.6,3.7,2.5,6.1,2.5c2.5,0,4.5-0.8,6.1-2.5C270.1,85.4,271,83.4,271,80.9z"/>
		<path class="st1" d="M297.2,67.7h2.7v5h-2.7c-2.5,0-4.5,0.8-6,2.3c-1.5,1.5-2.3,3.6-2.3,6.2V94h-5.1V81.2c0-4.5,1.2-7.8,3.6-10.1
			S293.1,67.7,297.2,67.7z"/>
	</g>
</g>
</svg>
