<?xml version="1.0" encoding="utf-8"?>
<!-- Generator: Adobe Illustrator 25.4.1, SVG Export Plug-In . SVG Version: 6.00 Build 0)  -->
<svg version="1.1" id="Capa_1" xmlns="http://www.w3.org/2000/svg" xmlns:xlink="http://www.w3.org/1999/xlink" x="0px" y="0px"
	 width="350.7px" height="147.8px" viewBox="0 0 350.7 147.8" style="enable-background:new 0 0 350.7 147.8;" xml:space="preserve"
	>
<style type="text/css">
	.st0{fill:#F7F7F7;}
	.st1{fill:#FFFFFF;}
	.st2{clip-path:url(#SVGID_00000002374584658765438530000002899115065423748507_);}
	.st3{fill:#B1B1B1;}
	.st4{clip-path:url(#SVGID_00000126307087018170526940000014665875223900593282_);}
	.st5{fill:#3D42DF;}
	.st6{fill:#7A7A7A;}
	.st7{fill:#CECECE;}
	.st8{enable-background:new    ;}
	.st9{fill-rule:evenodd;clip-rule:evenodd;fill:#3D42DF;}
	.st10{fill:#69696B;}
	.st11{fill:#3D42DF;enable-background:new    ;}
	.st12{fill:url(#SVGID_00000024684697998138464870000002839963372031220614_);}
	.st13{fill:none;stroke:#EEEEEE;stroke-width:3;stroke-miterlimit:10;}
	.st14{fill:url(#SVGID_00000101798318112732631730000003742691895123551360_);}
	.st15{fill:url(#SVGID_00000056413562221728788490000009157228799398665905_);}
	.st16{fill:url(#SVGID_00000167365498119736084090000016667985632855243405_);}
	.st17{opacity:0.6;fill:url(#SVGID_00000138537188718530614670000008342694059269819564_);}
	.st18{fill:url(#SVGID_00000013892123913862635370000002452752902338235824_);}
	.st19{opacity:0.6;fill:url(#SVGID_00000065780610351822309850000007237607981640570285_);}
	.st20{opacity:0.6;fill:url(#SVGID_00000047059911445179680480000005014806401242815111_);}
</style>
<linearGradient id="SVGID_00000018957556666108382180000004324739371495791538_" gradientUnits="userSpaceOnUse" x1="0" y1="73.9085" x2="350.7057" y2="73.9085">
	<stop  offset="0" style="stop-color:#0006B2"/>
	<stop  offset="1" style="stop-color:#5300E3"/>
</linearGradient>
<path style="opacity:0.6;fill:url(#SVGID_00000018957556666108382180000004324739371495791538_);" d="M337.3,147.8h-324
	c-7.4,0-13.4-6-13.4-13.4V13.4C0,6,6,0,13.4,0h324c7.4,0,13.4,6,13.4,13.4v121.1C350.7,141.8,344.7,147.8,337.3,147.8z"/>
<g>
	<path class="st1" d="M135.1,80h5.8c-1.4,4.6-3.8,8.1-7.2,10.7c-3.5,2.5-7.6,3.8-12.4,3.8c-6.1,0-11-2-14.8-5.8
		c-3.9-3.9-5.8-8.8-5.8-14.8c0-6,1.9-10.9,5.8-14.8c3.8-3.9,8.8-5.8,14.8-5.8c4.8,0,9,1.3,12.4,3.9c3.5,2.6,5.8,6.2,7.1,10.7h-5.8
		c-1.1-3-2.9-5.3-5.3-7c-2.4-1.6-5.3-2.5-8.4-2.5c-4.5,0-8.1,1.4-10.9,4.4c-2.8,2.9-4.2,6.6-4.2,11.1c0,4.5,1.4,8.1,4.2,11.1
		c2.8,2.9,6.4,4.4,10.9,4.4c3.2,0,6-0.8,8.4-2.4C132.1,85.4,133.9,83.1,135.1,80z"/>
	<path class="st1" d="M160,67.7h2.7v5H160c-2.5,0-4.5,0.8-6,2.3c-1.5,1.5-2.3,3.6-2.3,6.2V94h-5.1V81.2c0-4.5,1.2-7.8,3.6-10.1
		C152.6,68.9,155.8,67.7,160,67.7z"/>
	<path class="st1" d="M188,86.1h5.1c-1,2.8-2.6,4.9-4.9,6.3c-2.3,1.4-5,2.2-8.1,2.2c-4,0-7.3-1.3-9.8-3.9c-2.5-2.5-3.8-5.8-3.8-9.8
		c0-4,1.3-7.3,3.9-9.8c2.6-2.5,5.9-3.8,9.9-3.8c3.8,0,6.9,1.2,9.3,3.5c2.4,2.3,3.7,5.3,3.7,8.9c0,1-0.1,2-0.3,2.9h-19.7
		c-0.9,0-1.4,0.4-1.4,1.2c0,1.5,0.8,2.9,2.4,4.2s3.6,2,6,2c1.7,0,3.2-0.3,4.6-1C186.4,88.3,187.4,87.3,188,86.1z M180.5,71.6
		c-2.3,0-4.3,0.6-5.8,1.9c-1.6,1.2-2.5,2.9-2.8,5h15.5c0.7,0,1-0.3,1-1c0-1.5-0.7-2.8-2.2-4.1C184.6,72.3,182.7,71.6,180.5,71.6z"/>
	<path class="st1" d="M212,94.5c-3.8,0-6.9-1.3-9.4-3.9c-2.5-2.6-3.8-5.8-3.8-9.7c0-4,1.3-7.2,4-9.8c2.6-2.6,5.9-3.9,9.9-3.9
		c4,0,7.2,1.3,9.8,3.8c2.6,2.5,3.9,5.7,3.9,9.6V94h-4.8v-4.7c-1,1.6-2.4,2.9-4.1,3.8C215.7,94,213.9,94.5,212,94.5z M221.1,80.9
		c0-2.5-0.8-4.5-2.4-6.2c-1.6-1.6-3.7-2.5-6.1-2.5c-2.4,0-4.5,0.8-6.1,2.5c-1.6,1.6-2.4,3.7-2.4,6.2c0,2.5,0.8,4.6,2.4,6.2
		c1.6,1.6,3.7,2.5,6.1,2.5c2.5,0,4.5-0.8,6.1-2.5C220.2,85.4,221.1,83.4,221.1,80.9z"/>
	<path class="st1" d="M247.3,67.7h2.7v5h-2.7c-2.5,0-4.5,0.8-6,2.3c-1.5,1.5-2.3,3.6-2.3,6.2V94h-5.1V81.2c0-4.5,1.2-7.8,3.6-10.1
		C239.9,68.9,243.1,67.7,247.3,67.7z"/>
</g>
</svg>
