<?xml version="1.0" encoding="utf-8"?>
<!-- Generator: Adobe Illustrator 25.4.1, SVG Export Plug-In . SVG Version: 6.00 Build 0)  -->
<svg version="1.1" id="Capa_1" xmlns="http://www.w3.org/2000/svg" xmlns:xlink="http://www.w3.org/1999/xlink" x="0px" y="0px"
	 width="381.9px" height="147.8px" viewBox="0 0 381.9 147.8" style="enable-background:new 0 0 381.9 147.8;" xml:space="preserve"
	>
<style type="text/css">
	.st0{fill:#F7F7F7;}
	.st1{fill:#FFFFFF;}
	.st2{clip-path:url(#SVGID_00000135691282169288708540000018133639282274473919_);}
	.st3{fill:#B1B1B1;}
	.st4{clip-path:url(#SVGID_00000021805559324637698770000007982158821234044861_);}
	.st5{fill:#3D42DF;}
	.st6{fill:#7A7A7A;}
	.st7{fill:#CECECE;}
	.st8{enable-background:new    ;}
	.st9{fill-rule:evenodd;clip-rule:evenodd;fill:#3D42DF;}
	.st10{fill:#69696B;}
	.st11{fill:#3D42DF;enable-background:new    ;}
	.st12{fill:url(#SVGID_00000173863022383604497070000017634343646180934551_);}
	.st13{fill:none;stroke:#EEEEEE;stroke-width:3;stroke-miterlimit:10;}
	.st14{fill:url(#SVGID_00000168109203478282130530000015378123414380113583_);}
	.st15{fill:url(#SVGID_00000145754326348131539240000004849540004063720333_);}
	.st16{fill:url(#SVGID_00000054241232794771878060000005914346459492512940_);}
	.st17{fill:none;stroke:url(#SVGID_00000116944187221199603570000012514654519359178882_);stroke-width:3;stroke-miterlimit:10;}
	.st18{fill:none;stroke:url(#SVGID_00000115478182451908147250000003555808413236161203_);stroke-width:3;stroke-miterlimit:10;}
	.st19{fill:#D11A2A;}
	.st20{fill:url(#SVGID_00000030478658928422366460000005199983249670653572_);}
	.st21{opacity:0.6;fill:url(#SVGID_00000056389404843660041680000006951840320163470489_);}
	.st22{fill:url(#SVGID_00000132073564202397367780000010841656347109287817_);}
	.st23{opacity:0.6;fill:url(#SVGID_00000030467595144754134570000010614010518199906708_);}
	.st24{opacity:0.6;fill:url(#SVGID_00000013876622259499802400000003270887196260511157_);}
</style>
<linearGradient id="SVGID_00000118396143681819107630000003101702637174168208_" gradientUnits="userSpaceOnUse" x1="0" y1="73.9085" x2="381.8993" y2="73.9085">
	<stop  offset="0" style="stop-color:#0006B2"/>
	<stop  offset="1" style="stop-color:#5300E3"/>
</linearGradient>
<path style="fill:url(#SVGID_00000118396143681819107630000003101702637174168208_);" d="M368.5,147.8H13.4c-7.4,0-13.4-6-13.4-13.4
	V13.4C0,6,6,0,13.4,0h355.2c7.4,0,13.4,6,13.4,13.4v121.1C381.9,141.8,375.9,147.8,368.5,147.8z"/>
<g>
	<path class="st1" d="M136.6,75.6h5.8c-1.4,4.6-3.8,8.1-7.2,10.7c-3.5,2.5-7.6,3.8-12.4,3.8c-6.1,0-11-2-14.8-5.8
		c-3.9-3.9-5.8-8.8-5.8-14.8c0-6,1.9-10.9,5.8-14.8c3.8-3.9,8.8-5.8,14.8-5.8c4.8,0,9,1.3,12.4,3.9c3.5,2.6,5.8,6.2,7.1,10.7h-5.8
		c-1.1-3-2.9-5.3-5.3-7c-2.4-1.6-5.3-2.5-8.4-2.5c-4.5,0-8.1,1.4-10.9,4.4s-4.2,6.6-4.2,11.1c0,4.5,1.4,8.1,4.2,11.1
		c2.8,2.9,6.4,4.4,10.9,4.4c3.2,0,6-0.8,8.4-2.4C133.6,81,135.4,78.7,136.6,75.6z"/>
	<path class="st1" d="M170.6,86.2c-2.6,2.6-5.9,3.9-9.9,3.9c-4,0-7.3-1.3-9.8-3.9c-2.6-2.5-3.9-5.8-3.9-9.8c0-4,1.3-7.2,3.9-9.8
		c2.6-2.6,5.9-3.9,9.8-3.9c4,0,7.3,1.3,9.9,3.9c2.6,2.6,3.9,5.8,3.9,9.8C174.4,80.4,173.1,83.7,170.6,86.2z M154.6,82.6
		c1.6,1.6,3.6,2.5,6.1,2.5c2.5,0,4.5-0.8,6.1-2.5c1.6-1.6,2.4-3.7,2.4-6.2s-0.8-4.6-2.4-6.2c-1.6-1.6-3.7-2.4-6.1-2.4
		c-2.5,0-4.5,0.8-6.1,2.4c-1.6,1.6-2.4,3.7-2.4,6.2S153,81,154.6,82.6z"/>
	<path class="st1" d="M195.1,90.1c-1.8,0-3.5-0.4-5.2-1.2c-1.7-0.8-3-1.9-3.9-3.2v15.3h-5.1V76.5c0-3.9,1.3-7.2,4-9.8
		c2.6-2.6,5.9-3.9,9.8-3.9c4,0,7.2,1.3,9.8,3.9c2.6,2.6,3.9,5.8,3.9,9.8c0,3.9-1.3,7.2-3.8,9.7C202,88.8,198.8,90.1,195.1,90.1z
		 M188.5,70.3c-1.6,1.6-2.5,3.7-2.5,6.2c0,2.5,0.8,4.5,2.5,6.2c1.6,1.6,3.7,2.5,6.1,2.5c2.4,0,4.5-0.8,6.1-2.5
		c1.6-1.6,2.4-3.7,2.4-6.2c0-2.5-0.8-4.5-2.4-6.2c-1.6-1.6-3.7-2.5-6.1-2.5C192.2,67.8,190.1,68.6,188.5,70.3z"/>
	<path class="st1" d="M218.4,57c-1,0-1.9-0.4-2.5-1.1c-0.7-0.7-1-1.5-1-2.5c0-1,0.4-1.8,1.1-2.5c0.7-0.7,1.5-1,2.5-1s1.8,0.4,2.5,1
		c0.7,0.7,1,1.5,1,2.5c0,1-0.4,1.8-1,2.5C220.2,56.6,219.4,57,218.4,57z M215.8,89.6V63.3h5.2v26.3H215.8z"/>
	<path class="st1" d="M241.7,90.1c-3.8,0-6.9-1.3-9.4-3.9c-2.5-2.6-3.8-5.8-3.8-9.7c0-4,1.3-7.2,4-9.8c2.6-2.6,5.9-3.9,9.9-3.9
		c4,0,7.2,1.3,9.8,3.8c2.6,2.5,3.9,5.7,3.9,9.6v13.4h-4.8v-4.7c-1,1.6-2.4,2.9-4.1,3.8C245.4,89.6,243.6,90.1,241.7,90.1z
		 M250.7,76.5c0-2.5-0.8-4.5-2.4-6.2c-1.6-1.6-3.7-2.5-6.1-2.5c-2.4,0-4.5,0.8-6.1,2.5c-1.6,1.6-2.4,3.7-2.4,6.2
		c0,2.5,0.8,4.6,2.4,6.2c1.6,1.6,3.7,2.5,6.1,2.5c2.5,0,4.5-0.8,6.1-2.5C249.9,81,250.7,79,250.7,76.5z"/>
	<path class="st1" d="M277,63.3h2.7v5H277c-2.5,0-4.5,0.8-6,2.3c-1.5,1.5-2.3,3.6-2.3,6.2v12.8h-5.1V76.8c0-4.5,1.2-7.8,3.6-10.1
		C269.6,64.5,272.8,63.3,277,63.3z"/>
</g>
</svg>
