<?xml version="1.0" encoding="utf-8"?>
<!-- Generator: Adobe Illustrator 25.4.1, SVG Export Plug-In . SVG Version: 6.00 Build 0)  -->
<svg version="1.1" id="Capa_1" xmlns="http://www.w3.org/2000/svg" xmlns:xlink="http://www.w3.org/1999/xlink" x="0px" y="0px"
	 width="513.3px" height="150.8px" viewBox="0 0 513.3 150.8" style="enable-background:new 0 0 513.3 150.8;" xml:space="preserve"
	>
<style type="text/css">
	.st0{fill:#F7F7F7;}
	.st1{fill:#FFFFFF;}
	.st2{clip-path:url(#SVGID_00000140719793327141592190000001917678465652094365_);}
	.st3{fill:#B1B1B1;}
	.st4{clip-path:url(#SVGID_00000058553405059923705630000009447012738192560016_);}
	.st5{fill:#3D42DF;}
	.st6{fill:#7A7A7A;}
	.st7{fill:#CECECE;}
	.st8{enable-background:new    ;}
	.st9{fill-rule:evenodd;clip-rule:evenodd;fill:#3D42DF;}
	.st10{fill:#69696B;}
	.st11{fill:#3D42DF;enable-background:new    ;}
	.st12{fill:url(#SVGID_00000080919565172091409110000007119165193228222857_);}
	.st13{fill:none;stroke:#EEEEEE;stroke-width:3;stroke-miterlimit:10;}
	.st14{fill:url(#SVGID_00000026160134534002550620000003682680493789674919_);}
	.st15{fill:url(#SVGID_00000059308380045722803560000005277220483890141628_);}
	.st16{fill:url(#SVGID_00000044864677471875021600000014366429028900572850_);}
	.st17{fill:none;stroke:url(#SVGID_00000094596521676952106300000001467364655433399697_);stroke-width:3;stroke-miterlimit:10;}
	.st18{fill:#5BC5D1;}
	.st19{fill:none;stroke:url(#SVGID_00000094579706515374807730000003336626795661334191_);stroke-width:3;stroke-miterlimit:10;}
	.st20{fill:url(#SVGID_00000014597704851219946260000010768954700549431939_);}
	.st21{fill:none;stroke:url(#SVGID_00000109748322236572564450000009797138180323434630_);stroke-width:3;stroke-miterlimit:10;}
	.st22{fill:url(#SVGID_00000147905764939638234450000012821025443968651408_);}
	.st23{fill:url(#SVGID_00000110438297925501757410000018158676729251821497_);}
	.st24{fill:url(#SVGID_00000142159726151085709920000002233494915761703556_);}
	.st25{fill:url(#SVGID_00000013157275305227843820000007313652463813864082_);}
	.st26{fill:none;stroke:url(#SVGID_00000112590114829159001740000002588755372900145032_);stroke-width:3;stroke-miterlimit:10;}
	.st27{fill:#D11A2A;}
	.st28{fill:none;stroke:#0006B2;stroke-width:4;stroke-miterlimit:10;}
	.st29{fill:#0006B2;}
	.st30{opacity:0.6;fill:url(#SVGID_00000068666702729406474670000007918751351979544198_);}
	.st31{fill:url(#SVGID_00000088098718061274019470000014597484883337600691_);}
	.st32{fill:url(#SVGID_00000140700381655030253020000013037061510661539744_);}
	.st33{opacity:0.6;fill:url(#SVGID_00000109727850833632379700000011276456872632139709_);}
	.st34{opacity:0.6;fill:url(#SVGID_00000167393428356730747800000006253379930566515370_);}
	.st35{fill:none;stroke:#F98D3B;stroke-width:3;stroke-miterlimit:10;}
	.st36{fill:#F98D3B;}
	.st37{fill:url(#SVGID_00000120552158395573225730000013023939541354848950_);}
	.st38{fill:url(#SVGID_00000043437427707212227300000012369425404396779698_);}
	.st39{fill:url(#SVGID_00000011709705757995894910000005624248004096072362_);}
</style>
<g>
	<path class="st28" d="M498.5,149.3H14.9c-7.4,0-13.4-6-13.4-13.4V14.9c0-7.4,6-13.4,13.4-13.4h483.6c7.4,0,13.4,6,13.4,13.4v121.1
		C511.8,143.3,505.8,149.3,498.5,149.3z"/>
	<g>
		<path class="st29" d="M49.8,84.2V55.3c0-1.7,0.5-3.1,1.5-4.1c1-1,2.4-1.5,4.1-1.5h9.7c6,0,11.1,1.8,15,5.5s6,8.5,6,14.6
			c0,6.1-2,10.9-6,14.6c-4,3.7-9,5.5-15,5.5h-9.7c-1.7,0-3.1-0.5-4.1-1.5C50.3,87.3,49.8,85.9,49.8,84.2z M76.3,80.6
			c2.9-2.7,4.4-6.3,4.4-10.9c0-4.5-1.4-8.2-4.4-10.9c-2.9-2.7-6.6-4.1-11.1-4.1h-8.3c-0.5,0-0.9,0.2-1.2,0.5
			c-0.3,0.4-0.5,0.8-0.5,1.3V83c0,0.5,0.2,0.9,0.5,1.2c0.3,0.4,0.7,0.5,1.2,0.5h8.3C69.6,84.7,73.4,83.3,76.3,80.6z"/>
		<path class="st29" d="M113.3,81.9h5.1c-1,2.8-2.6,4.9-4.9,6.3c-2.3,1.4-5,2.2-8.1,2.2c-4,0-7.3-1.3-9.8-3.9
			c-2.5-2.5-3.8-5.8-3.8-9.8c0-4,1.3-7.3,3.9-9.8c2.6-2.5,5.9-3.8,9.9-3.8c3.8,0,6.9,1.2,9.3,3.5c2.4,2.3,3.7,5.3,3.7,8.9
			c0,1-0.1,2-0.3,2.9H98.6c-0.9,0-1.4,0.4-1.4,1.2c0,1.5,0.8,2.9,2.4,4.2s3.6,2,6,2c1.7,0,3.2-0.3,4.6-1
			C111.7,84.2,112.6,83.2,113.3,81.9z M105.7,67.5c-2.3,0-4.3,0.6-5.8,1.9c-1.6,1.2-2.5,2.9-2.8,5h15.5c0.7,0,1-0.3,1-1
			c0-1.5-0.7-2.8-2.2-4.1C109.9,68.1,108,67.5,105.7,67.5z"/>
		<path class="st29" d="M136.4,90.3c-3.3,0-6.1-0.8-8.4-2.3c-2.3-1.5-3.7-3.6-4.2-6.4h5.4c0.8,2.8,3.3,4.3,7.5,4.3
			c1.9,0,3.4-0.3,4.5-1c1.1-0.6,1.6-1.5,1.6-2.8c0-2-1.4-3.1-4.2-3.2l-5.8-0.5c-2.5-0.2-4.5-0.9-6-2.2c-1.5-1.2-2.3-2.9-2.3-5.2
			c0-2.6,1-4.6,3-6c2-1.4,4.6-2.1,7.9-2.1c3.1,0,5.8,0.7,8,2.1c2.2,1.4,3.6,3.4,4.2,6.2h-5.5c-0.5-1.3-1.4-2.3-2.6-2.9
			c-1.2-0.6-2.6-0.9-4.1-0.9c-1.8,0-3.1,0.3-4.2,0.9c-1.1,0.6-1.6,1.5-1.6,2.6c0,1.9,1.4,2.9,4.2,3.1l5.6,0.4
			c2.7,0.2,4.8,0.9,6.3,2.1c1.5,1.2,2.2,3,2.2,5.3c0,2.7-1.1,4.8-3.2,6.3C142.6,89.6,139.8,90.3,136.4,90.3z"/>
		<path class="st29" d="M174.4,80.2h5.4c-0.7,3-2.2,5.5-4.5,7.4c-2.3,1.9-5.1,2.8-8.4,2.8c-3.9,0-7.1-1.3-9.6-3.9
			c-2.6-2.6-3.9-5.8-3.9-9.8s1.3-7.2,3.9-9.8c2.5-2.6,5.8-3.9,9.6-3.9c3.3,0,6.1,0.9,8.5,2.8c2.3,1.9,3.8,4.4,4.5,7.4h-5.4
			c-0.6-1.6-1.5-2.8-2.9-3.8c-1.3-0.9-2.9-1.4-4.7-1.4c-2.4,0-4.3,0.8-5.9,2.5c-1.6,1.6-2.4,3.7-2.4,6.2c0,2.5,0.8,4.6,2.3,6.2
			c1.5,1.6,3.5,2.5,5.9,2.5c1.8,0,3.3-0.5,4.7-1.4C172.8,83,173.8,81.7,174.4,80.2z"/>
		<path class="st29" d="M197.8,90.3c-3.8,0-6.9-1.3-9.4-3.9c-2.5-2.6-3.8-5.8-3.8-9.7c0-4,1.3-7.2,4-9.8c2.6-2.6,5.9-3.9,9.9-3.9
			c4,0,7.2,1.3,9.8,3.8c2.6,2.5,3.9,5.7,3.9,9.6v13.4h-4.8v-4.7c-1,1.6-2.4,2.9-4.1,3.8C201.5,89.9,199.7,90.3,197.8,90.3z
			 M206.8,76.7c0-2.5-0.8-4.5-2.4-6.2c-1.6-1.6-3.7-2.5-6.1-2.5c-2.4,0-4.5,0.8-6.1,2.5c-1.6,1.6-2.4,3.7-2.4,6.2
			c0,2.5,0.8,4.6,2.4,6.2c1.6,1.6,3.7,2.5,6.1,2.5c2.5,0,4.5-0.8,6.1-2.5C206,81.3,206.8,79.2,206.8,76.7z"/>
		<path class="st29" d="M233.1,63.6h2.7v5h-2.7c-2.5,0-4.5,0.8-6,2.3c-1.5,1.5-2.3,3.6-2.3,6.2v12.8h-5.1V77.1
			c0-4.5,1.2-7.8,3.6-10.1C225.7,64.7,228.9,63.6,233.1,63.6z"/>
		<path class="st29" d="M267.2,76.6v12.5c0,3.8-1.2,6.8-3.7,9.1c-2.5,2.3-5.7,3.4-9.6,3.4c-3.3,0-6.1-0.9-8.4-2.6s-3.9-4-4.7-7h5.6
			c0.6,1.5,1.5,2.6,2.9,3.5c1.3,0.9,2.8,1.3,4.6,1.3c2.4,0,4.4-0.7,5.9-2.1c1.5-1.4,2.2-3.2,2.2-5.6v-3.6c-2.2,2.9-5.2,4.3-9,4.3
			s-7.1-1.2-9.6-3.8c-2.5-2.5-3.8-5.6-3.8-9.5c0-4,1.3-7.2,3.9-9.8c2.6-2.6,5.9-3.9,9.8-3.9c4,0,7.3,1.3,9.9,3.8
			C265.9,69.4,267.2,72.7,267.2,76.6z M259.7,82.9c1.6-1.6,2.4-3.7,2.4-6.2s-0.8-4.6-2.4-6.2c-1.6-1.6-3.7-2.4-6.2-2.4
			s-4.5,0.8-6.1,2.4c-1.6,1.6-2.4,3.7-2.4,6.2s0.8,4.6,2.5,6.2c1.6,1.6,3.7,2.5,6.2,2.5C256,85.3,258.1,84.5,259.7,82.9z"/>
		<path class="st29" d="M286.9,90.3c-3.8,0-6.9-1.3-9.4-3.9c-2.5-2.6-3.8-5.8-3.8-9.7c0-4,1.3-7.2,4-9.8c2.6-2.6,5.9-3.9,9.9-3.9
			c4,0,7.2,1.3,9.8,3.8c2.6,2.5,3.9,5.7,3.9,9.6v13.4h-4.8v-4.7c-1,1.6-2.4,2.9-4.1,3.8C290.7,89.9,288.8,90.3,286.9,90.3z
			 M296,76.7c0-2.5-0.8-4.5-2.4-6.2c-1.6-1.6-3.7-2.5-6.1-2.5c-2.4,0-4.5,0.8-6.1,2.5c-1.6,1.6-2.4,3.7-2.4,6.2
			c0,2.5,0.8,4.6,2.4,6.2c1.6,1.6,3.7,2.5,6.1,2.5c2.5,0,4.5-0.8,6.1-2.5C295.2,81.3,296,79.2,296,76.7z"/>
		<path class="st29" d="M322.3,63.6h2.7v5h-2.7c-2.5,0-4.5,0.8-6,2.3c-1.5,1.5-2.3,3.6-2.3,6.2v12.8h-5.1V77.1
			c0-4.5,1.2-7.8,3.6-10.1S318.1,63.6,322.3,63.6z"/>
		<path class="st29" d="M379.2,75.9h5.8c-1.4,4.6-3.8,8.1-7.2,10.7c-3.5,2.5-7.6,3.8-12.4,3.8c-6.1,0-11-2-14.8-5.8
			c-3.9-3.9-5.8-8.8-5.8-14.8c0-6,1.9-10.9,5.8-14.8c3.8-3.9,8.8-5.8,14.8-5.8c4.8,0,9,1.3,12.4,3.9c3.5,2.6,5.8,6.2,7.1,10.7h-5.8
			c-1.1-3-2.9-5.3-5.3-7c-2.4-1.6-5.3-2.5-8.4-2.5c-4.5,0-8.1,1.4-10.9,4.4s-4.2,6.6-4.2,11.1c0,4.5,1.4,8.1,4.2,11.1
			c2.8,2.9,6.4,4.4,10.9,4.4c3.2,0,6-0.8,8.4-2.4C376.2,81.2,378,78.9,379.2,75.9z"/>
		<path class="st29" d="M406.8,90.3c-9.9,0-15.7-4.2-17.3-12.7h5.8c1.3,5.1,5.2,7.7,11.5,7.7c3.1,0,5.7-0.6,7.6-1.8
			c1.9-1.2,2.9-3,2.9-5.5c0-3.6-2.3-5.5-7-5.8l-7.8-0.6c-3.7-0.3-6.5-1.3-8.7-3.2c-2.1-1.9-3.1-4.4-3.1-7.6c0-3.7,1.4-6.5,4.1-8.6
			s6.4-3.1,11-3.1c2.5,0,4.8,0.4,7,1c2.1,0.7,4.1,1.9,5.8,3.6s2.8,3.9,3.5,6.4h-5.8c-1.4-4-4.9-6-10.5-6c-3,0-5.4,0.6-7,1.8
			c-1.7,1.2-2.5,2.8-2.5,4.8c0,1.8,0.6,3.1,1.9,4.1c1.2,1,2.9,1.5,5.1,1.6l7.7,0.6c3.7,0.3,6.6,1.3,8.8,3.1c2.1,1.8,3.2,4.4,3.2,7.6
			c0,3.9-1.4,7-4.4,9.2C415.4,89.2,411.6,90.3,406.8,90.3z"/>
		<path class="st29" d="M445.8,84.2l11.9-34.6h5.8l-13.3,36.4c-0.5,1.4-1.2,2.4-2,3c-0.8,0.7-1.9,1-3.3,1s-2.5-0.3-3.3-1
			c-0.9-0.6-1.5-1.6-2-3l-13.3-36.4h5.9l12.2,34.6c0.2,0.4,0.4,0.6,0.7,0.6C445.4,84.8,445.6,84.6,445.8,84.2z"/>
	</g>
</g>
</svg>
