<?xml version="1.0" encoding="utf-8"?>
<!-- Generator: Adobe Illustrator 25.4.1, SVG Export Plug-In . SVG Version: 6.00 Build 0)  -->
<svg version="1.1" id="Capa_1" xmlns="http://www.w3.org/2000/svg" xmlns:xlink="http://www.w3.org/1999/xlink" x="0px" y="0px"
	 width="381.9px" height="147.8px" viewBox="0 0 381.9 147.8" style="enable-background:new 0 0 381.9 147.8;" xml:space="preserve"
	>
<style type="text/css">
	.st0{fill:#F7F7F7;}
	.st1{fill:#FFFFFF;}
	.st2{clip-path:url(#SVGID_00000067206720161356172280000015574086651952157606_);}
	.st3{fill:#B1B1B1;}
	.st4{clip-path:url(#SVGID_00000083769723520319139160000008218562091246973086_);}
	.st5{fill:#3D42DF;}
	.st6{fill:#7A7A7A;}
	.st7{fill:#CECECE;}
	.st8{enable-background:new    ;}
	.st9{fill-rule:evenodd;clip-rule:evenodd;fill:#3D42DF;}
	.st10{fill:#69696B;}
	.st11{fill:#3D42DF;enable-background:new    ;}
	.st12{fill:url(#SVGID_00000139278976805213184110000009754698523504668548_);}
	.st13{fill:none;stroke:#EEEEEE;stroke-width:3;stroke-miterlimit:10;}
	.st14{fill:url(#SVGID_00000029033146763276826210000015676165555788061070_);}
	.st15{fill:url(#SVGID_00000072263786297910943330000000818205760123744900_);}
	.st16{fill:url(#SVGID_00000126308895776820168220000015417273092023673497_);}
	.st17{fill:none;stroke:url(#SVGID_00000127749040452923463620000008444534045794454446_);stroke-width:3;stroke-miterlimit:10;}
	.st18{fill:url(#SVGID_00000181049973890274029580000017036719876998147737_);}
	.st19{fill:url(#SVGID_00000058574480925722291060000018345241382665397908_);}
	.st20{fill:none;stroke:url(#SVGID_00000130609696961804020000000017945815560706653870_);stroke-width:3;stroke-miterlimit:10;}
	.st21{fill:#D11A2A;}
	.st22{fill:url(#SVGID_00000173845127839468496620000001621846644542952358_);}
	.st23{opacity:0.6;fill:url(#SVGID_00000061460539014133356590000006868745763606341779_);}
	.st24{fill:url(#SVGID_00000132777847980326562680000004585538479813224112_);}
	.st25{opacity:0.6;fill:url(#SVGID_00000062194559971687772140000010048332448082388917_);}
	.st26{opacity:0.6;fill:url(#SVGID_00000006671761037718913560000018215956935654205596_);}
</style>
<linearGradient id="SVGID_00000003792959309127900280000017653745238713528481_" gradientUnits="userSpaceOnUse" x1="0" y1="73.9085" x2="381.8993" y2="73.9085">
	<stop  offset="0" style="stop-color:#5BC5D1"/>
	<stop  offset="1" style="stop-color:#79F6D2"/>
</linearGradient>
<path style="fill:url(#SVGID_00000003792959309127900280000017653745238713528481_);" d="M368.5,147.8H13.4c-7.4,0-13.4-6-13.4-13.4
	V13.4C0,6,6,0,13.4,0h355.2c7.4,0,13.4,6,13.4,13.4v121.1C381.9,141.8,375.9,147.8,368.5,147.8z"/>
<g>
	<g>
		<path class="st1" d="M53.4,82.4V53.6c0-1.7,0.5-3.1,1.5-4.1c1-1,2.4-1.5,4.1-1.5h9.7c6,0,11.1,1.8,15,5.5s6,8.5,6,14.6
			c0,6.1-2,10.9-6,14.6c-4,3.7-9,5.5-15,5.5h-9.7c-1.7,0-3.1-0.5-4.1-1.5C53.9,85.5,53.4,84.2,53.4,82.4z M79.9,78.9
			c2.9-2.7,4.4-6.3,4.4-10.9c0-4.5-1.4-8.2-4.4-10.9S73.2,53,68.7,53h-8.3c-0.5,0-0.9,0.2-1.2,0.5c-0.3,0.4-0.5,0.8-0.5,1.3v26.5
			c0,0.5,0.2,0.9,0.5,1.2c0.3,0.4,0.7,0.5,1.2,0.5h8.3C73.2,83,76.9,81.6,79.9,78.9z"/>
		<path class="st1" d="M116.9,80.1h5.1c-1,2.8-2.6,4.9-4.9,6.3c-2.3,1.4-5,2.2-8.1,2.2c-4,0-7.3-1.3-9.8-3.9
			c-2.5-2.5-3.8-5.8-3.8-9.8c0-4,1.3-7.3,3.9-9.8c2.6-2.5,5.9-3.8,9.9-3.8c3.8,0,6.9,1.2,9.3,3.5c2.4,2.3,3.7,5.3,3.7,8.9
			c0,1-0.1,2-0.3,2.9h-19.7c-0.9,0-1.4,0.4-1.4,1.2c0,1.5,0.8,2.9,2.4,4.2s3.6,2,6,2c1.7,0,3.2-0.3,4.6-1
			C115.2,82.4,116.2,81.4,116.9,80.1z M109.3,65.7c-2.3,0-4.3,0.6-5.8,1.9c-1.6,1.2-2.5,2.9-2.8,5h15.5c0.7,0,1-0.3,1-1
			c0-1.5-0.7-2.8-2.2-4.1C113.4,66.3,111.6,65.7,109.3,65.7z"/>
		<path class="st1" d="M139.9,88.6c-3.3,0-6.1-0.8-8.4-2.3c-2.3-1.5-3.7-3.6-4.2-6.4h5.4c0.8,2.8,3.3,4.3,7.5,4.3
			c1.9,0,3.4-0.3,4.5-1c1.1-0.6,1.6-1.5,1.6-2.8c0-2-1.4-3.1-4.2-3.2l-5.8-0.5c-2.5-0.2-4.5-0.9-6-2.2c-1.5-1.2-2.3-2.9-2.3-5.2
			c0-2.6,1-4.6,3-6c2-1.4,4.6-2.1,7.9-2.1c3.1,0,5.8,0.7,8,2.1c2.2,1.4,3.6,3.5,4.2,6.2h-5.5c-0.5-1.3-1.4-2.3-2.6-2.9
			s-2.6-0.9-4.1-0.9c-1.8,0-3.1,0.3-4.2,0.9c-1.1,0.6-1.6,1.5-1.6,2.6c0,1.9,1.4,2.9,4.2,3.1l5.6,0.4c2.7,0.2,4.8,0.9,6.3,2.1
			c1.5,1.2,2.2,3,2.2,5.3c0,2.7-1.1,4.8-3.2,6.3C146.2,87.8,143.4,88.6,139.9,88.6z"/>
		<path class="st1" d="M178,78.4h5.4c-0.7,3-2.2,5.5-4.5,7.4c-2.3,1.9-5.1,2.8-8.4,2.8c-3.9,0-7.1-1.3-9.6-3.9
			c-2.6-2.6-3.9-5.8-3.9-9.8c0-4,1.3-7.2,3.9-9.8c2.5-2.6,5.8-3.9,9.6-3.9c3.3,0,6.1,0.9,8.5,2.8c2.3,1.9,3.8,4.4,4.5,7.4H178
			c-0.6-1.6-1.5-2.8-2.9-3.8c-1.3-0.9-2.9-1.4-4.7-1.4c-2.4,0-4.3,0.8-5.9,2.5c-1.6,1.6-2.4,3.7-2.4,6.2c0,2.5,0.8,4.6,2.3,6.2
			c1.5,1.6,3.5,2.5,5.9,2.5c1.8,0,3.3-0.5,4.7-1.4C176.4,81.2,177.4,80,178,78.4z"/>
		<path class="st1" d="M201.3,88.6c-3.8,0-6.9-1.3-9.4-3.9c-2.5-2.6-3.8-5.8-3.8-9.7c0-4,1.3-7.2,4-9.8c2.6-2.6,5.9-3.9,9.9-3.9
			c4,0,7.2,1.3,9.8,3.8c2.6,2.5,3.9,5.7,3.9,9.6v13.4h-4.8v-4.7c-1,1.6-2.4,2.9-4.1,3.8C205,88.1,203.2,88.6,201.3,88.6z
			 M210.4,74.9c0-2.5-0.8-4.5-2.4-6.2c-1.6-1.6-3.7-2.5-6.1-2.5c-2.4,0-4.5,0.8-6.1,2.5c-1.6,1.6-2.4,3.7-2.4,6.2
			c0,2.5,0.8,4.6,2.4,6.2c1.6,1.6,3.7,2.5,6.1,2.5c2.5,0,4.5-0.8,6.1-2.5C209.6,79.5,210.4,77.5,210.4,74.9z"/>
		<path class="st1" d="M236.6,61.8h2.7v5h-2.7c-2.5,0-4.5,0.8-6,2.3c-1.5,1.5-2.3,3.6-2.3,6.2v12.8h-5.1V75.3
			c0-4.5,1.2-7.8,3.6-10.1C229.2,62.9,232.5,61.8,236.6,61.8z"/>
		<path class="st1" d="M270.8,74.9v12.5c0,3.8-1.2,6.8-3.7,9.1c-2.5,2.3-5.7,3.4-9.6,3.4c-3.3,0-6.1-0.9-8.4-2.6s-3.9-4-4.7-7h5.6
			c0.6,1.5,1.5,2.6,2.9,3.5c1.3,0.9,2.8,1.3,4.6,1.3c2.4,0,4.4-0.7,5.9-2.1c1.5-1.4,2.2-3.2,2.2-5.6v-3.6c-2.2,2.9-5.2,4.3-9,4.3
			s-7.1-1.2-9.6-3.8c-2.5-2.5-3.8-5.6-3.8-9.5c0-4,1.3-7.2,3.9-9.8c2.6-2.6,5.9-3.9,9.8-3.9c4,0,7.3,1.3,9.9,3.8
			C269.5,67.7,270.8,70.9,270.8,74.9z M263.2,81.1c1.6-1.6,2.4-3.7,2.4-6.2s-0.8-4.6-2.4-6.2c-1.6-1.6-3.7-2.4-6.2-2.4
			s-4.5,0.8-6.1,2.4c-1.6,1.6-2.4,3.7-2.4,6.2s0.8,4.6,2.5,6.2c1.6,1.6,3.7,2.5,6.2,2.5C259.6,83.6,261.6,82.8,263.2,81.1z"/>
		<path class="st1" d="M290.5,88.6c-3.8,0-6.9-1.3-9.4-3.9c-2.5-2.6-3.8-5.8-3.8-9.7c0-4,1.3-7.2,4-9.8c2.6-2.6,5.9-3.9,9.9-3.9
			c4,0,7.2,1.3,9.8,3.8c2.6,2.5,3.9,5.7,3.9,9.6v13.4H300v-4.7c-1,1.6-2.4,2.9-4.1,3.8C294.2,88.1,292.4,88.6,290.5,88.6z
			 M299.6,74.9c0-2.5-0.8-4.5-2.4-6.2c-1.6-1.6-3.7-2.5-6.1-2.5c-2.4,0-4.5,0.8-6.1,2.5c-1.6,1.6-2.4,3.7-2.4,6.2
			c0,2.5,0.8,4.6,2.4,6.2c1.6,1.6,3.7,2.5,6.1,2.5c2.5,0,4.5-0.8,6.1-2.5C298.7,79.5,299.6,77.5,299.6,74.9z"/>
		<path class="st1" d="M325.8,61.8h2.7v5h-2.7c-2.5,0-4.5,0.8-6,2.3c-1.5,1.5-2.3,3.6-2.3,6.2v12.8h-5.1V75.3
			c0-4.5,1.2-7.8,3.6-10.1C318.4,62.9,321.7,61.8,325.8,61.8z"/>
	</g>
</g>
</svg>
