<?xml version="1.0" encoding="utf-8"?>
<!-- Generator: Adobe Illustrator 25.4.1, SVG Export Plug-In . SVG Version: 6.00 Build 0)  -->
<svg version="1.1" id="Capa_1" xmlns="http://www.w3.org/2000/svg" xmlns:xlink="http://www.w3.org/1999/xlink" x="0px" y="0px"
	 width="487.5px" height="150.8px" viewBox="0 0 487.5 150.8" style="enable-background:new 0 0 487.5 150.8;" xml:space="preserve"
	>
<style type="text/css">
	.st0{fill:#F7F7F7;}
	.st1{fill:#FFFFFF;}
	.st2{clip-path:url(#SVGID_00000112607384759255278900000001962378259547114143_);}
	.st3{fill:#B1B1B1;}
	.st4{clip-path:url(#SVGID_00000098940620507655756910000005322744761130060976_);}
	.st5{fill:#3D42DF;}
	.st6{fill:#7A7A7A;}
	.st7{fill:#CECECE;}
	.st8{enable-background:new    ;}
	.st9{fill-rule:evenodd;clip-rule:evenodd;fill:#3D42DF;}
	.st10{fill:#69696B;}
	.st11{fill:#3D42DF;enable-background:new    ;}
	.st12{fill:url(#SVGID_00000072265060582402469510000016893933365174297262_);}
	.st13{fill:none;stroke:#EEEEEE;stroke-width:3;stroke-miterlimit:10;}
	.st14{fill:url(#SVGID_00000039121937626019006340000010905775300205964989_);}
	.st15{fill:url(#SVGID_00000030485724406462438130000007050789757704180380_);}
	.st16{fill:url(#SVGID_00000161591250294193204650000018197485168750005655_);}
	.st17{fill:none;stroke:url(#SVGID_00000167360567926192082930000017388918209591878301_);stroke-width:3;stroke-miterlimit:10;}
	.st18{fill:#5BC5D1;}
	.st19{fill:none;stroke:url(#SVGID_00000181061940185175415240000001217558263826724543_);stroke-width:3;stroke-miterlimit:10;}
	.st20{fill:url(#SVGID_00000094603852524881907080000017702694238876685451_);}
	.st21{fill:none;stroke:url(#SVGID_00000078739727820961602560000016569904324816522152_);stroke-width:3;stroke-miterlimit:10;}
	.st22{fill:url(#SVGID_00000018953898612221481780000005460435552502864556_);}
	.st23{fill:url(#SVGID_00000029745412047962358010000015982453556787451546_);}
	.st24{fill:url(#SVGID_00000095305431054606184650000003262589978644852377_);}
	.st25{fill:url(#SVGID_00000026849049086913890860000015470745428757919627_);}
	.st26{fill:none;stroke:url(#SVGID_00000033367894645514061620000017809123623133996421_);stroke-width:3;stroke-miterlimit:10;}
	.st27{fill:#D11A2A;}
	.st28{fill:none;stroke:#0006B2;stroke-width:4;stroke-miterlimit:10;}
	.st29{fill:#0006B2;}
	.st30{opacity:0.6;fill:url(#SVGID_00000163753805060864212410000000510039956431174326_);}
	.st31{fill:url(#SVGID_00000018217674470359145320000010001756775074256520_);}
	.st32{fill:url(#SVGID_00000111900404737141534040000003258160925447063952_);}
	.st33{opacity:0.6;fill:url(#SVGID_00000078024887027077405760000009004222218189359801_);}
	.st34{opacity:0.6;fill:url(#SVGID_00000010312427946248056300000012532304764631800974_);}
	.st35{fill:none;stroke:#F98D3B;stroke-width:3;stroke-miterlimit:10;}
	.st36{fill:#F98D3B;}
	.st37{fill:url(#SVGID_00000137118201165533055000000012905284348796889015_);}
	.st38{fill:url(#SVGID_00000114068522817484101500000014312770327825830588_);}
	.st39{fill:url(#SVGID_00000062166921539252628010000008841500985963037863_);}
</style>
<g>
	<path class="st28" d="M472.6,149.3H14.9c-7.4,0-13.4-6-13.4-13.4V14.9c0-7.4,6-13.4,13.4-13.4h457.8c7.4,0,13.4,6,13.4,13.4v121.1
		C486,143.3,480,149.3,472.6,149.3z"/>
	<g>
		<path class="st29" d="M54.5,84.2V55.3c0-1.7,0.5-3.1,1.5-4.1c1-1,2.4-1.5,4.1-1.5h9.7c6,0,11.1,1.8,15,5.5s6,8.5,6,14.6
			c0,6.1-2,10.9-6,14.6c-4,3.7-9,5.5-15,5.5h-9.7c-1.7,0-3.1-0.5-4.1-1.5C55.1,87.3,54.5,85.9,54.5,84.2z M81,80.6
			c2.9-2.7,4.4-6.3,4.4-10.9c0-4.5-1.4-8.2-4.4-10.9s-6.6-4.1-11.1-4.1h-8.3c-0.5,0-0.9,0.2-1.2,0.5c-0.3,0.4-0.5,0.8-0.5,1.3V83
			c0,0.5,0.2,0.9,0.5,1.2c0.3,0.4,0.7,0.5,1.2,0.5h8.3C74.4,84.7,78.1,83.3,81,80.6z"/>
		<path class="st29" d="M118,81.9h5.1c-1,2.8-2.6,4.9-4.9,6.3c-2.3,1.4-5,2.2-8.1,2.2c-4,0-7.3-1.3-9.8-3.9
			c-2.5-2.5-3.8-5.8-3.8-9.8c0-4,1.3-7.3,3.9-9.8c2.6-2.5,5.9-3.8,9.9-3.8c3.8,0,6.9,1.2,9.3,3.5c2.4,2.3,3.7,5.3,3.7,8.9
			c0,1-0.1,2-0.3,2.9h-19.7c-0.9,0-1.4,0.4-1.4,1.2c0,1.5,0.8,2.9,2.4,4.2s3.6,2,6,2c1.7,0,3.2-0.3,4.6-1
			C116.4,84.2,117.4,83.2,118,81.9z M110.5,67.5c-2.3,0-4.3,0.6-5.8,1.9c-1.6,1.2-2.5,2.9-2.8,5h15.5c0.7,0,1-0.3,1-1
			c0-1.5-0.7-2.8-2.2-4.1C114.6,68.1,112.7,67.5,110.5,67.5z"/>
		<path class="st29" d="M141.1,90.3c-3.3,0-6.1-0.8-8.4-2.3c-2.3-1.5-3.7-3.6-4.2-6.4h5.4c0.8,2.8,3.3,4.3,7.5,4.3
			c1.9,0,3.4-0.3,4.5-1c1.1-0.6,1.6-1.5,1.6-2.8c0-2-1.4-3.1-4.2-3.2l-5.8-0.5c-2.5-0.2-4.5-0.9-6-2.2c-1.5-1.2-2.3-2.9-2.3-5.2
			c0-2.6,1-4.6,3-6c2-1.4,4.6-2.1,7.9-2.1c3.1,0,5.8,0.7,8,2.1c2.2,1.4,3.6,3.5,4.2,6.2h-5.5c-0.5-1.3-1.4-2.3-2.6-2.9
			s-2.6-0.9-4.1-0.9c-1.8,0-3.1,0.3-4.2,0.9c-1.1,0.6-1.6,1.5-1.6,2.6c0,1.9,1.4,2.9,4.2,3.1l5.6,0.4c2.7,0.2,4.8,0.9,6.3,2.1
			c1.5,1.2,2.2,3,2.2,5.3c0,2.7-1.1,4.8-3.2,6.3C147.3,89.6,144.5,90.3,141.1,90.3z"/>
		<path class="st29" d="M179.1,80.2h5.4c-0.7,3-2.2,5.5-4.5,7.4c-2.3,1.9-5.1,2.8-8.4,2.8c-3.9,0-7.1-1.3-9.6-3.9
			c-2.6-2.6-3.9-5.8-3.9-9.8c0-4,1.3-7.2,3.9-9.8c2.5-2.6,5.8-3.9,9.6-3.9c3.3,0,6.1,0.9,8.5,2.8c2.3,1.9,3.8,4.4,4.5,7.4h-5.4
			c-0.6-1.6-1.5-2.8-2.9-3.8c-1.3-0.9-2.9-1.4-4.7-1.4c-2.4,0-4.3,0.8-5.9,2.5c-1.6,1.6-2.4,3.7-2.4,6.2c0,2.5,0.8,4.6,2.3,6.2
			c1.5,1.6,3.5,2.5,5.9,2.5c1.8,0,3.3-0.5,4.7-1.4C177.6,83,178.5,81.7,179.1,80.2z"/>
		<path class="st29" d="M202.5,90.3c-3.8,0-6.9-1.3-9.4-3.9c-2.5-2.6-3.8-5.8-3.8-9.7c0-4,1.3-7.2,4-9.8c2.6-2.6,5.9-3.9,9.9-3.9
			c4,0,7.2,1.3,9.8,3.8c2.6,2.5,3.9,5.7,3.9,9.6v13.4H212v-4.7c-1,1.6-2.4,2.9-4.1,3.8C206.2,89.9,204.4,90.3,202.5,90.3z
			 M211.5,76.7c0-2.5-0.8-4.5-2.4-6.2c-1.6-1.6-3.7-2.5-6.1-2.5c-2.4,0-4.5,0.8-6.1,2.5c-1.6,1.6-2.4,3.7-2.4,6.2
			c0,2.5,0.8,4.6,2.4,6.2c1.6,1.6,3.7,2.5,6.1,2.5c2.5,0,4.5-0.8,6.1-2.5C210.7,81.3,211.5,79.2,211.5,76.7z"/>
		<path class="st29" d="M237.8,63.6h2.7v5h-2.7c-2.5,0-4.5,0.8-6,2.3c-1.5,1.5-2.3,3.6-2.3,6.2v12.8h-5.1V77.1
			c0-4.5,1.2-7.8,3.6-10.1C230.4,64.7,233.6,63.6,237.8,63.6z"/>
		<path class="st29" d="M271.9,76.6v12.5c0,3.8-1.2,6.8-3.7,9.1c-2.5,2.3-5.7,3.4-9.6,3.4c-3.3,0-6.1-0.9-8.4-2.6s-3.9-4-4.7-7h5.6
			c0.6,1.5,1.5,2.6,2.9,3.5c1.3,0.9,2.8,1.3,4.6,1.3c2.4,0,4.4-0.7,5.9-2.1c1.5-1.4,2.2-3.2,2.2-5.6v-3.6c-2.2,2.9-5.2,4.3-9,4.3
			c-3.9,0-7.1-1.2-9.6-3.8c-2.5-2.5-3.8-5.6-3.8-9.5c0-4,1.3-7.2,3.9-9.8c2.6-2.6,5.9-3.9,9.8-3.9c4,0,7.3,1.3,9.9,3.8
			C270.7,69.4,271.9,72.7,271.9,76.6z M264.4,82.9c1.6-1.6,2.4-3.7,2.4-6.2s-0.8-4.6-2.4-6.2c-1.6-1.6-3.7-2.4-6.2-2.4
			c-2.5,0-4.5,0.8-6.1,2.4c-1.6,1.6-2.4,3.7-2.4,6.2s0.8,4.6,2.5,6.2c1.6,1.6,3.7,2.5,6.2,2.5C260.8,85.3,262.8,84.5,264.4,82.9z"/>
		<path class="st29" d="M291.7,90.3c-3.8,0-6.9-1.3-9.4-3.9c-2.5-2.6-3.8-5.8-3.8-9.7c0-4,1.3-7.2,4-9.8c2.6-2.6,5.9-3.9,9.9-3.9
			c4,0,7.2,1.3,9.8,3.8c2.6,2.5,3.9,5.7,3.9,9.6v13.4h-4.8v-4.7c-1,1.6-2.4,2.9-4.1,3.8C295.4,89.9,293.6,90.3,291.7,90.3z
			 M300.7,76.7c0-2.5-0.8-4.5-2.4-6.2c-1.6-1.6-3.7-2.5-6.1-2.5c-2.4,0-4.5,0.8-6.1,2.5c-1.6,1.6-2.4,3.7-2.4,6.2
			c0,2.5,0.8,4.6,2.4,6.2c1.6,1.6,3.7,2.5,6.1,2.5c2.5,0,4.5-0.8,6.1-2.5C299.9,81.3,300.7,79.2,300.7,76.7z"/>
		<path class="st29" d="M327,63.6h2.7v5H327c-2.5,0-4.5,0.8-6,2.3c-1.5,1.5-2.3,3.6-2.3,6.2v12.8h-5.1V77.1c0-4.5,1.2-7.8,3.6-10.1
			S322.8,63.6,327,63.6z"/>
		<path class="st29" d="M370.4,90.3c-6.1,0-11.1-1.9-15-5.8c-3.9-3.9-5.9-8.8-5.9-14.8s2-11,5.9-14.8c3.9-3.9,8.9-5.8,15-5.8
			c6.1,0,11.1,1.9,15,5.8s5.9,8.8,5.9,14.8s-2,11-5.9,14.8S376.5,90.3,370.4,90.3z M370.4,85.2c4.5,0,8.2-1.4,11.1-4.4
			c2.8-2.9,4.3-6.6,4.3-11.1c0-4.5-1.4-8.2-4.3-11.2c-2.9-2.9-6.6-4.3-11.1-4.3c-4.5,0-8.2,1.4-11.1,4.3c-2.8,2.9-4.3,6.6-4.3,11.2
			c0,4.5,1.4,8.2,4.3,11.1C362.2,83.8,365.9,85.2,370.4,85.2z M394.3,93.1v5.2h-24.7v-5.2H394.3z"/>
		<path class="st29" d="M433,89.8h-6.5l-10.1-14.6h-10.5v14.6h-5.4V55.3c0-1.6,0.5-3,1.6-4.1c1-1.1,2.4-1.6,4.1-1.6h12.3
			c4,0,7.2,1.1,9.8,3.5c2.6,2.3,3.9,5.5,3.9,9.4c0,3-0.9,5.6-2.8,7.7c-1.9,2.1-4.3,3.6-7.3,4.4L433,89.8z M405.9,56.5v13.7h12.6
			c2.3,0,4.3-0.7,5.9-2.1c1.6-1.4,2.4-3.2,2.4-5.6c0-2.4-0.8-4.3-2.4-5.7c-1.6-1.4-3.6-2.1-5.9-2.1h-10.9c-0.5,0-0.9,0.2-1.2,0.5
			C406,55.6,405.9,56,405.9,56.5z"/>
	</g>
</g>
</svg>
