<?xml version="1.0" encoding="utf-8"?>
<!-- Generator: Adobe Illustrator 25.4.1, SVG Export Plug-In . SVG Version: 6.00 Build 0)  -->
<svg version="1.1" id="Capa_1" xmlns="http://www.w3.org/2000/svg" xmlns:xlink="http://www.w3.org/1999/xlink" x="0px" y="0px"
	 width="605.9px" height="150.8px" viewBox="0 0 605.9 150.8" style="enable-background:new 0 0 605.9 150.8;" xml:space="preserve"
	>
<style type="text/css">
	.st0{fill:#F7F7F7;}
	.st1{fill:#FFFFFF;}
	.st2{clip-path:url(#SVGID_00000003098304871961014160000018008206204393074818_);}
	.st3{fill:#B1B1B1;}
	.st4{clip-path:url(#SVGID_00000175285163890455393420000016864052701746299323_);}
	.st5{fill:#3D42DF;}
	.st6{fill:#7A7A7A;}
	.st7{fill:#CECECE;}
	.st8{enable-background:new    ;}
	.st9{fill-rule:evenodd;clip-rule:evenodd;fill:#3D42DF;}
	.st10{fill:#69696B;}
	.st11{fill:#3D42DF;enable-background:new    ;}
	.st12{fill:url(#SVGID_00000170956993402679910710000014807030005988408201_);}
	.st13{fill:none;stroke:#EEEEEE;stroke-width:3;stroke-miterlimit:10;}
	.st14{fill:url(#SVGID_00000090265000633554764210000001947123965740740512_);}
	.st15{fill:url(#SVGID_00000093144766962685299080000018356980696192509334_);}
	.st16{fill:url(#SVGID_00000163050589506005771200000010229081630073627293_);}
	.st17{fill:none;stroke:url(#SVGID_00000029743543391882211040000009833415114778565023_);stroke-width:3;stroke-miterlimit:10;}
	.st18{fill:#5BC5D1;}
	.st19{fill:none;stroke:url(#SVGID_00000156556529921794400440000015212072696632971702_);stroke-width:3;stroke-miterlimit:10;}
	.st20{fill:url(#SVGID_00000058571663791282285610000007975514470731967111_);}
	.st21{fill:none;stroke:url(#SVGID_00000163794492724599921260000004221644746117770124_);stroke-width:3;stroke-miterlimit:10;}
	.st22{fill:url(#SVGID_00000090265388024849471690000015591029994146957203_);}
	.st23{fill:url(#SVGID_00000045594871093877975200000002942446149888470185_);}
	.st24{fill:url(#SVGID_00000127740493861782347870000008279446322737893284_);}
	.st25{fill:url(#SVGID_00000048465425383499899280000009918577449949926552_);}
	.st26{fill:none;stroke:url(#SVGID_00000116919113747644837290000013942499943813934240_);stroke-width:3;stroke-miterlimit:10;}
	.st27{fill:#D11A2A;}
	.st28{fill:none;stroke:#0006B2;stroke-width:4;stroke-miterlimit:10;}
	.st29{fill:#0006B2;}
	.st30{opacity:0.6;fill:url(#SVGID_00000127040307102524403840000001942340716555750326_);}
	.st31{fill:url(#SVGID_00000061452673429520716670000005455770519448192150_);}
	.st32{fill:url(#SVGID_00000091010007776116952460000003738692811502528386_);}
	.st33{opacity:0.6;fill:url(#SVGID_00000113341695376268323150000007893157827723333787_);}
	.st34{opacity:0.6;fill:url(#SVGID_00000045584650989852297270000003092327616133565066_);}
	.st35{fill:none;stroke:#F98D3B;stroke-width:3;stroke-miterlimit:10;}
	.st36{fill:#F98D3B;}
	.st37{fill:url(#SVGID_00000090975739870292134150000000605111721447039390_);}
	.st38{fill:url(#SVGID_00000035507665598147020280000011618458235263548053_);}
	.st39{fill:url(#SVGID_00000043424657421479587520000000697007895181888908_);}
</style>
<g>
	<path class="st28" d="M591,149.3H14.9c-7.4,0-13.4-6-13.4-13.4V14.9c0-7.4,6-13.4,13.4-13.4H591c7.4,0,13.4,6,13.4,13.4v121.1
		C604.4,143.3,598.4,149.3,591,149.3z"/>
	<g>
		<path class="st29" d="M53.3,83.9V55.1c0-1.7,0.5-3.1,1.5-4.1c1-1,2.4-1.5,4.1-1.5h9.7c6,0,11.1,1.8,15,5.5s6,8.5,6,14.6
			c0,6.1-2,10.9-6,14.6c-4,3.7-9,5.5-15,5.5H59c-1.7,0-3.1-0.5-4.1-1.5C53.9,87,53.3,85.7,53.3,83.9z M79.8,80.4
			c2.9-2.7,4.4-6.3,4.4-10.9c0-4.5-1.4-8.2-4.4-10.9s-6.6-4.1-11.1-4.1h-8.3c-0.5,0-0.9,0.2-1.2,0.5c-0.3,0.4-0.5,0.8-0.5,1.3v26.5
			c0,0.5,0.2,0.9,0.5,1.2c0.3,0.4,0.7,0.5,1.2,0.5h8.3C73.2,84.5,76.9,83.1,79.8,80.4z"/>
		<path class="st29" d="M116.8,81.6h5.1c-1,2.8-2.6,4.9-4.9,6.3c-2.3,1.4-5,2.2-8.1,2.2c-4,0-7.3-1.3-9.8-3.9
			c-2.5-2.5-3.8-5.8-3.8-9.8c0-4,1.3-7.3,3.9-9.8c2.6-2.5,5.9-3.8,9.9-3.8c3.8,0,6.9,1.2,9.3,3.5c2.4,2.3,3.7,5.3,3.7,8.9
			c0,1-0.1,2-0.3,2.9h-19.7c-0.9,0-1.4,0.4-1.4,1.2c0,1.5,0.8,2.9,2.4,4.2s3.6,2,6,2c1.7,0,3.2-0.3,4.6-1
			C115.2,83.9,116.2,82.9,116.8,81.6z M109.3,67.2c-2.3,0-4.3,0.6-5.8,1.9c-1.6,1.2-2.5,2.9-2.8,5h15.5c0.7,0,1-0.3,1-1
			c0-1.5-0.7-2.8-2.2-4.1C113.4,67.8,111.5,67.2,109.3,67.2z"/>
		<path class="st29" d="M139.9,90.1c-3.3,0-6.1-0.8-8.4-2.3c-2.3-1.5-3.7-3.6-4.2-6.4h5.4c0.8,2.8,3.3,4.3,7.5,4.3
			c1.9,0,3.4-0.3,4.5-1c1.1-0.6,1.6-1.5,1.6-2.8c0-2-1.4-3.1-4.2-3.2l-5.8-0.5c-2.5-0.2-4.5-0.9-6-2.2c-1.5-1.2-2.3-2.9-2.3-5.2
			c0-2.6,1-4.6,3-6c2-1.4,4.6-2.1,7.9-2.1c3.1,0,5.8,0.7,8,2.1c2.2,1.4,3.6,3.5,4.2,6.2h-5.5c-0.5-1.3-1.4-2.3-2.6-2.9
			s-2.6-0.9-4.1-0.9c-1.8,0-3.1,0.3-4.2,0.9c-1.1,0.6-1.6,1.5-1.6,2.6c0,1.9,1.4,2.9,4.2,3.1l5.6,0.4c2.7,0.2,4.8,0.9,6.3,2.1
			c1.5,1.2,2.2,3,2.2,5.3c0,2.7-1.1,4.8-3.2,6.3C146.1,89.3,143.3,90.1,139.9,90.1z"/>
		<path class="st29" d="M177.9,79.9h5.4c-0.7,3-2.2,5.5-4.5,7.4c-2.3,1.9-5.1,2.8-8.4,2.8c-3.9,0-7.1-1.3-9.6-3.9
			c-2.6-2.6-3.9-5.8-3.9-9.8c0-4,1.3-7.2,3.9-9.8c2.5-2.6,5.8-3.9,9.6-3.9c3.3,0,6.1,0.9,8.5,2.8c2.3,1.9,3.8,4.4,4.5,7.4h-5.4
			c-0.6-1.6-1.5-2.8-2.9-3.8c-1.3-0.9-2.9-1.4-4.7-1.4c-2.4,0-4.3,0.8-5.9,2.5c-1.6,1.6-2.4,3.7-2.4,6.2c0,2.5,0.8,4.6,2.3,6.2
			c1.5,1.6,3.5,2.5,5.9,2.5c1.8,0,3.3-0.5,4.7-1.4C176.4,82.7,177.3,81.5,177.9,79.9z"/>
		<path class="st29" d="M201.3,90.1c-3.8,0-6.9-1.3-9.4-3.9c-2.5-2.6-3.8-5.8-3.8-9.7c0-4,1.3-7.2,4-9.8c2.6-2.6,5.9-3.9,9.9-3.9
			c4,0,7.2,1.3,9.8,3.8c2.6,2.5,3.9,5.7,3.9,9.6v13.4h-4.8v-4.7c-1,1.6-2.4,2.9-4.1,3.8C205,89.6,203.2,90.1,201.3,90.1z
			 M210.3,76.4c0-2.5-0.8-4.5-2.4-6.2c-1.6-1.6-3.7-2.5-6.1-2.5c-2.4,0-4.5,0.8-6.1,2.5c-1.6,1.6-2.4,3.7-2.4,6.2
			c0,2.5,0.8,4.6,2.4,6.2c1.6,1.6,3.7,2.5,6.1,2.5c2.5,0,4.5-0.8,6.1-2.5C209.5,81,210.3,79,210.3,76.4z"/>
		<path class="st29" d="M236.6,63.3h2.7v5h-2.7c-2.5,0-4.5,0.8-6,2.3c-1.5,1.5-2.3,3.6-2.3,6.2v12.8h-5.1V76.8
			c0-4.5,1.2-7.8,3.6-10.1C229.2,64.4,232.4,63.3,236.6,63.3z"/>
		<path class="st29" d="M270.7,76.4v12.5c0,3.8-1.2,6.8-3.7,9.1c-2.5,2.3-5.7,3.4-9.6,3.4c-3.3,0-6.1-0.9-8.4-2.6s-3.9-4-4.7-7h5.6
			c0.6,1.5,1.5,2.6,2.9,3.5c1.3,0.9,2.8,1.3,4.6,1.3c2.4,0,4.4-0.7,5.9-2.1c1.5-1.4,2.2-3.2,2.2-5.6v-3.6c-2.2,2.9-5.2,4.3-9,4.3
			s-7.1-1.2-9.6-3.8c-2.5-2.5-3.8-5.6-3.8-9.5c0-4,1.3-7.2,3.9-9.8c2.6-2.6,5.9-3.9,9.8-3.9c4,0,7.3,1.3,9.9,3.8
			C269.4,69.2,270.7,72.4,270.7,76.4z M263.2,82.6c1.6-1.6,2.4-3.7,2.4-6.2s-0.8-4.6-2.4-6.2c-1.6-1.6-3.7-2.4-6.2-2.4
			s-4.5,0.8-6.1,2.4c-1.6,1.6-2.4,3.7-2.4,6.2s0.8,4.6,2.5,6.2c1.6,1.6,3.7,2.5,6.2,2.5C259.6,85.1,261.6,84.3,263.2,82.6z"/>
		<path class="st29" d="M290.5,90.1c-3.8,0-6.9-1.3-9.4-3.9c-2.5-2.6-3.8-5.8-3.8-9.7c0-4,1.3-7.2,4-9.8c2.6-2.6,5.9-3.9,9.9-3.9
			c4,0,7.2,1.3,9.8,3.8c2.6,2.5,3.9,5.7,3.9,9.6v13.4h-4.8v-4.7c-1,1.6-2.4,2.9-4.1,3.8C294.2,89.6,292.4,90.1,290.5,90.1z
			 M299.5,76.4c0-2.5-0.8-4.5-2.4-6.2c-1.6-1.6-3.7-2.5-6.1-2.5c-2.4,0-4.5,0.8-6.1,2.5c-1.6,1.6-2.4,3.7-2.4,6.2
			c0,2.5,0.8,4.6,2.4,6.2c1.6,1.6,3.7,2.5,6.1,2.5c2.5,0,4.5-0.8,6.1-2.5C298.7,81,299.5,79,299.5,76.4z"/>
		<path class="st29" d="M325.8,63.3h2.7v5h-2.7c-2.5,0-4.5,0.8-6,2.3c-1.5,1.5-2.3,3.6-2.3,6.2v12.8h-5.1V76.8
			c0-4.5,1.2-7.8,3.6-10.1S321.6,63.3,325.8,63.3z"/>
		<path class="st29" d="M375.8,68.2v5.1h-19.2v16.3h-5.4V55.1c0-1.7,0.5-3.1,1.5-4.1c1-1,2.4-1.5,4.1-1.5h20.1v5.1h-18.7
			c-0.5,0-0.9,0.2-1.2,0.5c-0.3,0.4-0.5,0.8-0.5,1.3v11.9H375.8z"/>
		<path class="st29" d="M395,90.1c-3.8,0-6.9-1.3-9.4-3.9c-2.5-2.6-3.8-5.8-3.8-9.7c0-4,1.3-7.2,4-9.8c2.6-2.6,5.9-3.9,9.9-3.9
			c4,0,7.2,1.3,9.8,3.8c2.6,2.5,3.9,5.7,3.9,9.6v13.4h-4.8v-4.7c-1,1.6-2.4,2.9-4.1,3.8C398.7,89.6,396.9,90.1,395,90.1z
			 M404.1,76.4c0-2.5-0.8-4.5-2.4-6.2c-1.6-1.6-3.7-2.5-6.1-2.5c-2.4,0-4.5,0.8-6.1,2.5c-1.6,1.6-2.4,3.7-2.4,6.2
			c0,2.5,0.8,4.6,2.4,6.2c1.6,1.6,3.7,2.5,6.1,2.5c2.5,0,4.5-0.8,6.1-2.5C403.3,81,404.1,79,404.1,76.4z"/>
		<path class="st29" d="M436.9,79.9h5.4c-0.7,3-2.2,5.5-4.5,7.4c-2.3,1.9-5.1,2.8-8.4,2.8c-3.9,0-7.1-1.3-9.6-3.9
			c-2.6-2.6-3.9-5.8-3.9-9.8c0-4,1.3-7.2,3.9-9.8c2.5-2.6,5.8-3.9,9.6-3.9c3.3,0,6.1,0.9,8.5,2.8c2.3,1.9,3.8,4.4,4.5,7.4h-5.4
			c-0.6-1.6-1.5-2.8-2.9-3.8c-1.3-0.9-2.9-1.4-4.7-1.4c-2.4,0-4.3,0.8-5.9,2.5c-1.6,1.6-2.4,3.7-2.4,6.2c0,2.5,0.8,4.6,2.3,6.2
			c1.5,1.6,3.5,2.5,5.9,2.5c1.8,0,3.3-0.5,4.7-1.4C435.4,82.7,436.3,81.5,436.9,79.9z"/>
		<path class="st29" d="M467.4,84.6v4.9c-1.7,0.3-3.8,0.4-6.1,0.4c-3,0-5.4-0.8-7-2.5c-1.6-1.6-2.4-4-2.4-7.3V68h-6.7v-4.7h4.7
			c0.6,0,1.1-0.2,1.4-0.5c0.4-0.4,0.5-0.8,0.5-1.4V54h5.1v9.3h10.4V68h-10.4v11.8c0,1.8,0.4,3,1.2,3.9c0.8,0.9,2.1,1.3,3.9,1.3
			C463.7,85,465.4,84.8,467.4,84.6z"/>
		<path class="st29" d="M497.2,63.3v14.2c0,3.9-1.1,7-3.3,9.2c-2.3,2.3-5.2,3.4-8.8,3.4c-3.6,0-6.5-1.1-8.8-3.4
			c-2.3-2.2-3.4-5.3-3.4-9.2V63.3h5.1v14.2c0,2.4,0.7,4.3,2,5.6c1.3,1.3,2.9,2,5,2s3.8-0.7,5.1-2c1.3-1.3,1.9-3.2,1.9-5.6V63.3
			H497.2z"/>
		<path class="st29" d="M518.4,63.3h2.7v5h-2.7c-2.5,0-4.5,0.8-6,2.3c-1.5,1.5-2.3,3.6-2.3,6.2v12.8h-5.1V76.8
			c0-4.5,1.2-7.8,3.6-10.1S514.2,63.3,518.4,63.3z"/>
		<path class="st29" d="M538.2,90.1c-3.8,0-6.9-1.3-9.4-3.9c-2.5-2.6-3.8-5.8-3.8-9.7c0-4,1.3-7.2,4-9.8c2.6-2.6,5.9-3.9,9.9-3.9
			c4,0,7.2,1.3,9.8,3.8c2.6,2.5,3.9,5.7,3.9,9.6v13.4h-4.8v-4.7c-1,1.6-2.4,2.9-4.1,3.8C541.9,89.6,540.1,90.1,538.2,90.1z
			 M547.3,76.4c0-2.5-0.8-4.5-2.4-6.2c-1.6-1.6-3.7-2.5-6.1-2.5c-2.4,0-4.5,0.8-6.1,2.5c-1.6,1.6-2.4,3.7-2.4,6.2
			c0,2.5,0.8,4.6,2.4,6.2c1.6,1.6,3.7,2.5,6.1,2.5c2.5,0,4.5-0.8,6.1-2.5C546.5,81,547.3,79,547.3,76.4z"/>
	</g>
</g>
</svg>
