<?xml version="1.0" encoding="utf-8"?>
<!-- Generator: Adobe Illustrator 25.4.1, SVG Export Plug-In . SVG Version: 6.00 Build 0)  -->
<svg version="1.1" id="Capa_1" xmlns="http://www.w3.org/2000/svg" xmlns:xlink="http://www.w3.org/1999/xlink" x="0px" y="0px"
	 width="381.9px" height="147.8px" viewBox="0 0 381.9 147.8" style="enable-background:new 0 0 381.9 147.8;" xml:space="preserve"
	>
<style type="text/css">
	.st0{fill:#F7F7F7;}
	.st1{fill:#FFFFFF;}
	.st2{clip-path:url(#SVGID_00000062156707056097518740000013587256448678547589_);}
	.st3{fill:#B1B1B1;}
	.st4{clip-path:url(#SVGID_00000071554800171717739530000011687065020981699982_);}
	.st5{fill:#3D42DF;}
	.st6{fill:#7A7A7A;}
	.st7{fill:#CECECE;}
	.st8{enable-background:new    ;}
	.st9{fill-rule:evenodd;clip-rule:evenodd;fill:#3D42DF;}
	.st10{fill:#69696B;}
	.st11{fill:#3D42DF;enable-background:new    ;}
	.st12{fill:url(#SVGID_00000078043802647868347940000007849744878419187363_);}
	.st13{fill:none;stroke:#EEEEEE;stroke-width:3;stroke-miterlimit:10;}
	.st14{fill:url(#SVGID_00000115509805990063209320000004634444300530432904_);}
	.st15{fill:url(#SVGID_00000067944732448581250300000017796235387899211440_);}
	.st16{fill:url(#SVGID_00000084530913290096342770000004686838189327751820_);}
	.st17{fill:none;stroke:url(#SVGID_00000025406695719932816730000008027131132115210672_);stroke-width:3;stroke-miterlimit:10;}
	.st18{fill:url(#SVGID_00000038401659660658042600000015868676199137345206_);}
	.st19{fill:url(#SVGID_00000056428770801576472070000001806704833897111741_);}
	.st20{fill:none;stroke:url(#SVGID_00000054262012544706380690000010742139229055647121_);stroke-width:3;stroke-miterlimit:10;}
	.st21{fill:#D11A2A;}
	.st22{fill:url(#SVGID_00000132082618966870092270000017523172225150861700_);}
	.st23{opacity:0.6;fill:url(#SVGID_00000078011114464216240930000014518851418456328875_);}
	.st24{fill:url(#SVGID_00000150810453487898234350000014347997833007393418_);}
	.st25{opacity:0.6;fill:url(#SVGID_00000161631855746395555750000008918979823718958013_);}
	.st26{opacity:0.6;fill:url(#SVGID_00000039101007828635329180000010850179845771080091_);}
</style>
<linearGradient id="SVGID_00000046306070041747885610000004368980478909241236_" gradientUnits="userSpaceOnUse" x1="0" y1="73.9085" x2="381.8993" y2="73.9085">
	<stop  offset="0" style="stop-color:#5BC5D1"/>
	<stop  offset="1" style="stop-color:#79F6D2"/>
</linearGradient>
<path style="fill:url(#SVGID_00000046306070041747885610000004368980478909241236_);" d="M368.5,147.8H13.4c-7.4,0-13.4-6-13.4-13.4
	V13.4C0,6,6,0,13.4,0h355.2c7.4,0,13.4,6,13.4,13.4v121.1C381.9,141.8,375.9,147.8,368.5,147.8z"/>
<g>
	<g>
		<path class="st1" d="M114.9,72.4v5.1H95.7v16.3h-5.4V59.2c0-1.7,0.5-3.1,1.5-4.1c1-1,2.4-1.5,4.1-1.5h20.1v5.1H97.4
			c-0.5,0-0.9,0.2-1.2,0.5c-0.3,0.4-0.5,0.8-0.5,1.3v11.9H114.9z"/>
		<path class="st1" d="M134.1,94.3c-3.8,0-6.9-1.3-9.4-3.9c-2.5-2.6-3.8-5.8-3.8-9.7c0-4,1.3-7.2,4-9.8c2.6-2.6,5.9-3.9,9.9-3.9
			c4,0,7.2,1.3,9.8,3.8c2.6,2.5,3.9,5.7,3.9,9.6v13.4h-4.8V89c-1,1.6-2.4,2.9-4.1,3.8C137.8,93.8,136,94.3,134.1,94.3z M143.1,80.6
			c0-2.5-0.8-4.5-2.4-6.2c-1.6-1.6-3.7-2.5-6.1-2.5c-2.4,0-4.5,0.8-6.1,2.5c-1.6,1.6-2.4,3.7-2.4,6.2c0,2.5,0.8,4.6,2.4,6.2
			c1.6,1.6,3.7,2.5,6.1,2.5c2.5,0,4.5-0.8,6.1-2.5C142.3,85.2,143.1,83.1,143.1,80.6z"/>
		<path class="st1" d="M175.9,84.1h5.4c-0.7,3-2.2,5.5-4.5,7.4c-2.3,1.9-5.1,2.8-8.4,2.8c-3.9,0-7.1-1.3-9.6-3.9
			c-2.6-2.6-3.9-5.8-3.9-9.8c0-4,1.3-7.2,3.9-9.8c2.5-2.6,5.8-3.9,9.6-3.9c3.3,0,6.1,0.9,8.5,2.8c2.3,1.9,3.8,4.4,4.5,7.4h-5.4
			c-0.6-1.6-1.5-2.8-2.9-3.8c-1.3-0.9-2.9-1.4-4.7-1.4c-2.4,0-4.3,0.8-5.9,2.5c-1.6,1.6-2.4,3.7-2.4,6.2c0,2.5,0.8,4.6,2.3,6.2
			c1.5,1.6,3.5,2.5,5.9,2.5c1.8,0,3.3-0.5,4.7-1.4C174.4,86.9,175.4,85.7,175.9,84.1z"/>
		<path class="st1" d="M206.5,88.7v4.9c-1.7,0.3-3.8,0.4-6.1,0.4c-3,0-5.4-0.8-7-2.5c-1.6-1.6-2.4-4-2.4-7.3V72.2h-6.7v-4.7h4.7
			c0.6,0,1.1-0.2,1.4-0.5c0.4-0.4,0.5-0.8,0.5-1.4v-7.3h5.1v9.3h10.4v4.7h-10.4V84c0,1.8,0.4,3,1.2,3.9c0.8,0.9,2.1,1.3,3.9,1.3
			C202.7,89.2,204.5,89,206.5,88.7z"/>
		<path class="st1" d="M236.3,67.5v14.2c0,3.9-1.1,7-3.3,9.2c-2.3,2.3-5.2,3.4-8.8,3.4c-3.6,0-6.5-1.1-8.8-3.4
			c-2.3-2.2-3.4-5.3-3.4-9.2V67.5h5.1v14.2c0,2.4,0.7,4.3,2,5.6c1.3,1.3,2.9,2,5,2s3.8-0.7,5.1-2c1.3-1.3,1.9-3.2,1.9-5.6V67.5
			H236.3z"/>
		<path class="st1" d="M257.4,67.5h2.7v5h-2.7c-2.5,0-4.5,0.8-6,2.3c-1.5,1.5-2.3,3.6-2.3,6.2v12.8H244V81c0-4.5,1.2-7.8,3.6-10.1
			S253.2,67.5,257.4,67.5z"/>
		<path class="st1" d="M277.3,94.3c-3.8,0-6.9-1.3-9.4-3.9c-2.5-2.6-3.8-5.8-3.8-9.7c0-4,1.3-7.2,4-9.8c2.6-2.6,5.9-3.9,9.9-3.9
			c4,0,7.2,1.3,9.8,3.8c2.6,2.5,3.9,5.7,3.9,9.6v13.4h-4.8V89c-1,1.6-2.4,2.9-4.1,3.8C281,93.8,279.2,94.3,277.3,94.3z M286.3,80.6
			c0-2.5-0.8-4.5-2.4-6.2c-1.6-1.6-3.7-2.5-6.1-2.5c-2.4,0-4.5,0.8-6.1,2.5c-1.6,1.6-2.4,3.7-2.4,6.2c0,2.5,0.8,4.6,2.4,6.2
			c1.6,1.6,3.7,2.5,6.1,2.5c2.5,0,4.5-0.8,6.1-2.5C285.5,85.2,286.3,83.1,286.3,80.6z"/>
	</g>
</g>
</svg>
