<svg id="Capa_1" data-name="Capa 1" xmlns="http://www.w3.org/2000/svg" xmlns:xlink="http://www.w3.org/1999/xlink" viewBox="0 0 350.7 147.8"><defs><style>.cls-1{fill:url(#Degradado_sin_nombre_10);}.cls-2{fill:#fff;}</style><linearGradient id="Degradado_sin_nombre_10" y1="73.91" x2="350.71" y2="73.91" gradientUnits="userSpaceOnUse"><stop offset="0" stop-color="#0006b2"/><stop offset="1" stop-color="#5300e3"/></linearGradient></defs><rect class="cls-1" width="350.7" height="147.82" rx="13.4"/><path class="cls-2" d="M106.8,88.2h-5.7L96.5,76.3H78L73.5,88.2H67.9L82.1,51.8a8.3,8.3,0,0,1,2-3.1,4.8,4.8,0,0,1,3.1-.9,5.4,5.4,0,0,1,3.3.9,7.4,7.4,0,0,1,2.1,3.1ZM86.5,53.8,79.9,71.2H94.5L87.8,53.8a.7.7,0,0,0-1.3,0Z"/><path class="cls-2" d="M137.8,75V87.5a11.9,11.9,0,0,1-3.7,9.1,13.6,13.6,0,0,1-9.6,3.4,13.9,13.9,0,0,1-8.4-2.5,11.8,11.8,0,0,1-4.6-7H117a7.6,7.6,0,0,0,2.9,3.5,8.6,8.6,0,0,0,4.6,1.3,8.2,8.2,0,0,0,5.9-2.2,7,7,0,0,0,2.2-5.6V84a10.4,10.4,0,0,1-9,4.3,13,13,0,0,1-13.4-13.2,13.2,13.2,0,0,1,3.9-9.8,13.4,13.4,0,0,1,9.9-3.9,13.7,13.7,0,0,1,9.9,3.8A13.2,13.2,0,0,1,137.8,75Zm-7.6,6.2a8.1,8.1,0,0,0,2.4-6.1,8.7,8.7,0,0,0-2.4-6.3,8.4,8.4,0,0,0-6.2-2.4,8.2,8.2,0,0,0-6.1,2.4,8.7,8.7,0,0,0-2.4,6.3,8.1,8.1,0,0,0,2.4,6.1,8.1,8.1,0,0,0,6.2,2.5A7.9,7.9,0,0,0,130.2,81.2Z"/><path class="cls-2" d="M158.8,61.9h2.7V67h-2.7a8.5,8.5,0,0,0-6,2.2,8.8,8.8,0,0,0-2.3,6.2V88.2h-5.2V75.4c0-4.5,1.2-7.8,3.6-10.1A14.3,14.3,0,0,1,158.8,61.9Z"/><path class="cls-2" d="M186.8,80.3h5.1a11.1,11.1,0,0,1-4.9,6.3,15.2,15.2,0,0,1-8,2.1,13.3,13.3,0,0,1-9.8-3.8,13.7,13.7,0,0,1-3.8-9.8,13.3,13.3,0,0,1,3.9-9.9,13.7,13.7,0,0,1,9.9-3.8,12.9,12.9,0,0,1,9.3,3.5,11.6,11.6,0,0,1,3.7,8.9,14.5,14.5,0,0,1-.3,3H172.2c-1,0-1.4.4-1.4,1.2a5.5,5.5,0,0,0,2.4,4.2,9.2,9.2,0,0,0,6,1.9,11.4,11.4,0,0,0,4.6-.9A6.1,6.1,0,0,0,186.8,80.3Zm-7.5-14.5a9.7,9.7,0,0,0-5.9,1.9,7.6,7.6,0,0,0-2.8,5h15.5a.9.9,0,0,0,1-1,5,5,0,0,0-2.2-4A8.8,8.8,0,0,0,179.3,65.8Z"/><path class="cls-2" d="M225,75V87.5a11.8,11.8,0,0,1-3.6,9.1,15.3,15.3,0,0,1-18,.9,12.4,12.4,0,0,1-4.7-7h5.6a7.1,7.1,0,0,0,2.9,3.5,8.6,8.6,0,0,0,4.6,1.3,8.4,8.4,0,0,0,5.9-2.2,7,7,0,0,0,2.2-5.6V84a10.6,10.6,0,0,1-9,4.3,13,13,0,0,1-13.4-13.2,13.2,13.2,0,0,1,3.9-9.8,13.3,13.3,0,0,1,9.8-3.9,13.8,13.8,0,0,1,10,3.8A13.1,13.1,0,0,1,225,75Zm-7.5,6.2a8,8,0,0,0,2.3-6.1,8.6,8.6,0,0,0-2.3-6.3,8.4,8.4,0,0,0-6.2-2.4,8.2,8.2,0,0,0-6.1,2.4,8.8,8.8,0,0,0-2.5,6.3,8.5,8.5,0,0,0,8.7,8.6A7.9,7.9,0,0,0,217.5,81.2Z"/><path class="cls-2" d="M244.8,88.7a12.8,12.8,0,0,1-9.5-3.9,13.4,13.4,0,0,1-3.8-9.7,13.3,13.3,0,0,1,4-9.8,13.4,13.4,0,0,1,9.9-3.9,13.7,13.7,0,0,1,9.8,3.8,12.9,12.9,0,0,1,3.9,9.6V88.2h-4.9V83.5a11.1,11.1,0,0,1-9.4,5.2Zm9-13.6a8.4,8.4,0,0,0-2.4-6.2,7.9,7.9,0,0,0-6.1-2.5,8.1,8.1,0,0,0-6.1,2.5,8.4,8.4,0,0,0-2.4,6.2,8.4,8.4,0,0,0,8.5,8.6,7.9,7.9,0,0,0,6.1-2.5A8.1,8.1,0,0,0,253.8,75.1Z"/><path class="cls-2" d="M280.1,61.9h2.7V67h-2.7a8.5,8.5,0,0,0-6,2.2,8.8,8.8,0,0,0-2.3,6.2V88.2h-5.2V75.4c0-4.5,1.2-7.8,3.7-10.1S275.9,61.9,280.1,61.9Z"/></svg>