<svg height='100px' width='100px'  fill="#000000" xmlns="http://www.w3.org/2000/svg" xmlns:xlink="http://www.w3.org/1999/xlink" version="1.1" x="0px" y="0px" viewBox="0 0 100 100" style="enable-background:new 0 0 100 100;" xml:space="preserve"><path d="M93.4,49.9c-1.1,0-2,0.9-2,2c0,23.2-18.9,42.2-42.2,42.2S7,75.2,7,52c0-22.3,17.3-40.5,39.2-42l-1.8,1.4  c-0.9,0.7-1.1,2-0.4,2.9c0.4,0.5,1,0.8,1.6,0.8c0.4,0,0.9-0.1,1.2-0.4l6.8-5.2c0.5-0.4,0.8-1,0.8-1.7s-0.4-1.3-0.9-1.6l-6.8-4.5  c-0.9-0.6-2.2-0.4-2.8,0.6c-0.6,0.9-0.4,2.2,0.6,2.8l1.4,0.9C21.9,7.6,2.9,27.6,2.9,52c0,25.5,20.7,46.2,46.2,46.2  S95.4,77.5,95.4,52C95.4,50.9,94.5,49.9,93.4,49.9z"></path><circle cx="91.8" cy="41.3" r="2.5"></circle><circle cx="88.6" cy="32" r="2.5"></circle><circle cx="82.6" cy="23.3" r="2.5"></circle><circle cx="74.3" cy="15.8" r="2.5"></circle><circle cx="64.4" cy="10.6" r="2.5"></circle><path d="M66.9,42c0-1.1-0.9-2.1-2.1-2.1H37.7l4.6-4.6c0.8-0.8,0.8-2.1,0-2.9c-0.4-0.4-0.9-0.6-1.5-0.6  c-0.5,0-1.1,0.2-1.5,0.6l-8.1,8.1c-0.8,0.8-0.8,2.1,0,2.9l8.1,8.2c0.4,0.4,0.9,0.6,1.5,0.6c0.6,0,1.1-0.2,1.5-0.6  c0.4-0.4,0.6-0.9,0.6-1.5c0-0.6-0.2-1.1-0.6-1.5l-4.6-4.7h27.1C65.9,44.1,66.9,43.1,66.9,42z"></path><path d="M57.3,73.3c0.6,0,1.1-0.2,1.5-0.6l8.1-8.2c0.8-0.8,0.8-2.1,0-2.9l-8.1-8.1c-0.8-0.8-2.1-0.8-2.9,0  c-0.8,0.8-0.8,2.1,0,2.9l4.6,4.6H33.3c-1.1,0-2.1,0.9-2.1,2.1c0,1.1,0.9,2.1,2.1,2.1h27.1l-4.6,4.7c-0.4,0.4-0.6,0.9-0.6,1.5  c0,0.6,0.2,1.1,0.6,1.5C56.2,73.1,56.7,73.3,57.3,73.3z"></path></svg>