<svg height='100px' width='100px'  fill="#000000" xmlns="http://www.w3.org/2000/svg" xmlns:xlink="http://www.w3.org/1999/xlink" version="1.1" x="0px" y="0px" viewBox="0 0 60 60" style="enable-background:new 0 0 60 60;" xml:space="preserve"><path d="M6.9998169,44.5c0.2382813,0,0.4775391-0.0849609,0.6689453-0.2568359l9.2949219-8.3652344l2.0595703,2.059082  c0.0006104,0.0006104,0.0015259,0.0008545,0.0021362,0.0014648C21.3327026,41.574646,25.3839722,44,29.9998169,44  c7.1679688,0,13-5.831543,13-13c0-2.3093262-0.6119385-4.4755249-1.6721191-6.3571167l2.0471191,1.6378784  C43.5584106,26.4277344,43.7791138,26.5,43.9998169,26.5c0.2568359,0,0.5126953-0.0986328,0.7070313-0.2929688l7.2929688-7.2929688  V22.5c0,0.5522461,0.4472656,1,1,1s1-0.4477539,1-1v-6c0-0.130127-0.0264893-0.2597656-0.0770264-0.381897  c-0.1013184-0.244751-0.2961426-0.4396362-0.5408936-0.5410156C53.2597046,15.5265503,53.1300049,15.5,52.9998169,15.5h-6  c-0.5527344,0-1,0.4477539-1,1s0.4472656,1,1,1h3.5859375l-6.6601563,6.6601563l-4.3007813-3.440918  c-0.40625-0.3251953-0.9990234-0.2836914-1.3544922,0.097168l-0.0883789,0.0942993C35.9456177,19.093689,33.098999,18,29.9998169,18  c-7.1679688,0-13,5.831543-13,13c0,0.8726196,0.0895386,1.7243652,0.2542725,2.5492554  c-0.3165283-0.0840454-0.6639404-0.0263672-0.9232178,0.2075806l-10,9  c-0.4101563,0.3691406-0.4433594,1.0014648-0.0742188,1.4121094C6.4539185,44.3881836,6.7263794,44.5,6.9998169,44.5z   M29.9998169,20c6.0654297,0,11,4.9345703,11,11s-4.9345703,11-11,11s-11-4.9345703-11-11S23.9343872,20,29.9998169,20z"></path><path d="M29.9998169,36c-1.1025391,0-2-0.8969727-2-2c0-0.5522461-0.4472656-1-1-1s-1,0.4477539-1,1  c0,1.8583374,1.27948,3.4108276,3,3.8580322V39c0,0.5522461,0.4472656,1,1,1s1-0.4477539,1-1v-1.1419678  c1.72052-0.4472046,3-1.9996948,3-3.8580322c0-2.2055664-1.7939453-4-4-4c-1.1025391,0-2-0.8969727-2-2s0.8974609-2,2-2  s2,0.8969727,2,2c0,0.5522461,0.4472656,1,1,1s1-0.4477539,1-1c0-1.8583374-1.27948-3.4108276-3-3.8580322V23  c0-0.5522461-0.4472656-1-1-1s-1,0.4477539-1,1v1.1419678c-1.72052,0.4472046-3,1.9996948-3,3.8580322c0,2.2055664,1.7939453,4,4,4  c1.1025391,0,2,0.8969727,2,2S31.102356,36,29.9998169,36z"></path></svg>