<svg height='100px' width='100px'  fill="#000000" xmlns="http://www.w3.org/2000/svg" data-name="Layer 1" viewBox="0 0 512 512" x="0px" y="0px"><title>LogOut</title><path d="M372.3,47.8H231.7C206.5,47.8,186,68.5,186,94v65.1a7,7,0,1,0,14,0V94c0-17.7,14.2-32.1,31.6-32.1H372.3c17.4,0,31.6,14.4,31.6,32.1V418c0,17.7-14.2,32.1-31.6,32.1H231.7c-17.4,0-31.6-14.4-31.6-32.1V353.4a7,7,0,0,0-14,0V418c0,25.4,20.5,46.1,45.6,46.1H372.4c25.2,0,45.6-20.7,45.6-46.1V94C418,68.5,397.5,47.8,372.3,47.8Z"></path><path d="M116.1,263H260a7,7,0,0,0,0-14H116.1l27.2-32.2a7.023,7.023,0,1,0-10.7-9.1l-37,43.7h0c-.2.3-.5.6-.7.9a.1.1,0,0,1-.1.1,9.292,9.292,0,0,0-.5,1c0,.1,0,.1-.1.2-.1.3-.2.7-.3,1v.2a6.1,6.1,0,0,0,0,2.2v.2c.1.4.2.7.3,1,0,.1,0,.1.1.2a4.671,4.671,0,0,0,.5,1,.1.1,0,0,0,.1.1,5.5,5.5,0,0,0,.7.9h0l37,43.7a7.2,7.2,0,0,0,5.3,2.5,6.506,6.506,0,0,0,4.5-1.7,6.99,6.99,0,0,0,.8-9.9Z"></path></svg>