<svg height='100px' width='100px'  fill="#000000" xmlns="http://www.w3.org/2000/svg" xmlns:xlink="http://www.w3.org/1999/xlink" xml:space="preserve" style="shape-rendering:geometricPrecision;text-rendering:geometricPrecision;image-rendering:optimizeQuality;" viewBox="0 0 6.82666 6.82666" x="0px" y="0px" fill-rule="evenodd" clip-rule="evenodd"><defs><style type="text/css">
   
    .fil2 {fill:none}
    .fil1 {fill:#000000}
    .fil0 {fill:#000000;fill-rule:nonzero}
   
  </style></defs><g><g><path class="fil0" d="M5.53478 4.34096c0,-0.0441811 -0.0358189,-0.08 -0.08,-0.08 -0.0441811,0 -0.08,0.0358189 -0.08,0.08l0 0.758358c0,0.118079 -0.0483661,0.225488 -0.126283,0.303406 -0.0779173,0.0779173 -0.185327,0.126283 -0.303406,0.126283l-3.50207 0c-0.118079,0 -0.225488,-0.0483661 -0.303406,-0.126283 -0.0779173,-0.0779173 -0.126283,-0.185327 -0.126283,-0.303406l0 -2.27822c0,-0.118079 0.0483661,-0.225488 0.126283,-0.303406 0.0779173,-0.0779173 0.185327,-0.126283 0.303406,-0.126283l3.50207 0c0.118079,0 0.225488,0.0483661 0.303406,0.126283 0.0779173,0.0779173 0.126283,0.185327 0.126283,0.303406l0 0.758354c0,0.0441811 0.0358189,0.08 0.08,0.08 0.0441811,0 0.08,-0.0358189 0.08,-0.08l0 -0.758354c0,-0.162248 -0.066315,-0.309689 -0.173157,-0.416531 -0.106843,-0.106843 -0.254283,-0.173157 -0.416531,-0.173157l-3.50207 0c-0.162248,0 -0.309689,0.066315 -0.416531,0.173157 -0.106843,0.106843 -0.173157,0.254283 -0.173157,0.416531l0 2.27822c0,0.162248 0.066315,0.309689 0.173157,0.416531 0.106843,0.106843 0.254283,0.173157 0.416531,0.173157l3.50207 0c0.162248,0 0.309689,-0.066315 0.416531,-0.173157 0.106843,-0.106843 0.173157,-0.254283 0.173157,-0.416531l0 -0.758358z"></path><path class="fil0" d="M0.853331 2.8211c0,0.0441811 0.0358189,0.08 0.08,0.08 0.0441811,0 0.08,-0.0358189 0.08,-0.08l0 -0.543835c0,-0.109453 0.0433465,-0.200287 0.113197,-0.270138 0.0823819,-0.0823819 0.201071,-0.137248 0.330866,-0.161114l2.95814 -0.543933c0.016252,-0.00298819 0.0332283,-0.00442126 0.050748,-0.00442126 0.0853858,0 0.164528,0.0402205 0.226965,0.103051 0.0657402,0.0661496 0.112799,0.156291 0.130366,0.251831 0.00474409,0.025815 0.00723622,0.0528661 0.00723622,0.0807913l0 0.578079c0,0.0441811 0.0358189,0.08 0.08,0.08 0.0441811,0 0.08,-0.0358189 0.08,-0.08l0 -0.578079c0,-0.0358425 -0.00356693,-0.0725709 -0.0103622,-0.109539 -0.0233543,-0.127004 -0.0862047,-0.24713 -0.174114,-0.335587 -0.0912126,-0.0917874 -0.209504,-0.150547 -0.340091,-0.150547 -0.0252283,0 -0.051748,0.00244488 -0.0794961,0.00754724l-2.95814 0.543933c-0.160858,0.0295787 -0.309665,0.0992835 -0.415244,0.204862 -0.0987717,0.0987717 -0.160071,0.227602 -0.160071,0.383264l0 0.543835z"></path><path class="fil0" d="M4.65557 3.49945l1.10208 0c0.0593937,0 0.113339,0.0242441 0.152386,0.0632913 0.0390472,0.0390472 0.0632913,0.0929921 0.0632913,0.152386l0 0.490154c0,0.0593976 -0.0242441,0.113339 -0.0632913,0.152386 -0.0390472,0.0390472 -0.0929882,0.0632913 -0.152386,0.0632913l-1.10208 0c-0.0593937,0 -0.113339,-0.0242441 -0.152386,-0.0632913 -0.0390472,-0.0390472 -0.0632913,-0.0929882 -0.0632913,-0.152386l0 -0.490154c0,-0.0593937 0.0242441,-0.113339 0.0632913,-0.152386 0.0390472,-0.0390472 0.0929921,-0.0632913 0.152386,-0.0632913zm1.10208 0.16l-1.10208 0c-0.0152244,0 -0.0291339,0.00629134 -0.0392598,0.0164173 -0.010126,0.010126 -0.0164173,0.0240354 -0.0164173,0.0392598l0 0.490154c0,0.0152283 0.00629134,0.0291339 0.0164173,0.0392598 0.010126,0.010126 0.0240354,0.0164173 0.0392598,0.0164173l1.10208 0c0.0152283,0 0.0291339,-0.00629134 0.0392598,-0.0164173 0.010126,-0.010126 0.0164173,-0.0240315 0.0164173,-0.0392598l0 -0.490154c0,-0.0152244 -0.00629134,-0.0291339 -0.0164173,-0.0392598 -0.010126,-0.010126 -0.0240354,-0.0164173 -0.0392598,-0.0164173z"></path><circle class="fil1" cx="5.45478" cy="3.96021" r="0.123077"></circle></g></g><rect class="fil2" width="6.82666" height="6.82666"></rect></svg>