<svg height='100px' width='100px'  fill="#000000" xmlns="http://www.w3.org/2000/svg" viewBox="0 0 64 64" x="0px" y="0px"><title>target, money, dollar, finance, business</title><g><path d="M30,30a1,1,0,0,0,1-1v-.1924A3.8118,3.8118,0,0,0,27.1924,25H27V24a1,1,0,0,0-2,0v1h-.1924a3.8074,3.8074,0,0,0-.9238,7.501L25,32.78V37h-.1924A1.8092,1.8092,0,0,1,23,35.1924V35a1,1,0,0,0-2,0v.1924A3.8118,3.8118,0,0,0,24.8076,39H25v1a1,1,0,0,0,2,0V39h.1924a3.8074,3.8074,0,0,0,.9238-7.501L27,31.22V27h.1924A1.8092,1.8092,0,0,1,29,28.8076V29A1,1,0,0,0,30,30Zm-2.3691,3.4385A1.8078,1.8078,0,0,1,27.1924,37H27V33.2806ZM25,30.7194l-.6309-.1579A1.8078,1.8078,0,0,1,24.8076,27H25ZM26,22a10,10,0,1,0,9.3184,13.6367,1,1,0,1,1,1.8632.7266,12,12,0,1,1,0-8.7266,1,1,0,0,1-1.8632.7266A9.94,9.94,0,0,0,26,22Zm15.5586,6.2344a16,16,0,1,0,0,7.5312,1,1,0,0,1,1.9434.4688,18,18,0,1,1,0-8.4688,1,1,0,0,1-1.9434.4688Zm8.0664,7.9375A23.8982,23.8982,0,0,1,27,55.9556V57a1,1,0,0,1-2,0V55.9746A24.0262,24.0262,0,0,1,2.0254,33H1a1,1,0,0,1,0-2H2.0254A24.0262,24.0262,0,0,1,25,8.0254V7a1,1,0,0,1,2,0V8.0444A23.8982,23.8982,0,0,1,49.625,27.8281a1,1,0,1,1-1.9707.3438A21.9024,21.9024,0,0,0,27,10.0444V12a1,1,0,0,1-2,0V10.0254A22.0263,22.0263,0,0,0,4.0254,31H6a1,1,0,0,1,0,2H4.0254A22.0263,22.0263,0,0,0,25,53.9746V52a1,1,0,0,1,2,0v1.9556A21.9024,21.9024,0,0,0,47.6543,35.8281a1,1,0,1,1,1.9707.3438ZM61.4141,32l2.2929-2.293A1,1,0,0,0,63,28H57a.9993.9993,0,0,0-.707.293L53.5859,31H34a1,1,0,0,0,0,2H53.5859l2.7071,2.707A.9993.9993,0,0,0,57,36h6a1,1,0,0,0,.707-1.707Zm-2.1211.707L60.5859,34H57.4141l-2-2,2-2h3.1718L59.293,31.293A.9994.9994,0,0,0,59.293,32.707Z"></path></g></svg>