<svg height='100px' width='100px'  fill="#000000" xmlns="http://www.w3.org/2000/svg" xmlns:xlink="http://www.w3.org/1999/xlink" version="1.1" x="0px" y="0px" viewBox="0 0 100 100" style="enable-background:new 0 0 100 100;" xml:space="preserve"><g><path d="M13,64.3c-5.5,0-10,4.4-10,10v18c0,2.3,1.9,4.2,4.2,4.2h11.6c2.3,0,4.2-1.9,4.2-4.2v-18C22.9,68.8,18.5,64.3,13,64.3z    M19.2,92.2c0,0.2-0.2,0.4-0.4,0.4H7.2c-0.2,0-0.4-0.2-0.4-0.4V74.3c0-3.5,2.8-6.2,6.2-6.2s6.2,2.8,6.2,6.2L19.2,92.2L19.2,92.2z"></path><path d="M37.5,56c-5.5,0-10,4.4-10,10v26.3c0,2.3,1.9,4.2,4.2,4.2h11.6c2.3,0,4.2-1.9,4.2-4.2V66C47.5,60.5,43.1,56,37.5,56z    M43.8,92.2c0,0.2-0.2,0.4-0.4,0.4H31.8c-0.2,0-0.4-0.2-0.4-0.4V66c0-3.5,2.8-6.2,6.2-6.2c3.5,0,6.2,2.8,6.2,6.2L43.8,92.2   L43.8,92.2z"></path><path d="M62.2,47.8c-5.5,0-10,4.4-10,10v34.4c0,2.3,1.9,4.2,4.2,4.2h11.6c2.3,0,4.2-1.9,4.2-4.2V57.8   C72.1,52.3,67.7,47.8,62.2,47.8z M68.4,92.2c0,0.2-0.2,0.4-0.4,0.4H56.4c-0.2,0-0.4-0.2-0.4-0.4V57.8c0-3.5,2.8-6.2,6.2-6.2   c3.5,0,6.2,2.8,6.2,6.2L68.4,92.2L68.4,92.2z"></path><path d="M86.8,33.5c-5.5,0-10,4.4-10,10v48.8c0,2.3,1.9,4.2,4.2,4.2h11.6c2.3,0,4.2-1.9,4.2-4.2V43.5   C96.8,37.9,92.2,33.5,86.8,33.5z M93,92.2c0,0.2-0.2,0.4-0.4,0.4H80.9c-0.2,0-0.4-0.2-0.4-0.4V43.5c0-3.5,2.8-6.2,6.2-6.2   c3.5,0,6.2,2.8,6.2,6.2L93,92.2L93,92.2z"></path><path d="M5.5,56.1c0.1,0,0.2,0,0.4,0c2.1-0.4,51.5-10,81.2-40c0.7-0.7,0.7-1.9,0-2.7c-0.7-0.7-1.9-0.7-2.7,0   C55.5,42.7,5.7,52.4,5.2,52.5c-1,0.2-1.7,1.2-1.5,2.2C3.8,55.5,4.6,56.1,5.5,56.1z"></path><path d="M96.4,5.8c-0.5-0.7-1.4-1.1-2.2-1.2l-12-1c-1-0.1-2,0.7-2.1,1.7c-0.1,1,0.7,2,1.7,2.1l11.3,1c-0.2,1.6-0.4,3.4-0.5,5.1   c-0.2,2.1-0.4,4.2-0.6,6c-0.1,1,0.6,2,1.7,2.1c0.1,0,0.1,0,0.2,0c1,0,1.8-0.7,1.9-1.7c0.2-1.9,0.4-4,0.7-6.1c0.2-2.1,0.4-4.2,0.6-6   C97.1,7.1,96.9,6.4,96.4,5.8z"></path></g></svg>