<svg height='100px' width='100px'  fill="#000000" xmlns="http://www.w3.org/2000/svg" viewBox="0 0 100 100" x="0px" y="0px"><g data-name="08-Debt"><path d="M88.67,51.13a1,1,0,0,0-1,1V69.89h-9V55.33a1,1,0,1,0-2,0V77.7H7.05V44h50.4a1,1,0,1,0,0-2.05H14.86V32.24H57.08a1,1,0,0,0,0-2.05H13.83a1,1,0,0,0-1,1V41.91H6a1,1,0,0,0-1,1V78.73a1,1,0,0,0,1,1H77.6a1,1,0,0,0,1-1V71.94h10a1,1,0,0,0,1-1V52.15A1,1,0,0,0,88.67,51.13Z"></path><path d="M39.74,52.28a8.8,8.8,0,1,0,10.62,6.48A8.76,8.76,0,0,0,39.74,52.28Zm7.84,12.06a6.74,6.74,0,0,1-12.32-1.92,6.67,6.67,0,0,1,.79-5.1,6.75,6.75,0,0,1,12.32,1.92A6.67,6.67,0,0,1,47.58,64.34Z"></path><path d="M86.39,36.05H77.17V26.83a1,1,0,0,0-2,0V37.08a1,1,0,0,0,1,1H86.39a1,1,0,0,0,0-2.05Z"></path><path d="M83.36,18.08a5.79,5.79,0,0,0-4.25-4.74,2.78,2.78,0,0,1,2.58-.77c3,.27,4.5-.28,4.81-1.89a1.05,1.05,0,0,0,.49.13,1,1,0,0,0,.5-.13,1,1,0,0,0,.4-1.39l-.52-.92,1.07-.51a1,1,0,0,0,.5-1.36A1,1,0,0,0,87.57,6l-1.2.56-.58-1a1,1,0,0,0-1.39-.4A1,1,0,0,0,84,6.52l.51.92L83.44,8A1,1,0,0,0,83,9.31a1,1,0,0,0,.93.59,1,1,0,0,0,.44-.1l.59-.28a1,1,0,0,0-.38.58l0,.2s0,.09,0,.07-.44.36-2.64.16a5,5,0,0,0-3.82,1,4,4,0,0,0-1.19,1.71A5.8,5.8,0,0,0,72,18,17.26,17.26,0,1,0,94.87,34.35,17.17,17.17,0,0,0,83.36,18.08Zm2.15-8.84,0,.08a1.41,1.41,0,0,0-.2,0Zm-7.84,5.95a3.74,3.74,0,0,1,3.4,2.24l-.3,0c-.36-.07-.73-.13-1.1-.17l-.51-.06c-.49,0-1-.07-1.48-.07H77.6l-.39,0c-.34,0-.68,0-1,0l-.6.07c-.32,0-.64.08-1,.14l-.34.05A3.73,3.73,0,0,1,77.67,15.19ZM77.6,49.56a15.21,15.21,0,0,1-4.36-29.78c.36-.11.73-.21,1.1-.29h0a15,15,0,0,1,3.34-.35h.07c.35,0,.7,0,1,0l.15,0c.32,0,.64.06,1,.11l.29.05.81.16c.37.08.73.18,1.09.29a15.21,15.21,0,0,1-4.5,29.75Z"></path></g></svg>