<svg height='100px' width='100px' stroke-width='10px' fill="#000000" xmlns:dc="http://purl.org/dc/elements/1.1/" xmlns:cc="http://creativecommons.org/ns#" xmlns:rdf="http://www.w3.org/1999/02/22-rdf-syntax-ns#" xmlns:svg="http://www.w3.org/2000/svg" xmlns="http://www.w3.org/2000/svg" xmlns:sodipodi="http://sodipodi.sourceforge.net/DTD/sodipodi-0.dtd" xmlns:inkscape="http://www.inkscape.org/namespaces/inkscape" version="1.1" x="0px" y="0px" viewBox="0 0 100 100"><g transform="translate(0,-952.36218)"><path style="text-indent:0;text-transform:none;direction:ltr;block-progression:tb;baseline-shift:baseline;color:#000000;enable-background:accumulate;" d="m 28.031298,959.36217 c -0.5523,0 -1,0.44772 -1,1 l 0,13.09375 c -3.3828,0.48893 -6,3.39223 -6,6.90625 0,3.85411 3.1459,7.00001 7,7.00001 3.8541,0 7,-3.1459 7,-7.00001 0,-3.51402 -2.6173,-6.41732 -6,-6.90625 l 0,-13.09375 c 0,-0.55228 -0.4478,-1 -1,-1 z m 44,0 c -0.5523,0 -1,0.44772 -1,1 l 0,13.09375 c -3.3828,0.48893 -6,3.39223 -6,6.90625 0,3.85411 3.1459,7.00001 7,7.00001 3.8541,0 7,-3.1459 7,-7.00001 0,-3.51402 -2.6173,-6.41732 -6,-6.90625 l 0,-13.09375 c 0,-0.55228 -0.4478,-1 -1,-1 z m -58,6 c -4.9835,0 -9.0313,4.0478 -9.0313,9.03125 l 0,61.93748 c 0,4.9835 4.0478,9.0313 9.0313,9.0313 l 71.937504,0 c 4.9834,0 9.0312,-4.0478 9.0312,-9.0313 l 0,-61.93749 c 0,-4.98344 -4.0478,-9.03125 -9.0312,-9.03125 l -5.968804,0 c -0.5283,-0.007 -1,0.47163 -1,1 0,0.52837 0.4717,1.00748 1,1 l 5.968804,0 c 3.9081,0 7.0365,3.12308 7.0312,7.03125 l 0,18.96879 -86.000004,0 0,-18.96879 c 0,-3.90817 3.1231,-7.03125 7.0313,-7.03125 l 5.9687,0 c 0.5283,0.007 1,-0.47163 1,-1 0,-0.52837 -0.4717,-1.00747 -1,-1 z m 21.9687,0 c -0.5523,0 -1,0.4477 -1,1 0,0.55221 0.4477,1 1,1 l 28,0 c 0.5523,0 1,-0.44779 1,-1 0,-0.5523 -0.4477,-1 -1,-1 z m -7.9687,10 c 2.7733,0 5,2.22672 5,5 0,2.77331 -2.2267,5.00001 -5,5.00001 -2.7733,0 -5,-2.2267 -5,-5.00001 0,-2.77328 2.2267,-5 5,-5 z m 44,0 c 2.7733,0 5,2.22672 5,5 0,2.77331 -2.2267,5.00001 -5,5.00001 -2.7733,0 -5,-2.2267 -5,-5.00001 0,-2.77328 2.2267,-5 5,-5 z m -65.0313,20.00003 86.000004,0 0,40.9687 c 0,3.9082 -3.1231,7.0313 -7.0312,7.0313 l -71.937504,0 c -3.9082,0 -7.0313,-3.1231 -7.0313,-7.0313 z" fill="#000000" fill-opacity="1" stroke="none" marker="none" visibility="visible" display="inline" overflow="visible"></path></g></svg>