<svg height='100px' width='100px'  fill="#000000" xmlns="http://www.w3.org/2000/svg" viewBox="0 0 100 100" x="0px" y="0px"><title>Creator Icon_27</title><path d="M79.84375,26.22656H32.97351L31.9707,21.10645a1.24989,1.24989,0,0,0-1.22656-1.00977H16.41309a1.25,1.25,0,1,0,0,2.5H29.71484L38.33008,66.583a1.24989,1.24989,0,0,0,1.22656,1.00977h41.3877a1.25,1.25,0,0,0,0-2.5H40.58594l-1.05237-5.373H78.87109a1.25046,1.25046,0,0,0,1.23047-1.03027l4.71582-26.46191a1.28506,1.28506,0,0,0,.01953-.21973C84.83691,28.82031,82.59668,26.22656,79.84375,26.22656ZM77.82422,57.21973H39.04388L33.4632,28.72656H79.84375c1.3252,0,2.44922,1.44434,2.49219,3.17773Z"></path><path d="M48.67871,69.30566a5.29883,5.29883,0,1,0,5.29883,5.29883A5.30471,5.30471,0,0,0,48.67871,69.30566Zm0,8.09766a2.79883,2.79883,0,1,1,2.79883-2.79883A2.8024,2.8024,0,0,1,48.67871,77.40332Z"></path><path d="M70.75977,79.90332a5.29883,5.29883,0,1,0-5.29883-5.29883A5.3045,5.3045,0,0,0,70.75977,79.90332Zm0-8.09766a2.79883,2.79883,0,1,1-2.79883,2.79883A2.80156,2.80156,0,0,1,70.75977,71.80566Z"></path></svg>