<svg height='100px' width='100px'  fill="#000000" xmlns="http://www.w3.org/2000/svg" xmlns:xlink="http://www.w3.org/1999/xlink" version="1.1" x="0px" y="0px" viewBox="0 0 1024 1024" style="enable-background:new 0 0 1024 1024;" xml:space="preserve"><g><g><g><path d="M835.7,825.7c0,1.4-0.1,2.8-0.2,4.2c-0.1,2.9,0.4-1.4-0.2,1.5c-0.6,2.9-1.3,5.7-2.2,8.5     c-0.2,0.6-0.5,1.3-0.7,1.9c0.1-0.2,1-2.1,0.2-0.5c-0.6,1.2-1.2,2.4-1.8,3.5c-0.6,1.2-1.3,2.3-2.1,3.4c-0.5,0.8-2.9,3.8-1.2,1.7     c-1.7,2-3.5,3.9-5.4,5.7c-0.7,0.6-3,2.5-1,1c-1.2,0.9-2.5,1.8-3.8,2.6c-1.1,0.7-2.3,1.4-3.4,2c-0.5,0.3-3.7,1.8-2.4,1.2     c1.3-0.5-2,0.7-2.6,0.9c-1.5,0.5-3,0.9-4.5,1.3c-1.3,0.3-2.7,0.6-4,0.8c2.6-0.4-0.6,0-1.5,0c-1,0-1.9,0.1-2.9,0.1     c-0.2,0-0.4,0-0.7,0c-1.1,0-2.3,0-3.4,0c-12.7,0-25.4,0-38.2,0c-23.3,0-46.5,0-69.8,0c-30,0-60.1,0-90.1,0c-32.9,0-65.9,0-98.8,0     c-32.5,0-65,0-97.4,0c-28.1,0-56.3,0-84.4,0c-20,0-40,0-60,0c-8.4,0-16.7,0.1-25.1,0c0,0-0.1,0-0.1,0c-0.4,0-0.9,0-1.4,0     c-0.7,0-1.4-0.1-2.1-0.1c-0.3,0-3.2-0.2-1.4-0.1c1.5,0.1-2-0.4-2.7-0.5c-1.3-0.3-2.6-0.6-3.9-1c-1.3-0.4-2.5-0.8-3.8-1.2     c-1.6-0.6,0.3,0.2,0.5,0.3c-0.8-0.4-1.6-0.7-2.4-1.1c-2.3-1.2-4.5-2.6-6.7-4c-2.3-1.5,1,1-1.1-0.8c-1.1-1-2.3-2-3.3-3.1     c-0.9-0.9-1.8-1.9-2.6-2.8c-0.4-0.5-0.8-1-1.2-1.5c0.1,0.2,1.3,1.9,0.4,0.5c-1.6-2.3-3.1-4.7-4.4-7.2c-0.4-0.8-0.8-1.6-1.1-2.4     c0.1,0.2,0.9,2.2,0.3,0.5c-0.4-1.2-0.9-2.5-1.2-3.8c-0.4-1.3-0.7-2.6-1-3.9c-0.2-1-0.6-4.8-0.4-2c-0.2-2.9-0.3-5.8-0.2-8.7     c0-0.6,0.6-4.4,0.2-2.3c0.3-1.8,0.7-3.5,1.2-5.3c0.4-1.5,0.9-2.9,1.4-4.4c0.6-1.6,0.1-0.2-0.1,0.1c0.3-0.7,0.6-1.4,1-2     c0.7-1.3,1.4-2.7,2.2-3.9c0.4-0.6,2.8-4.1,1.5-2.5c1.8-2.4,4-4.5,6.2-6.5c0.4-0.4,3.3-2.6,1.6-1.4c1.4-1,2.9-2,4.4-2.8     c1.3-0.8,2.6-1.5,4-2.1c1.5-0.7,0.2-0.1-0.1,0c0.7-0.3,1.4-0.5,2.2-0.8c1.5-0.5,2.9-0.9,4.4-1.3c0.8-0.2,4-0.9,3.4-0.8     c-0.6,0.1,2.7-0.2,3.5-0.3c1,0,1.9-0.1,2.9-0.1c1.5,0,3,0,4.5,0c8.6,0,14.3-6.9,15-15c2.1-24.7,4.2-49.5,6.2-74.2     c3.6-43.2,7.3-86.4,10.9-129.6c1.2-14.2,2.4-28.5,3.6-42.7c0.2-2.7,0.5-5.4,0.7-8.2c0-0.1,0-0.2,0-0.3c0.2-1.9,0.3-3.9,0.6-5.8     c0.1-1,0.2-1.9,0.3-2.9c0.1-0.7,0.6-4.4,0.2-1.8c1.1-8,2.6-16,4.5-23.9c1.9-7.8,4.1-15.5,6.6-23c1.3-3.8,2.6-7.5,4.1-11.2     c0.3-0.9,0.7-1.7,1-2.6c0.1-0.4,1.3-3,0.6-1.4c-0.7,1.6,0.5-1.1,0.6-1.4c0.5-1.1,0.9-2.1,1.4-3.2c6.5-14.4,14.4-28.3,23.5-41.3     c1-1.5,2.1-3,3.2-4.5c0.4-0.5,3.9-5.2,2.2-3c2.4-3.1,4.8-6.1,7.3-9c5-5.9,10.3-11.6,15.8-17c5.7-5.6,11.6-10.9,17.8-15.9     c1.4-1.2,2.8-2.3,4.3-3.4c-2.3,1.8,1.9-1.4,2.4-1.8c3.3-2.4,6.7-4.8,10.1-7.1c13-8.7,26.7-16.1,40.9-22.4     c0.4-0.2,2.7-1.1,0.2-0.1c0.9-0.4,1.7-0.7,2.6-1c1.7-0.7,3.4-1.4,5.2-2c3.9-1.5,7.8-2.9,11.8-4.1c3.5-1.1,7.1-2.2,10.7-3.2     c1.8-0.5,3.6-1,5.4-1.4c1.1-0.3,2.3-0.4,3.4-0.8c1.9-0.7-0.5,0.6-1.9,0.1c1,0.3,2.7,0,3.8,0c3,0,6,0,9,0c9.6,0,19.2,0,28.8,0     c20.7,0,41.4,0,62,0c2.9,0,5.8,0,8.7,0c0.8,0,2.7,0.4,3.5,0c-0.6,0.3-4.7-0.9-1.2,0.1c0.9,0.3,1.8,0.4,2.7,0.7     c1.8,0.5,3.6,0.9,5.4,1.4c4,1.1,8,2.3,12,3.6c3.5,1.2,7,2.4,10.5,3.7c1.7,0.7,3.4,1.3,5.2,2c-0.2-0.1,4,1.7,2,0.8     c-1.7-0.7,1.7,0.7,2,0.9c14.2,6.3,27.9,13.8,40.8,22.6c3.2,2.2,6.4,4.4,9.5,6.7c0.7,0.5,1.5,1.1,2.2,1.6c1.9,1.4-1.6-1.3,0.2,0.2     c1.6,1.3,3.2,2.6,4.8,3.9c6.1,5.1,12,10.4,17.7,16c5.5,5.5,10.7,11.2,15.7,17.1c1.2,1.4,2.3,2.8,3.5,4.2c0.6,0.7,1.1,1.4,1.7,2.1     c1.6,2.1-2-2.8,0.6,0.8c2.3,3.1,4.6,6.2,6.8,9.4c9,13.1,16.8,26.9,23.2,41.4c0.4,0.8,2.2,5.2,1.2,2.8c0.7,1.7,1.4,3.4,2.1,5.2     c1.5,3.9,2.9,7.9,4.3,11.8c2.5,7.6,4.7,15.3,6.5,23.1c0.9,3.7,1.6,7.4,2.3,11.2c0.3,1.9,0.7,3.8,1,5.7c0.2,0.9,0.3,1.9,0.4,2.8     c0,0.2,0.7,4.8,0.3,1.7c0.5,4,0.9,8,1.3,12c0.8,8.8,1.5,17.7,2.2,26.5c3.4,40.8,6.9,81.5,10.3,122.3c2.8,33.4,5.6,66.9,8.4,100.3     c0.1,1.8,0.3,3.5,0.4,5.3c0.7,8.1,6.3,15,15,15c1.6,0,3.2,0,4.9,0c1.6,0,3.3,0.1,4.9,0.2c1.9,0.2,2.1,0.2,0.7,0.1     c1,0.2,2,0.4,3,0.6c1.5,0.4,3,0.8,4.4,1.2c1,0.3,1.9,0.7,2.9,1c-1.2-0.5-1-0.4,0.6,0.3c1.3,0.7,2.7,1.4,4,2.2     c0.5,0.3,4.9,3.3,3.1,1.9c6.2,4.7,8.7,8.1,11.9,14.2c0.5,0.9,0.9,1.8,1.3,2.7c-0.5-1.3-0.4-1,0.2,0.6c0.5,1.5,1,2.9,1.4,4.4     C835.6,820.2,835.6,820.4,835.7,825.7c0.1,7.8,6.8,15.4,15,15c8-0.4,15.1-6.6,15-15c-0.3-20.2-9-40.3-24.9-53.2     c-14.6-11.8-31.2-16.4-49.7-16.4c5,5,10,10,15,15c-2.1-25.3-4.3-50.7-6.4-76c-3.7-43.8-7.4-87.6-11.1-131.3     c-2.7-32.3-4-65.3-12.4-96.7c-17.2-64.4-58.4-120.8-113.9-157.6c-13.4-8.9-27.5-16.4-42.3-22.7c-8-3.4-16.1-6.6-24.4-9.2     c-8-2.6-17.1-6.1-25.6-6.5c-13.6-0.7-27.5,0-41.2,0c-21.1,0-42.1,0-63.2,0c-4.5,0-9.1-0.3-13.5,0.3c-16.8,2.3-33.7,9.4-49.2,16     c-59.8,25.7-110,74-137.8,132.8c-14.4,30.4-22.9,62.6-25.8,96.1c-0.7,7.8-1.3,15.7-2,23.5c-3.4,40.9-6.9,81.9-10.3,122.8     c-2.9,34.3-5.8,68.6-8.7,103c-0.2,1.9-0.3,3.8-0.5,5.6c5-5,10-10,15-15c-12.9,0-24.9,1.9-36.6,7.6c-12.9,6.3-24.1,17.6-30.4,30.4     c-12.9,26.4-8.6,57.9,11.4,79.4c13.1,14.1,32,21.6,51.1,21.8c3.1,0,6.2,0,9.3,0c16.4,0,32.8,0,49.2,0c26.5,0,53.1,0,79.6,0     c32.6,0,65.1,0,97.7,0c34.3,0,68.6,0,102.9,0c32.3,0,64.5,0,96.8,0c25.9,0,51.9,0,77.8,0c15.5,0,30.9,0,46.4,0c2.6,0,5.2,0,7.8,0     c23.8-0.2,45.7-12.2,58.7-32.1c7.3-11.1,10.8-24.4,11-37.6c0.1-7.8-7-15.4-15-15C842.4,811.1,835.8,817.3,835.7,825.7z"></path></g></g><g><g><path d="M613.3,158.5c-16.4,35-32.8,70-49.2,105c-2.3,5-4.7,10-7,15c4.3-2.5,8.6-5,13-7.4c-33.8,0-67.6,0-101.4,0     c-4.8,0-9.7,0-14.5,0c4.3,2.5,8.6,5,13,7.4c-16.2-36.8-32.3-73.5-48.5-110.3c-1.4-3.1-2.7-6.3-4.1-9.4c-1-2.3-2.2-7.1-1,0.2     c0.2,1.3,0.4,2.6,0.6,3.9c-12.1,3.3-16,5.5-11.6,6.6c0.1,0,0.2,0,0.3,0.1c0.4,0.2,0.8,0.2,1.2,0.3c2,0.7,4.1,1.1,6.2,1.6     c5.9,1.6,11.9,3.1,17.8,4.7c9.9,2.6,19.9,5.8,30,7.5c25.4,4.2,49.4-1.2,71.3-14.6c5.4-3.3,9.8-5.4,14.9-7     c6.6-2.1,10.8-2.9,16.7-3.2c10-0.5,17.9,0.9,27.4,4c6.2,2,12.5,4.1,18.7,6.1c2.9,0.9,5.8,1.9,8.7,2.8c0.9,0.3,1.8,0.7,2.7,0.9     c0.1,0,0.3,0.1,0.4,0.1c-3.7-0.4-8.4-6.6-7-10.7c-2.5,7.4,2.9,16.7,10.5,18.5c8.3,1.9,15.7-2.5,18.5-10.5     c2.9-8.5-0.6-18.5-8.1-23.4c-2.4-1.6-5.1-2.5-7.8-3.4c-6.1-2-12.2-4-18.2-6c-17.4-5.7-34.6-10.1-53.2-7.7     c-13.9,1.8-27.2,6.2-39.2,13.6c-2.4,1.5-4.8,3-7.3,4.4c-1.5,0.8-3,1.5-4.5,2.3c-0.1,0-2.6,1.1-1,0.5c-5.3,2.1-12.8,4.1-17.3,4.7     c-13.2,1.7-24.8-1.5-38.8-5.2c-11.3-3-22.5-6.4-33.9-8.9c-13.6-3-27.4,5.7-26.8,20.6c0.2,4.3,2.1,8.1,3.8,11.9     c9.1,20.6,18.1,41.2,27.2,61.8c8.6,19.5,17.1,39,25.7,58.5c2.1,4.7,8.1,7.4,13,7.4c33.8,0,67.6,0,101.4,0c4.8,0,9.7,0,14.5,0     c4.9,0,10.8-2.8,13-7.4c16.4-35,32.8-70,49.2-105c2.3-5,4.7-10,7-15c3.4-7.3,2.1-16.2-5.4-20.5     C627.4,149.3,616.8,151.1,613.3,158.5z"></path></g></g><g><g><path d="M527.2,738.6c0-15,0-30,0-44.9c0-7.8-6.9-15.4-15-15c-8.1,0.4-15,6.6-15,15c0,15,0,30,0,44.9     c0,7.8,6.9,15.4,15,15C520.3,753.2,527.2,747,527.2,738.6L527.2,738.6z"></path></g></g><g><g><path d="M527.2,484.6c0-14.7,0-29.3,0-44c0-7.8-6.9-15.4-15-15c-8.1,0.4-15,6.6-15,15c0,14.7,0,29.3,0,44     c0,7.8,6.9,15.4,15,15C520.3,499.3,527.2,493,527.2,484.6L527.2,484.6z"></path></g></g><g><g><path d="M428.4,645.5c0.4,27.7,18.6,51.3,44.7,60c14.9,5,32.2,3.2,47.7,3.2c7.2,0,14.1,0,21.2-1     c13-1.8,25-7.7,35-16.1c20.6-17.3,28.9-47.9,19-73.1c-10.7-27-36.4-44.2-65.5-44.3c-12.3-0.1-24.7,0.1-37,0     c-1.9,0-3.8-0.1-5.8-0.3c2.6,0.2-0.5-0.1-1.5-0.3c-1.6-0.3-3.1-0.7-4.6-1.1c-1.3-0.4-2.6-0.8-3.8-1.3c-2.2-0.8,2,1-0.1,0     c-0.6-0.3-1.2-0.6-1.8-0.9c-2.6-1.3-4.9-2.8-7.3-4.4c-1.4-1,0.3,0.2,0.4,0.4c-0.5-0.4-1-0.8-1.5-1.3c-1-0.9-1.9-1.7-2.8-2.7     c-0.9-0.9-1.7-1.9-2.6-2.9c-1.1-1.2,0.2,0.3,0.3,0.5c-0.5-0.7-1-1.4-1.5-2.1c-1.5-2.2-2.7-4.4-3.9-6.7c-0.1-0.2-0.9-2.2-0.3-0.6     c0.7,1.7-0.3-0.8-0.4-1.3c-0.5-1.5-0.9-2.9-1.3-4.4c-0.3-1.3-0.5-2.6-0.8-3.9c0.5,2.6,0-0.3,0-1.4c-0.1-1.4-0.1-2.9,0-4.3     c0-0.8,0.1-1.6,0.1-2.4c0.2-2.6-0.4,1.9,0-0.7c0.5-3,1.3-6,2.4-8.9c0.6-1.6,0.1-0.2-0.1,0.1c0.3-0.7,0.6-1.4,1-2     c0.8-1.6,1.7-3.1,2.6-4.6c0.5-0.8,1.1-1.7,1.7-2.5c-0.2,0.3-1.1,1.4,0,0.1c1-1.1,2-2.3,3.1-3.3c1.1-1.1,2.2-2.1,3.4-3.1     c1.3-1.1,0.2-0.2,0,0c0.8-0.6,1.7-1.2,2.5-1.7c1.3-0.8,2.6-1.6,4-2.3c0.5-0.3,3.8-1.8,2-1.1c3.2-1.3,6.5-2.1,9.8-2.8     c1.7-0.4,0.4-0.1,0-0.1c0.8-0.1,1.6-0.2,2.4-0.2c1.4-0.1,2.8-0.1,4.1-0.2c0.6,0,1.2,0,1.8,0c3,0,5.9,0,8.9,0c7.7,0,15.4,0,23,0     c1.8,0,3.6,0,5.4,0c1.4,0,2.8,0.1,4.2,0.3c-2.9-0.3,1.2,0.3,2.1,0.5c1.3,0.3,2.6,0.7,3.9,1.1c0.9,0.3,4.5,1.8,2,0.6     c2.4,1.1,4.7,2.4,6.9,3.8c0.8,0.5,3.1,2.4,1.2,0.8c1.2,1,2.3,2,3.4,3.1c0.9,0.9,1.8,1.9,2.7,2.8c1.1,1.2-0.2-0.3-0.3-0.5     c0.4,0.5,0.8,1,1.1,1.6c0.7,1.1,1.4,2.2,2.1,3.3c0.4,0.8,0.8,1.5,1.2,2.3c0.1,0.3,1.3,2.7,0.6,1.2c-0.6-1.4,0.6,1.9,0.8,2.5     c0.4,1.3,0.7,2.5,1,3.8c0.2,0.6,0.2,1.3,0.4,2c-0.1-0.2-0.2-2.4-0.1-0.7c0.1,1.6,0.2,3.2,0.2,4.8c0.1,7.8,6.8,15.4,15,15     c8-0.4,15.1-6.6,15-15c-0.4-27.7-18.6-51.3-44.7-60c-14.9-5-32.2-3.2-47.7-3.2c-7.5,0-14.8,0-22.4,1.1     c-14.4,2.2-28.4,9.7-38.4,20.2c-20.2,21.2-24.5,54-9.6,79.3c12.6,21.4,36,33.7,60.6,33.9c12.3,0.1,24.7-0.1,37,0     c10.4,0.1,20.2,3.8,27.3,10.4c1.1,1,2.2,2.1,3.2,3.2c0.5,0.6,1,1.1,1.5,1.7c-0.2-0.3-1-1.4-0.1,0c1.9,2.7,3.6,5.5,4.9,8.5     c-0.8-1.9,0.5,1.5,0.7,2.1c0.5,1.5,0.9,2.9,1.2,4.4c0.2,0.8,0.3,1.5,0.4,2.3c0.4,2.5-0.1-1.9,0,0.7c0.1,1.8,0.2,3.6,0.1,5.3     c0,1.4-0.2,2.7-0.3,4.1c0.2-2.6-0.1,0.2-0.3,1.3c-0.3,1.3-0.6,2.6-1,3.8c-0.2,0.8-1.5,4.3-1,3.1c0.6-1.4-0.9,1.8-1.2,2.3     c-0.6,1.1-1.2,2.3-1.9,3.4c-0.7,1.1-1.4,2.2-2.2,3.2c-1,1.4,0.2-0.3,0.4-0.5c-0.6,0.7-1.1,1.3-1.7,1.9c-1,1.1-2.1,2.2-3.2,3.2     c-0.4,0.4-3.1,2.6-2,1.8c1.1-0.9-1.7,1.2-2.2,1.5c-1.3,0.8-2.6,1.6-4,2.3c-1.2,0.6-2.4,1.2-3.6,1.7c2.3-1-0.5,0.1-1.4,0.4     c-2.8,0.9-5.7,1.6-8.6,2.1c-1.8,0.3,0.3-0.1,0.6-0.1c-0.7,0.1-1.4,0.1-2.1,0.2c-1.2,0.1-2.4,0.1-3.5,0.1c-0.6,0-1.2,0-1.8,0     c-3,0-5.9,0-8.9,0c-7.7,0-15.4,0-23,0c-1.8,0-3.6,0-5.4,0c-1.4,0-2.8-0.1-4.2-0.3c2.9,0.3-1.2-0.3-2.1-0.5     c-1.3-0.3-2.6-0.7-3.9-1.1c-0.9-0.3-4.5-1.8-2-0.6c-2.4-1.1-4.7-2.4-6.9-3.8c-0.8-0.5-3.1-2.4-1.2-0.8c-1.2-1-2.3-2-3.4-3.1     c-0.9-0.9-1.8-1.9-2.7-2.8c-1.1-1.2,0.2,0.3,0.3,0.5c-0.4-0.5-0.8-1-1.1-1.6c-0.7-1.1-1.4-2.2-2.1-3.3c-0.4-0.8-0.8-1.5-1.2-2.3     c-0.1-0.3-1.3-2.7-0.6-1.2c0.6,1.4-0.6-1.9-0.8-2.5c-0.4-1.3-0.7-2.5-1-3.8c-0.2-0.6-0.2-1.3-0.4-2c0.1,0.2,0.2,2.4,0.1,0.7     c-0.1-1.6-0.2-3.2-0.2-4.8c-0.1-7.8-6.8-15.4-15-15C435.4,630.8,428.3,637.1,428.4,645.5L428.4,645.5z"></path></g></g></g></svg>