<svg id="Capa_1" data-name="Capa 1" xmlns="http://www.w3.org/2000/svg" viewBox="0 0 100 100"><defs><style>.cls-1{fill:#5300e3;}.cls-2,.cls-3{fill:#1c1855;}.cls-2{fill-rule:evenodd;}</style></defs><path class="cls-1" d="M38.25,19.12a.5.5,0,0,1-.5-.5V17l-1.42.82a.5.5,0,0,1-.5-.87l1.42-.82-1.42-.81a.5.5,0,0,1,.5-.87l1.42.82V13.62a.5.5,0,0,1,.5-.5.51.51,0,0,1,.5.5v1.64l1.41-.82a.5.5,0,1,1,.5.87l-1.41.81,1.41.82a.5.5,0,1,1-.5.87L38.75,17v1.63A.5.5,0,0,1,38.25,19.12Z"/><path class="cls-1" d="M20.75,27.62a.5.5,0,0,0,.5.5.5.5,0,0,0,.5-.5V26l1.41.82a.5.5,0,1,0,.5-.87l-1.41-.82,1.41-.81a.5.5,0,1,0-.5-.87l-1.41.82V22.62a.51.51,0,0,0-.5-.5.5.5,0,0,0-.5.5v1.64l-1.42-.82a.5.5,0,0,0-.5.87l1.42.81-1.42.82a.5.5,0,0,0,.5.87L20.75,26Z"/><path class="cls-1" d="M63.25,29.12a.5.5,0,0,1-.5-.5V27l-1.42.82a.5.5,0,0,1-.5-.87l1.42-.82-1.42-.81a.5.5,0,0,1,.5-.87l1.42.82V23.62a.5.5,0,0,1,.5-.5.51.51,0,0,1,.5.5v1.64l1.41-.82a.5.5,0,1,1,.5.87l-1.41.81,1.41.82a.5.5,0,1,1-.5.87L63.75,27v1.63A.5.5,0,0,1,63.25,29.12Z"/><path class="cls-1" d="M33.65,50.65a.49.49,0,0,0,.7.7l2.15-2.14,2.15,2.14a.49.49,0,0,0,.7-.7L37.21,48.5l2.14-2.15a.49.49,0,0,0-.7-.7L36.5,47.79l-2.15-2.14a.49.49,0,0,0-.7.7l2.14,2.15Z"/><path class="cls-1" d="M60.65,50.65a.49.49,0,0,0,.7.7l2.15-2.14,2.15,2.14a.49.49,0,0,0,.7-.7L64.21,48.5l2.14-2.15a.49.49,0,0,0-.7-.7L63.5,47.79l-2.15-2.14a.49.49,0,0,0-.7.7l2.14,2.15Z"/><path class="cls-2" d="M38,61.5l.28.42h0l0,0,.14-.09.59-.33a20.11,20.11,0,0,1,2.31-1A25.42,25.42,0,0,1,50,59h.88l2.71,6.22A3.5,3.5,0,1,0,60,62.43l-.76-1.73c.72.29,1.29.56,1.7.77l.59.33.14.09,0,0h0L62,61.5l.28-.42h0l0,0-.16-.1c-.15-.09-.36-.21-.64-.35A19.59,19.59,0,0,0,59,59.53a27.12,27.12,0,0,0-18,0,19.59,19.59,0,0,0-2.43,1.06c-.28.14-.49.26-.64.35l-.16.1,0,0h0Zm16.51,3.33L52,59.07c.83.06,1.6.16,2.33.28L55.88,63a.5.5,0,1,0,.92-.4l-1.29-3c.91.2,1.72.43,2.45.66l1.13,2.6a2.5,2.5,0,1,1-4.58,2Z"/><path class="cls-2" d="M82.5,31.5h-65v46h65Zm-64,45v-44h63v44Z"/><path class="cls-1" d="M74.65,24.62a.5.5,0,0,1,.18-.68l1.42-.82-1.42-.81a.5.5,0,0,1,.5-.87l1.42.82V20.62a.5.5,0,0,1,.5-.5.51.51,0,0,1,.5.5v1.64l1.41-.82a.5.5,0,1,1,.5.87l-1.41.81,1.41.82a.5.5,0,1,1-.5.87L77.75,24v1.63a.5.5,0,0,1-.5.5.5.5,0,0,1-.5-.5V24l-1.42.82A.5.5,0,0,1,74.65,24.62Z"/><path class="cls-3" d="M25.71,23.56l-.11-.06.11-.06A6.12,6.12,0,0,1,27,23a37.7,37.7,0,0,1,5-.78A165.34,165.34,0,0,1,48.5,21.5a165.34,165.34,0,0,1,16.56.73A37.7,37.7,0,0,1,70,23a6.12,6.12,0,0,1,1.26.43,1.21,1.21,0,0,1,.22.14A.49.49,0,0,0,72,24a.5.5,0,0,0,.5-.5.84.84,0,0,0-.26-.6,2,2,0,0,0-.49-.35A6.88,6.88,0,0,0,70.28,22a38.5,38.5,0,0,0-5.11-.8A164.81,164.81,0,0,0,48.5,20.5a164.81,164.81,0,0,0-16.67.74,38.5,38.5,0,0,0-5.11.8,6.88,6.88,0,0,0-1.47.51,2,2,0,0,0-.49.35.82.82,0,0,0,0,1.2,2,2,0,0,0,.49.35,6.88,6.88,0,0,0,1.47.51,38.5,38.5,0,0,0,5.11.8,164.81,164.81,0,0,0,16.67.74c3,0,5.88-.06,8.52-.17a.5.5,0,0,0,0-1c-2.63.11-5.49.17-8.48.17a165.34,165.34,0,0,1-16.56-.73A37.7,37.7,0,0,1,27,24,6.12,6.12,0,0,1,25.71,23.56Z"/></svg>