<svg xmlns="http://www.w3.org/2000/svg" xmlns:xlink="http://www.w3.org/1999/xlink" version="1.1" x="0px" y="0px" viewBox="0 0 100 100" enable-background="new 0 0 100 100" xml:space="preserve"><g display="none"><g display="inline"><path fill="#000000" stroke="#E00C02" stroke-width="4" stroke-miterlimit="10" d="M37,86c0,1.65-1.35,3-3,3H14c-1.65,0-3-1.35-3-3    V14c0-1.65,1.35-3,3-3h20c1.65,0,3,1.35,3,3V86z"></path></g><g display="inline"><path fill="#000000" stroke="#E00C02" stroke-width="4" stroke-miterlimit="10" d="M63,86c0,1.65-1.35,3-3,3H40c-1.65,0-3-1.35-3-3    V14c0-1.65,1.35-3,3-3h20c1.65,0,3,1.35,3,3V86z"></path></g><g display="inline"><path fill="#000000" stroke="#E00C02" stroke-width="4" stroke-miterlimit="10" d="M89,86c0,1.65-1.35,3-3,3H66c-1.65,0-3-1.35-3-3    V14c0-1.65,1.35-3,3-3h20c1.65,0,3,1.35,3,3V86z"></path></g><circle display="inline" fill="#000000" stroke="#E00C02" stroke-width="4" stroke-miterlimit="10" cx="50" cy="76" r="5"></circle><circle display="inline" fill="#000000" stroke="#E00C02" stroke-width="4" stroke-miterlimit="10" cx="24" cy="76" r="5"></circle><circle display="inline" fill="#000000" stroke="#E00C02" stroke-width="4" stroke-miterlimit="10" cx="76" cy="76" r="5"></circle><line display="inline" fill="#000000" stroke="#E00C02" stroke-width="4" stroke-miterlimit="10" x1="18" y1="63" x2="30" y2="63"></line><line display="inline" fill="#000000" stroke="#E00C02" stroke-width="4" stroke-miterlimit="10" x1="20" y1="55" x2="20" y2="21"></line><line display="inline" fill="#000000" stroke="#E00C02" stroke-width="4" stroke-miterlimit="10" x1="28" y1="21" x2="28" y2="55"></line><line display="inline" fill="#000000" stroke="#E00C02" stroke-width="4" stroke-miterlimit="10" x1="44" y1="63" x2="56" y2="63"></line><line display="inline" fill="#000000" stroke="#E00C02" stroke-width="4" stroke-miterlimit="10" x1="54" y1="21" x2="54" y2="55"></line><line display="inline" fill="#000000" stroke="#E00C02" stroke-width="4" stroke-miterlimit="10" x1="46" y1="55" x2="46" y2="21"></line><line display="inline" fill="#000000" stroke="#E00C02" stroke-width="4" stroke-miterlimit="10" x1="70" y1="63" x2="82" y2="63"></line><line display="inline" fill="#000000" stroke="#E00C02" stroke-width="4" stroke-miterlimit="10" x1="80" y1="21" x2="80" y2="55"></line><line display="inline" fill="#000000" stroke="#E00C02" stroke-width="4" stroke-miterlimit="10" x1="72" y1="55" x2="72" y2="21"></line></g><g><path d="M86,9H66c-1.13,0-2.162,0.391-3,1.026C62.162,9.391,61.13,9,60,9H40c-1.13,0-2.162,0.391-3,1.026   C36.162,9.391,35.13,9,34,9H14c-2.757,0-5,2.243-5,5v72c0,2.757,2.243,5,5,5h20c1.13,0,2.162-0.391,3-1.026   C37.838,90.609,38.87,91,40,91h20c1.13,0,2.162-0.391,3-1.026C63.838,90.609,64.87,91,66,91h20c2.757,0,5-2.243,5-5V14   C91,11.243,88.757,9,86,9z M34,87H14c-0.542,0-1-0.458-1-1V14c0-0.542,0.458-1,1-1h20c0.542,0,1,0.458,1,1v72   C35,86.542,34.542,87,34,87z M60,87H40c-0.542,0-1-0.458-1-1V14c0-0.542,0.458-1,1-1h20c0.542,0,1,0.458,1,1v72   C61,86.542,60.542,87,60,87z M87,86c0,0.542-0.458,1-1,1H66c-0.542,0-1-0.458-1-1V14c0-0.542,0.458-1,1-1h20c0.542,0,1,0.458,1,1   V86z M50,69c-3.859,0-7,3.14-7,7s3.141,7,7,7s7-3.14,7-7S53.859,69,50,69z M50,79c-1.654,0-3-1.346-3-3s1.346-3,3-3s3,1.346,3,3   S51.654,79,50,79z M24,69c-3.859,0-7,3.14-7,7s3.141,7,7,7s7-3.14,7-7S27.859,69,24,69z M24,79c-1.654,0-3-1.346-3-3s1.346-3,3-3   s3,1.346,3,3S25.654,79,24,79z M76,69c-3.859,0-7,3.14-7,7s3.141,7,7,7s7-3.14,7-7S79.859,69,76,69z M76,79c-1.654,0-3-1.346-3-3   s1.346-3,3-3s3,1.346,3,3S77.654,79,76,79z M30,65H18v-4h12V65z M22,55h-4V21h4V55z M30,55h-4V21h4V55z M56,65H44v-4h12V65z M56,55   h-4V21h4V55z M48,55h-4V21h4V55z M82,65H70v-4h12V65z M82,55h-4V21h4V55z M74,55h-4V21h4V55z"></path></g></svg>