<svg width="700pt" height="700pt" version="1.1" viewBox="0 0 700 700" xmlns="http://www.w3.org/2000/svg">
 <path d="m408.33 35.012c-19.188 0-35.012 15.824-35.012 35.012v36.277c-8.8047 1.8047-17.297 5.6289-24.758 11.598l-87.5 70.023c-14.598 11.68-25.812 27.129-27.41 50.176l-68.234 191.27c-6.4492 18.078 3.1133 38.246 21.191 44.695l46.77 16.703c0.42188 18.836 16.039 34.238 34.965 34.238h233.34c19.188 0 34.965-15.824 34.965-35.012l0.003906-139.99c0-15.562-23.344-15.562-23.344 0v139.99c0 6.6641-4.957 11.668-11.621 11.668h-233.35c-6.6641 0-11.68-5-11.68-11.668l0.003907-246.31c0-20.418 5.5469-26.82 18.945-37.539l87.5-69.977c3.25-2.5977 6.6875-4.5391 10.207-5.8906v46.793c-13.531 4.8594-23.344 17.844-23.344 32.949 0 19.191 15.82 35.012 35.012 35.012 19.191-0.003906 35.012-15.824 35.012-35.016 0-15.105-9.8164-28.09-23.344-32.949v-46.793c3.5234 1.3516 6.957 3.2891 10.207 5.8906l87.5 69.977c13.398 10.719 18.945 17.125 18.945 37.539v36.297c0 15.562 23.344 15.562 23.344 0v-36.297c0-26.25-11.918-43.145-27.688-55.758l-42.293-33.848 0.007813-84.047c0-19.188-15.824-35.012-35.012-35.012zm0 23.332h23.332c6.6641 0 11.68 5.0117 11.68 11.68v65.375l-21.875-17.5c-7.4648-5.9727-15.992-9.7969-24.812-11.602v-36.277c0-6.6641 5.0117-11.68 11.68-11.68zm-23.344 140c6.582 0 11.668 5.0859 11.668 11.668s-5.0859 11.668-11.668 11.668-11.668-5.0859-11.668-11.668 5.0859-11.668 11.668-11.668zm-151.66 110.13v157.49l-38.883-13.867c-6.2734-2.2344-9.3047-8.6172-7.0664-14.891zm81.668 123.2c-6.4414 0-11.668 5.2227-11.668 11.668 0 6.4414 5.2227 11.668 11.668 11.668 6.4414 0 11.668-5.2227 11.668-11.668 0-6.4414-5.2227-11.668-11.668-11.668zm140.68 0-105.71 0.023437c-16.586 0.003906-16.586 23.289 0 23.289h105.04c16.133 0 16.805-23.312 0.67188-23.309z" fill-rule="evenodd"/>
</svg>
