<svg height='100px' width='100px'  fill="#000000" xmlns="http://www.w3.org/2000/svg" xmlns:xlink="http://www.w3.org/1999/xlink" version="1.1" x="0px" y="0px" viewBox="0 0 96 96" enable-background="new 0 0 96 96" xml:space="preserve"><g><path d="M26.561,54.711V50.32c0-0.984-0.798-1.781-1.781-1.781c-0.984,0-1.782,0.797-1.782,1.781v4.391   c0,11.459,9.322,20.781,20.781,20.781h8.444c11.458,0,20.78-9.322,20.78-20.781V34.656c0-0.982-0.798-1.781-1.782-1.781   c-0.983,0-1.781,0.799-1.781,1.781v20.055c0,9.494-7.724,17.217-17.217,17.217h-8.444C34.285,71.928,26.561,64.205,26.561,54.711z"></path><path d="M24.779,32.875c-0.984,0-1.782,0.799-1.782,1.781v7.35c0,0.984,0.798,1.781,1.782,1.781c0.983,0,1.781-0.797,1.781-1.781   v-7.35C26.561,33.674,25.763,32.875,24.779,32.875z"></path><path d="M48,20.508c-0.984,0-1.781,0.799-1.781,1.783v32.094l-6.363-6.363c-0.695-0.695-1.823-0.695-2.52,0   c-0.695,0.697-0.695,1.824,0,2.52l9.404,9.404c0.005,0.006,0.011,0.01,0.018,0.016c0.036,0.035,0.073,0.07,0.113,0.102   c0.021,0.018,0.043,0.033,0.065,0.051c0.024,0.018,0.049,0.037,0.074,0.055c0.026,0.016,0.052,0.031,0.078,0.047   c0.023,0.014,0.047,0.029,0.072,0.041c0.025,0.016,0.054,0.027,0.08,0.039c0.026,0.014,0.051,0.025,0.077,0.037   c0.026,0.01,0.053,0.02,0.08,0.029s0.056,0.021,0.084,0.029c0.027,0.008,0.054,0.014,0.081,0.02   c0.029,0.008,0.059,0.016,0.088,0.021c0.032,0.008,0.063,0.012,0.095,0.016c0.025,0.004,0.052,0.008,0.078,0.012   c0.059,0.006,0.117,0.008,0.176,0.008s0.117-0.002,0.176-0.008c0.026-0.004,0.053-0.008,0.079-0.012   c0.03-0.004,0.063-0.008,0.094-0.016c0.029-0.006,0.059-0.014,0.088-0.021c0.027-0.006,0.054-0.012,0.08-0.02   c0.029-0.008,0.057-0.02,0.086-0.031c0.026-0.008,0.054-0.018,0.079-0.027c0.026-0.012,0.052-0.025,0.078-0.037   s0.054-0.023,0.08-0.039c0.024-0.012,0.048-0.027,0.071-0.041c0.026-0.016,0.053-0.031,0.079-0.047   c0.024-0.018,0.05-0.037,0.073-0.055c0.021-0.018,0.045-0.033,0.066-0.051c0.039-0.031,0.077-0.066,0.113-0.102   c0.005-0.006,0.011-0.01,0.018-0.016l9.26-9.26c0.695-0.695,0.695-1.824,0-2.52c-0.696-0.695-1.824-0.695-2.52,0l-6.219,6.219   V22.291C49.782,21.307,48.984,20.508,48,20.508z"></path></g></svg>