<svg height='100px' width='100px'  fill="#000000" xmlns="http://www.w3.org/2000/svg" data-name="Layer 1" viewBox="0 0 48 48" x="0px" y="0px"><title>Bag_1</title><path d="M13.08,40H34.92a4.41,4.41,0,0,0,4.34-5.16l-3.12-18a4.41,4.41,0,0,0-4.34-3.65H30.38a6.44,6.44,0,0,0-12.76,0H16.2a4.41,4.41,0,0,0-4.34,3.65l-3.12,18A4.41,4.41,0,0,0,13.08,40ZM24,9.48a4.67,4.67,0,0,1,4.57,3.76H19.43A4.67,4.67,0,0,1,24,9.48ZM10.51,35.15,13.63,17.2A2.61,2.61,0,0,1,16.2,15H31.8a2.61,2.61,0,0,1,2.57,2.16l3.12,18a2.57,2.57,0,0,1-.57,2.13,2.62,2.62,0,0,1-2,.93H13.08a2.62,2.62,0,0,1-2-.93A2.57,2.57,0,0,1,10.51,35.15Z"></path><path d="M17.92,22.89a1.6,1.6,0,1,0-1.6-1.6A1.6,1.6,0,0,0,17.92,22.89Z"></path><path d="M29.44,22.89a1.6,1.6,0,1,0-1.6-1.6A1.6,1.6,0,0,0,29.44,22.89Z"></path></svg>