<svg height='100px' width='100px'  fill="#000000" xmlns:dc="http://purl.org/dc/elements/1.1/" xmlns:cc="http://creativecommons.org/ns#" xmlns:rdf="http://www.w3.org/1999/02/22-rdf-syntax-ns#" xmlns:svg="http://www.w3.org/2000/svg" xmlns="http://www.w3.org/2000/svg" xmlns:sodipodi="http://sodipodi.sourceforge.net/DTD/sodipodi-0.dtd" xmlns:inkscape="http://www.inkscape.org/namespaces/inkscape" version="1.1" x="0px" y="0px" viewBox="0 0 100 100"><g transform="translate(0,-952.36218)"><path style="text-indent:0;text-transform:none;direction:ltr;block-progression:tb;baseline-shift:baseline;color:#000000;enable-background:accumulate;" d="m 19,21 c -2.097331,0 -4.108843,0.713 -5.59375,2.09375 C 11.921343,24.4745 11,26.52563 11,29 l 0,42 c 0,2.4744 0.921341,4.52555 2.40625,5.90625 C 14.891159,78.28705 16.902673,79 19,79 l 62,0 c 2.097327,0 4.108841,-0.71295 5.59375,-2.09375 C 88.078659,75.52555 89,73.4744 89,71 L 89,29 C 89,26.52563 88.078657,24.4745 86.59375,23.09375 85.108843,21.713 83.097331,21 81,21 z m 0,2 62,0 c 1.645247,0 3.139302,0.52752 4.21875,1.53125 C 86.298198,25.53498 87,27.01231 87,29 l 0,42 c 0,1.9877 -0.701803,3.4338 -1.78125,4.4375 C 84.139303,76.4412 82.645251,77 81,77 L 19,77 C 17.354749,77 15.860697,76.4412 14.78125,75.4375 13.701803,74.4338 13,72.9877 13,71 l 0,-42 c 0,-1.98769 0.701802,-3.46502 1.78125,-4.46875 C 15.860698,23.52752 17.354753,23 19,23 z m 44,8 c -3.301864,0 -6,2.69813 -6,6 0,3.30186 2.698136,6 6,6 2.088012,0 3.924488,-1.090442 5,-2.71875 C 69.075512,41.909558 70.911988,43 73,43 c 3.301863,0 6,-2.69814 6,-6 0,-3.30186 -2.698137,-6 -6,-6 -2.088012,0 -3.924488,1.090442 -5,2.71875 C 66.924488,32.090443 65.088012,31 63,31 z m -42.1875,0.03125 c -0.523599,0.04909 -0.955337,0.570151 -0.90625,1.09375 0.04909,0.523599 0.570151,0.955337 1.09375,0.90625 l 21,0 c 0.528313,0.0075 1.014242,-0.471635 1.014242,-1 0,-0.528365 -0.485929,-1.007472 -1.014242,-1 -7.056892,-3e-6 -14.144846,0 -21.1875,0 z M 63,33 c 2.220984,0 4,1.77901 4,4 0,2.22098 -1.779016,4 -4,4 -2.220984,0 -4,-1.77902 -4,-4 0,-2.22099 1.779016,-4 4,-4 z m 10,0 c 2.220983,0 4,1.77902 4,4 0,2.22098 -1.779017,4 -4,4 -2.220984,0 -4,-1.77902 -4,-4 0,-2.22098 1.779016,-4 4,-4 z m -52.1875,6 c -0.523599,0.04909 -0.955337,0.570151 -0.90625,1.09375 C 19.955338,40.617349 20.476401,41.049087 21,41 l 10,0 c 0.528313,0.0075 1.014242,-0.471635 1.014242,-1 0,-0.528365 -0.485929,-1.007472 -1.014242,-1 -3.388332,-1.1e-5 -6.814161,0 -10.1875,0 z m 0,22 c -0.523599,0.04909 -0.955337,0.570151 -0.90625,1.09375 C 19.955338,62.617349 20.476401,63.049087 21,63 l 58,0 c 0.528313,0.0075 1.014242,-0.471635 1.014242,-1 0,-0.528365 -0.485929,-1.007472 -1.014242,-1 -19.391646,0 -38.809531,0 -58.1875,0 z m 0,8 c -0.523599,0.04909 -0.955337,0.570151 -0.90625,1.09375 C 19.955338,70.617349 20.476401,71.049087 21,71 l 58,0 c 0.528313,0.0075 1.014242,-0.471635 1.014242,-1 0,-0.528365 -0.485929,-1.007472 -1.014242,-1 -19.391646,0 -38.809531,0 -58.1875,0 z" transform="translate(0,952.36218)" fill="#000000" fill-opacity="1" stroke="none" marker="none" visibility="visible" display="inline" overflow="visible"></path></g></svg>