<svg height='100px' width='100px'  fill="#000000" xmlns="http://www.w3.org/2000/svg" viewBox="0 0 128 128" x="0px" y="0px"><title>Shopping-Invoice-Bill-List</title><rect x="35" y="22" width="58" height="2"></rect><rect x="35" y="36" width="58" height="2"></rect><rect x="35" y="50" width="58" height="2"></rect><rect x="35" y="64" width="58" height="2"></rect><rect x="35" y="78" width="58" height="2"></rect><rect x="73" y="98" width="6" height="2"></rect><rect x="61" y="98" width="6" height="2"></rect><rect x="85" y="98" width="6" height="2"></rect><rect x="49" y="98" width="6" height="2"></rect><rect x="37" y="98" width="6" height="2"></rect><path d="M24.475,125.851a1,1,0,0,0,.972.044l19.541-9.771,18.546,9.761a1,1,0,0,0,.932,0l18.546-9.761,19.541,9.771A1,1,0,0,0,104,125V3a1,1,0,0,0-1-1H25a1,1,0,0,0-1,1V125A1,1,0,0,0,24.475,125.851ZM102,4V98H97v2h5v23.382l-18.553-9.277a1,1,0,0,0-.913.01L64,123.87l-18.534-9.755a1,1,0,0,0-.913-.01L26,123.382V100h5V98H26V4Z"></path></svg>