<svg height='100px' width='100px'  fill="#000000" xmlns="http://www.w3.org/2000/svg" xmlns:xlink="http://www.w3.org/1999/xlink" version="1.1" x="0px" y="0px" viewBox="0 0 10 10" enable-background="new 0 0 10 10" xml:space="preserve"><g><path d="M3.796,8.135C3.722,8.122,3.65,8.173,3.638,8.247C3.626,8.323,3.677,8.394,3.751,8.406C4.263,8.49,4.5,8.653,4.5,8.74   c0,0.128-0.483,0.381-1.371,0.381c-0.889,0-1.371-0.253-1.371-0.381c0-0.085,0.237-0.25,0.745-0.334   c0.076-0.013,0.127-0.083,0.114-0.157C2.605,8.175,2.534,8.124,2.458,8.137C1.837,8.238,1.482,8.458,1.482,8.74   c0,0.43,0.829,0.656,1.646,0.656c0.816,0,1.645-0.227,1.645-0.656C4.773,8.458,4.417,8.236,3.796,8.135z"></path><path d="M8.518,1.015c0-0.044-0.021-0.086-0.059-0.111c-0.035-0.027-0.93-0.647-2.75-0.019c-1.435,0.496-2.238,0.16-2.444,0.051   V0.742c0-0.076-0.062-0.139-0.137-0.139c-0.078,0-0.138,0.063-0.138,0.139v0.272v2.784v4.567c0,0.075,0.06,0.138,0.138,0.138   c0.075,0,0.137-0.063,0.137-0.138V4.021C3.462,4.106,3.788,4.21,4.283,4.21c0.405,0,0.909-0.07,1.516-0.28   c1.674-0.58,2.492-0.024,2.502-0.019c0.01,0.008,0.023,0.004,0.037,0.009s0.025,0.017,0.041,0.017c0.004,0,0.008-0.004,0.012-0.005   c0.018-0.001,0.031-0.011,0.047-0.02c0.018-0.008,0.033-0.013,0.045-0.026C8.484,3.883,8.488,3.883,8.49,3.88   C8.498,3.869,8.496,3.855,8.5,3.844c0.006-0.016,0.018-0.027,0.018-0.045V1.015z M5.709,3.669C4.278,4.164,3.474,3.831,3.265,3.721   V1.241c0.368,0.155,1.202,0.363,2.534-0.097c1.424-0.493,2.23-0.164,2.443-0.052v2.482C7.879,3.419,7.045,3.207,5.709,3.669z"></path></g></svg>