<?xml version="1.0" encoding="utf-8"?>
<!-- Generator: Adobe Illustrator 25.4.1, SVG Export Plug-In . SVG Version: 6.00 Build 0)  -->
<svg version="1.1" id="Capa_1" xmlns="http://www.w3.org/2000/svg" xmlns:xlink="http://www.w3.org/1999/xlink" x="0px" y="0px"
	 width="381.9px" height="97px" viewBox="0 0 381.9 97" style="enable-background:new 0 0 381.9 97;" xml:space="preserve">
<style type="text/css">
	.st0{fill:#F7F7F7;}
	.st1{fill:#FFFFFF;}
	.st2{clip-path:url(#SVGID_00000158725873544892392800000018095717786599217580_);}
	.st3{fill:#B1B1B1;}
	.st4{clip-path:url(#SVGID_00000018936345621666939890000015420984766266746259_);}
	.st5{fill:#3D42DF;}
	.st6{fill:#7A7A7A;}
	.st7{fill:#CECECE;}
	.st8{enable-background:new    ;}
	.st9{fill-rule:evenodd;clip-rule:evenodd;fill:#3D42DF;}
	.st10{fill:#69696B;}
	.st11{fill:#3D42DF;enable-background:new    ;}
	.st12{fill:url(#SVGID_00000095326962784371761990000005395717936365815439_);}
	.st13{fill:none;stroke:#EEEEEE;stroke-width:3;stroke-miterlimit:10;}
	.st14{fill:url(#SVGID_00000000902685006340113410000008398123700027626637_);}
	.st15{fill:url(#SVGID_00000044898079566680363960000000954671407000882059_);}
	.st16{fill:url(#SVGID_00000059302965027997631340000012891269947240034225_);}
	.st17{fill:none;stroke:url(#SVGID_00000151542623715470450880000016778807754316130203_);stroke-width:3;stroke-miterlimit:10;}
	.st18{fill:none;stroke:url(#SVGID_00000181775679136052922760000009176573758697617319_);stroke-width:3;stroke-miterlimit:10;}
	.st19{fill:#5BC5D1;}
	.st20{fill:url(#SVGID_00000090268700235613925680000007533444815652383369_);}
	.st21{fill:none;stroke:url(#SVGID_00000158023259702525279840000004879416510909266323_);stroke-width:3;stroke-miterlimit:10;}
	.st22{fill:url(#SVGID_00000125603592456340648580000015400665287243347897_);}
	.st23{fill:url(#SVGID_00000079457115559204219170000014438893358344352943_);}
	.st24{fill:url(#SVGID_00000150073158040057630580000006239227557000882854_);}
	.st25{fill:url(#SVGID_00000063623195473307677170000001401869441294434432_);}
	.st26{fill:none;stroke:url(#SVGID_00000065044142188067889070000015300422696982362784_);stroke-width:3;stroke-miterlimit:10;}
	.st27{fill:#D11A2A;}
	.st28{fill:url(#SVGID_00000170265327906426221800000009452698803656853669_);}
	.st29{opacity:0.6;fill:url(#SVGID_00000183244534630872098950000002928008681314798471_);}
	.st30{fill:url(#SVGID_00000029738890878510114890000013658650628511470780_);}
	.st31{opacity:0.6;fill:url(#SVGID_00000083087583137724004800000015513385401434407319_);}
	.st32{opacity:0.6;fill:url(#SVGID_00000072965673988837434000000002859111657927431565_);}
	.st33{fill:#F98D3B;}
	.st34{fill:none;stroke:#F98D3B;stroke-width:3;stroke-miterlimit:10;}
	.st35{fill:url(#SVGID_00000121261566503759341550000003607233279162860164_);}
	.st36{fill:url(#SVGID_00000134246284087136846240000005276203561856981130_);}
</style>
<linearGradient id="SVGID_00000152252583210736754230000006450664672148463780_" gradientUnits="userSpaceOnUse" x1="0" y1="48.5108" x2="381.8993" y2="48.5108">
	<stop  offset="0" style="stop-color:#EF6507"/>
	<stop  offset="1" style="stop-color:#F98D3B"/>
</linearGradient>
<path style="fill:url(#SVGID_00000152252583210736754230000006450664672148463780_);" d="M368.5,97H13.4C6,97,0,91,0,83.7V13.4
	C0,6,6,0,13.4,0h355.2c7.4,0,13.4,6,13.4,13.4v70.3C381.9,91,375.9,97,368.5,97z"/>
<g>
	<path class="st1" d="M74.2,56.2H63.4v12.2H58V33.6c0-1.6,0.5-2.9,1.5-3.9c1-1,2.3-1.5,3.9-1.5h10.8c4.2,0,7.7,1.3,10.5,3.9
		c2.7,2.6,4.1,5.9,4.1,10c0,4.2-1.3,7.5-4.1,10.1C81.9,54.8,78.4,56.2,74.2,56.2z M63.4,35v16.1h10.8c2.6,0,4.8-0.8,6.5-2.5
		c1.7-1.7,2.5-3.9,2.5-6.5c0-2.6-0.8-4.7-2.5-6.3c-1.7-1.6-3.9-2.5-6.5-2.5H65c-0.5,0-0.9,0.2-1.2,0.5C63.5,34.1,63.4,34.5,63.4,35z
		"/>
	<path class="st1" d="M115.1,60.4h5.1c-1,2.8-2.6,4.9-4.9,6.3c-2.3,1.4-5,2.2-8.1,2.2c-4,0-7.3-1.3-9.8-3.9
		c-2.5-2.5-3.8-5.8-3.8-9.8c0-4,1.3-7.3,3.9-9.8c2.6-2.5,5.9-3.8,9.9-3.8c3.8,0,6.9,1.2,9.3,3.5c2.4,2.3,3.7,5.3,3.7,8.9
		c0,1-0.1,2-0.3,2.9h-19.7c-0.9,0-1.4,0.4-1.4,1.2c0,1.5,0.8,2.9,2.4,4.2s3.6,2,6,2c1.7,0,3.2-0.3,4.6-1
		C113.4,62.7,114.4,61.7,115.1,60.4z M107.5,46c-2.3,0-4.3,0.6-5.8,1.9c-1.6,1.2-2.5,2.9-2.8,5h15.5c0.7,0,1-0.3,1-1
		c0-1.5-0.7-2.8-2.2-4.1C111.6,46.6,109.8,46,107.5,46z"/>
	<path class="st1" d="M127.1,68.3V54.3c0-4,1.2-7.1,3.5-9.3c2.3-2.3,5.3-3.4,9-3.4s6.7,1.1,9.1,3.4c2.3,2.3,3.5,5.4,3.5,9.3v14.1
		H147v-14c0-2.5-0.7-4.4-2-5.8c-1.4-1.4-3.1-2.1-5.4-2.1s-4,0.7-5.3,2.1c-1.4,1.4-2.1,3.3-2.1,5.8v14H127.1z"/>
	<path class="st1" d="M171.9,41.6c1.9,0,3.6,0.4,5.3,1.2c1.6,0.8,2.9,1.9,3.9,3.3V28.2h5.1v27.1c0,3.9-1.3,7.2-3.9,9.7
		c-2.6,2.6-5.9,3.9-9.9,3.9c-4,0-7.3-1.3-9.8-3.9c-2.6-2.6-3.9-5.8-3.9-9.8c0-3.9,1.2-7.2,3.8-9.8C165,42.8,168.2,41.6,171.9,41.6z
		 M181,55.2c0-2.5-0.8-4.5-2.4-6.2c-1.6-1.6-3.7-2.5-6.1-2.5c-2.5,0-4.5,0.8-6.1,2.5c-1.6,1.6-2.4,3.7-2.4,6.2
		c0,2.5,0.8,4.6,2.4,6.2c1.6,1.6,3.7,2.5,6.1,2.5c2.4,0,4.5-0.8,6.1-2.5C180.2,59.8,181,57.7,181,55.2z"/>
	<path class="st1" d="M197.4,35.7c-1,0-1.9-0.4-2.5-1.1c-0.7-0.7-1-1.5-1-2.5c0-1,0.4-1.8,1.1-2.5c0.7-0.7,1.5-1,2.5-1
		s1.8,0.4,2.5,1c0.7,0.7,1,1.5,1,2.5c0,1-0.4,1.8-1,2.5C199.2,35.4,198.3,35.7,197.4,35.7z M194.8,68.3V42.1h5.2v26.3H194.8z"/>
	<path class="st1" d="M228.8,60.4h5.1c-1,2.8-2.6,4.9-4.9,6.3c-2.3,1.4-5,2.2-8.1,2.2c-4,0-7.3-1.3-9.8-3.9
		c-2.5-2.5-3.8-5.8-3.8-9.8c0-4,1.3-7.3,3.9-9.8c2.6-2.5,5.9-3.8,9.9-3.8c3.8,0,6.9,1.2,9.3,3.5c2.4,2.3,3.7,5.3,3.7,8.9
		c0,1-0.1,2-0.3,2.9h-19.7c-0.9,0-1.4,0.4-1.4,1.2c0,1.5,0.8,2.9,2.4,4.2s3.6,2,6,2c1.7,0,3.2-0.3,4.6-1
		C227.2,62.7,228.2,61.7,228.8,60.4z M221.3,46c-2.3,0-4.3,0.6-5.8,1.9c-1.6,1.2-2.5,2.9-2.8,5h15.5c0.7,0,1-0.3,1-1
		c0-1.5-0.7-2.8-2.2-4.1C225.4,46.6,223.5,46,221.3,46z"/>
	<path class="st1" d="M240.8,68.3V54.3c0-4,1.2-7.1,3.5-9.3c2.3-2.3,5.3-3.4,9-3.4s6.7,1.1,9.1,3.4c2.3,2.3,3.5,5.4,3.5,9.3v14.1
		h-5.1v-14c0-2.5-0.7-4.4-2-5.8c-1.4-1.4-3.1-2.1-5.4-2.1s-4,0.7-5.3,2.1c-1.4,1.4-2.1,3.3-2.1,5.8v14H240.8z"/>
	<path class="st1" d="M292.9,63.3v4.9c-1.7,0.3-3.8,0.4-6.1,0.4c-3,0-5.4-0.8-7-2.5c-1.6-1.6-2.4-4-2.4-7.3V46.8h-6.7v-4.7h4.7
		c0.6,0,1.1-0.2,1.4-0.5c0.4-0.4,0.5-0.8,0.5-1.4v-7.3h5.1v9.3h10.4v4.7h-10.4v11.8c0,1.8,0.4,3,1.2,3.9c0.8,0.9,2.1,1.3,3.9,1.3
		C289.1,63.8,290.9,63.6,292.9,63.3z"/>
	<path class="st1" d="M318.6,60.4h5.1c-1,2.8-2.6,4.9-4.9,6.3c-2.3,1.4-5,2.2-8.1,2.2c-4,0-7.3-1.3-9.8-3.9
		c-2.5-2.5-3.8-5.8-3.8-9.8c0-4,1.3-7.3,3.9-9.8c2.6-2.5,5.9-3.8,9.9-3.8c3.8,0,6.9,1.2,9.3,3.5c2.4,2.3,3.7,5.3,3.7,8.9
		c0,1-0.1,2-0.3,2.9h-19.7c-0.9,0-1.4,0.4-1.4,1.2c0,1.5,0.8,2.9,2.4,4.2s3.6,2,6,2c1.7,0,3.2-0.3,4.6-1
		C316.9,62.7,317.9,61.7,318.6,60.4z M311,46c-2.3,0-4.3,0.6-5.8,1.9c-1.6,1.2-2.5,2.9-2.8,5h15.5c0.7,0,1-0.3,1-1
		c0-1.5-0.7-2.8-2.2-4.1C315.1,46.6,313.3,46,311,46z"/>
</g>
</svg>
