<?xml version="1.0" encoding="utf-8"?>
<!-- Generator: Adobe Illustrator 25.4.1, SVG Export Plug-In . SVG Version: 6.00 Build 0)  -->
<svg version="1.1" id="Capa_1" xmlns="http://www.w3.org/2000/svg" xmlns:xlink="http://www.w3.org/1999/xlink" x="0px" y="0px"
	 width="381.9px" height="97px" viewBox="0 0 381.9 97" style="enable-background:new 0 0 381.9 97;" xml:space="preserve">
<style type="text/css">
	.st0{fill:#F7F7F7;}
	.st1{fill:#FFFFFF;}
	.st2{clip-path:url(#SVGID_00000173143675855697893290000015905229561105743546_);}
	.st3{fill:#B1B1B1;}
	.st4{clip-path:url(#SVGID_00000014614928800314904440000004345384501870566806_);}
	.st5{fill:#3D42DF;}
	.st6{fill:#7A7A7A;}
	.st7{fill:#CECECE;}
	.st8{enable-background:new    ;}
	.st9{fill-rule:evenodd;clip-rule:evenodd;fill:#3D42DF;}
	.st10{fill:#69696B;}
	.st11{fill:#3D42DF;enable-background:new    ;}
	.st12{fill:url(#SVGID_00000060028729001223217230000003626712517606102414_);}
	.st13{fill:none;stroke:#EEEEEE;stroke-width:3;stroke-miterlimit:10;}
	.st14{fill:url(#SVGID_00000155114139839105974220000014495850966126494646_);}
	.st15{fill:url(#SVGID_00000103964025322644886690000008189468381828880780_);}
	.st16{fill:url(#SVGID_00000149375593997305014400000016337219877758717329_);}
	.st17{fill:none;stroke:url(#SVGID_00000103968654345010955940000016483511098978258075_);stroke-width:3;stroke-miterlimit:10;}
	.st18{fill:#5BC5D1;}
	.st19{fill:none;stroke:url(#SVGID_00000101801276118689363770000015647503733798977935_);stroke-width:3;stroke-miterlimit:10;}
	.st20{fill:url(#SVGID_00000028307340463155415360000013505203595138013594_);}
	.st21{fill:none;stroke:url(#SVGID_00000125597585951324931320000001904014402798029697_);stroke-width:3;stroke-miterlimit:10;}
	.st22{fill:url(#SVGID_00000044878757031501990390000011053417252011747745_);}
	.st23{fill:url(#SVGID_00000000916168958470926790000011678801192943715970_);}
	.st24{fill:url(#SVGID_00000151520327697077023330000012938238175170903704_);}
	.st25{fill:url(#SVGID_00000095327378281057363530000015523519589996509588_);}
	.st26{fill:none;stroke:url(#SVGID_00000062908806855031164530000017346407933252438207_);stroke-width:3;stroke-miterlimit:10;}
	.st27{fill:#D11A2A;}
	.st28{fill:url(#SVGID_00000041281566838339882920000011708735083438512802_);}
	.st29{opacity:0.6;fill:url(#SVGID_00000065036003783796723980000011532314991799367351_);}
	.st30{fill:url(#SVGID_00000047055891641474367150000005020239427991216813_);}
	.st31{opacity:0.6;fill:url(#SVGID_00000089564108478944634000000011060709014054015126_);}
	.st32{opacity:0.6;fill:url(#SVGID_00000013874953967286849000000015764236792296205218_);}
	.st33{fill:none;stroke:#F98D3B;stroke-width:3;stroke-miterlimit:10;}
	.st34{fill:#F98D3B;}
	.st35{fill:url(#SVGID_00000034798032293584645740000003101584090981101236_);}
	.st36{fill:url(#SVGID_00000178204125102436607730000012832143782145088693_);}
	.st37{fill:url(#SVGID_00000160182782592735915230000018187195661308647555_);}
</style>
<linearGradient id="SVGID_00000107590637710886844750000010584824971456768178_" gradientUnits="userSpaceOnUse" x1="0" y1="48.5108" x2="381.8993" y2="48.5108">
	<stop  offset="0" style="stop-color:#00AD67"/>
	<stop  offset="1" style="stop-color:#00DC83"/>
</linearGradient>
<path style="fill:url(#SVGID_00000107590637710886844750000010584824971456768178_);" d="M368.5,97H13.4C6,97,0,91,0,83.7V13.4
	C0,6,6,0,13.4,0h355.2c7.4,0,13.4,6,13.4,13.4v70.3C381.9,91,375.9,97,368.5,97z"/>
<g>
	<path class="st1" d="M68.3,56.2H57.5v12.2h-5.4V33.6c0-1.6,0.5-2.9,1.5-3.9c1-1,2.3-1.5,3.9-1.5h10.8c4.2,0,7.7,1.3,10.5,3.9
		c2.7,2.6,4.1,5.9,4.1,10c0,4.2-1.3,7.5-4.1,10.1C76.1,54.8,72.6,56.2,68.3,56.2z M57.5,35v16.1h10.8c2.6,0,4.8-0.8,6.5-2.5
		c1.7-1.7,2.5-3.9,2.5-6.5c0-2.6-0.8-4.7-2.5-6.3c-1.7-1.6-3.9-2.5-6.5-2.5h-9.2c-0.5,0-0.9,0.2-1.2,0.5
		C57.7,34.1,57.5,34.5,57.5,35z"/>
	<path class="st1" d="M102.3,42.1h2.7v5h-2.7c-2.5,0-4.5,0.8-6,2.3C94.8,50.9,94,53,94,55.6v12.8h-5.1V55.6c0-4.5,1.2-7.8,3.6-10.1
		S98.2,42.1,102.3,42.1z"/>
	<path class="st1" d="M132.6,65c-2.6,2.6-5.9,3.9-9.9,3.9c-4,0-7.3-1.3-9.8-3.9c-2.6-2.5-3.9-5.8-3.9-9.8c0-4,1.3-7.2,3.9-9.8
		c2.6-2.6,5.9-3.9,9.8-3.9c4,0,7.3,1.3,9.9,3.9c2.6,2.6,3.9,5.8,3.9,9.8C136.4,59.2,135.1,62.5,132.6,65z M116.6,61.4
		c1.6,1.6,3.6,2.5,6.1,2.5c2.5,0,4.5-0.8,6.1-2.5c1.6-1.6,2.4-3.7,2.4-6.2s-0.8-4.6-2.4-6.2c-1.6-1.6-3.7-2.4-6.1-2.4
		c-2.5,0-4.5,0.8-6.1,2.4c-1.6,1.6-2.4,3.7-2.4,6.2S115,59.8,116.6,61.4z"/>
	<path class="st1" d="M162.8,58.7h5.4c-0.7,3-2.2,5.5-4.5,7.4c-2.3,1.9-5.1,2.8-8.4,2.8c-3.9,0-7.1-1.3-9.6-3.9
		c-2.6-2.6-3.9-5.8-3.9-9.8c0-4,1.3-7.2,3.9-9.8c2.5-2.6,5.8-3.9,9.6-3.9c3.3,0,6.1,0.9,8.5,2.8c2.3,1.9,3.8,4.4,4.5,7.4h-5.4
		c-0.6-1.6-1.5-2.8-2.9-3.8c-1.3-0.9-2.9-1.4-4.7-1.4c-2.4,0-4.3,0.8-5.9,2.5c-1.6,1.6-2.4,3.7-2.4,6.2c0,2.5,0.8,4.6,2.3,6.2
		c1.5,1.6,3.5,2.5,5.9,2.5c1.8,0,3.3-0.5,4.7-1.4C161.2,61.5,162.2,60.3,162.8,58.7z"/>
	<path class="st1" d="M194.3,60.4h5.1c-1,2.8-2.6,4.9-4.9,6.3c-2.3,1.4-5,2.2-8.1,2.2c-4,0-7.3-1.3-9.8-3.9
		c-2.5-2.5-3.8-5.8-3.8-9.8c0-4,1.3-7.3,3.9-9.8c2.6-2.5,5.9-3.8,9.9-3.8c3.8,0,6.9,1.2,9.3,3.5c2.4,2.3,3.7,5.3,3.7,8.9
		c0,1-0.1,2-0.3,2.9h-19.7c-0.9,0-1.4,0.4-1.4,1.2c0,1.5,0.8,2.9,2.4,4.2s3.6,2,6,2c1.7,0,3.2-0.3,4.6-1
		C192.7,62.7,193.7,61.7,194.3,60.4z M186.8,46c-2.3,0-4.3,0.6-5.8,1.9c-1.6,1.2-2.5,2.9-2.8,5h15.5c0.7,0,1-0.3,1-1
		c0-1.5-0.7-2.8-2.2-4.1C190.9,46.6,189,46,186.8,46z"/>
	<path class="st1" d="M217.4,68.9c-3.3,0-6.1-0.8-8.4-2.3c-2.3-1.5-3.7-3.6-4.2-6.4h5.4c0.8,2.8,3.3,4.3,7.5,4.3
		c1.9,0,3.4-0.3,4.5-1c1.1-0.6,1.6-1.5,1.6-2.8c0-2-1.4-3.1-4.2-3.2l-5.8-0.5c-2.5-0.2-4.5-0.9-6-2.2c-1.5-1.2-2.3-2.9-2.3-5.2
		c0-2.6,1-4.6,3-6s4.6-2.1,7.9-2.1c3.1,0,5.8,0.7,8,2.1c2.2,1.4,3.6,3.5,4.2,6.2h-5.5c-0.5-1.3-1.4-2.3-2.6-2.9s-2.6-0.9-4.1-0.9
		c-1.8,0-3.1,0.3-4.2,0.9c-1.1,0.6-1.6,1.5-1.6,2.6c0,1.9,1.4,2.9,4.2,3.1l5.6,0.4c2.7,0.2,4.8,0.9,6.3,2.1c1.5,1.2,2.2,3,2.2,5.3
		c0,2.7-1.1,4.8-3.2,6.3C223.6,68.1,220.9,68.9,217.4,68.9z"/>
	<path class="st1" d="M247.6,68.9c-3.8,0-6.9-1.3-9.4-3.9c-2.5-2.6-3.8-5.8-3.8-9.7c0-4,1.3-7.2,4-9.8c2.6-2.6,5.9-3.9,9.9-3.9
		c4,0,7.2,1.3,9.8,3.8c2.6,2.5,3.9,5.7,3.9,9.6v13.4h-4.8v-4.7c-1,1.6-2.4,2.9-4.1,3.8C251.3,68.4,249.5,68.9,247.6,68.9z
		 M256.7,55.2c0-2.5-0.8-4.5-2.4-6.2c-1.6-1.6-3.7-2.5-6.1-2.5c-2.4,0-4.5,0.8-6.1,2.5c-1.6,1.6-2.4,3.7-2.4,6.2
		c0,2.5,0.8,4.6,2.4,6.2c1.6,1.6,3.7,2.5,6.1,2.5c2.5,0,4.5-0.8,6.1-2.5C255.8,59.8,256.7,57.7,256.7,55.2z"/>
	<path class="st1" d="M281.6,41.6c1.9,0,3.6,0.4,5.3,1.2c1.6,0.8,2.9,1.9,3.9,3.3V28.2h5.1v27.1c0,3.9-1.3,7.2-3.9,9.7
		c-2.6,2.6-5.9,3.9-9.9,3.9c-4,0-7.3-1.3-9.8-3.9c-2.6-2.6-3.9-5.8-3.9-9.8c0-3.9,1.2-7.2,3.8-9.8C274.7,42.8,277.8,41.6,281.6,41.6
		z M290.7,55.2c0-2.5-0.8-4.5-2.4-6.2c-1.6-1.6-3.7-2.5-6.1-2.5c-2.5,0-4.5,0.8-6.1,2.5c-1.6,1.6-2.4,3.7-2.4,6.2
		c0,2.5,0.8,4.6,2.4,6.2c1.6,1.6,3.7,2.5,6.1,2.5c2.4,0,4.5-0.8,6.1-2.5C289.9,59.8,290.7,57.7,290.7,55.2z"/>
	<path class="st1" d="M325.9,65c-2.6,2.6-5.9,3.9-9.9,3.9c-4,0-7.3-1.3-9.8-3.9c-2.6-2.5-3.9-5.8-3.9-9.8c0-4,1.3-7.2,3.9-9.8
		c2.6-2.6,5.9-3.9,9.8-3.9c4,0,7.3,1.3,9.9,3.9c2.6,2.6,3.9,5.8,3.9,9.8C329.8,59.2,328.5,62.5,325.9,65z M309.9,61.4
		c1.6,1.6,3.6,2.5,6.1,2.5c2.5,0,4.5-0.8,6.1-2.5c1.6-1.6,2.4-3.7,2.4-6.2s-0.8-4.6-2.4-6.2c-1.6-1.6-3.7-2.4-6.1-2.4
		c-2.5,0-4.5,0.8-6.1,2.4c-1.6,1.6-2.4,3.7-2.4,6.2S308.3,59.8,309.9,61.4z"/>
</g>
</svg>
