<svg id="Capa_1" data-name="Capa 1" xmlns="http://www.w3.org/2000/svg" viewBox="0 0 297.12 206.96"><path d="M285,117.8a3.31,3.31,0,0,0-3.31,3.31v58.71H251.94V131.69a3.31,3.31,0,1,0-6.61,0v73.95H15.15V94.23H181.78a3.39,3.39,0,0,0,0-6.78H41V55.35H180.56a3.39,3.39,0,0,0,0-6.78h-143a3.31,3.31,0,0,0-3.31,3.31V87.32H11.68a3.3,3.3,0,0,0-3.3,3.3V209.05a3.31,3.31,0,0,0,3.3,3.31H248.4a3.31,3.31,0,0,0,3.31-3.31V186.6h33.06a3.31,3.31,0,0,0,3.3-3.31V121.17A3.3,3.3,0,0,0,285,117.8Z" transform="translate(-8.38 -5.39)"/><path d="M123.23,121.6a29.09,29.09,0,1,0,35.12,21.45v0a29,29,0,0,0-34.87-21.49Zm25.92,39.87a22.29,22.29,0,0,1-40.73-6.34A22,22,0,0,1,111,138.27a22.31,22.31,0,0,1,40.73,6.34A22,22,0,0,1,149.15,161.47Z" transform="translate(-8.38 -5.39)"/><path d="M277.46,67.94H247V37.46a3.31,3.31,0,0,0-6.61,0V71.35a3.31,3.31,0,0,0,3.3,3.31h33.79a3.39,3.39,0,1,0,0-6.78Z" transform="translate(-8.38 -5.39)"/><path d="M267.84,8.68a55.65,55.65,0,0,0-8.43-2.3h-.53c-1.19-.23-2.41-.43-3.64-.56l-1.68-.2c-1.62,0-3.31-.23-4.89-.23h-1.89a59.05,59.05,0,0,0-16.89,2.87h0a57.22,57.22,0,1,0,37.95.41ZM248.37,112.41l0,.2A50.29,50.29,0,0,1,234,14.15c1.19-.36,2.41-.69,3.63-1a50,50,0,0,1,11-1.15h4a25.67,25.67,0,0,1,3.31.36l.95.17,2.68.53c1.23.26,2.42.59,3.61,1a50.29,50.29,0,0,1-14.88,98.36Z" transform="translate(-8.38 -5.39)"/></svg>