<svg height='100px' width='100px'  fill="#000000" xmlns="http://www.w3.org/2000/svg" xmlns:xlink="http://www.w3.org/1999/xlink" version="1.1" x="0px" y="0px" viewBox="0 0 100 100" enable-background="new 0 0 100 100" xml:space="preserve"><path d="M66.5,34.5h-34c-1.654,0-3,1.346-3,3v23c0,1.654,1.346,3,3,3h34c1.654,0,3-1.346,3-3v-23C69.5,35.846,68.154,34.5,66.5,34.5  z M67.5,60.5c0,0.552-0.449,1-1,1h-34c-0.552,0-1-0.448-1-1v-15h36V60.5z M67.5,43.5h-36v-6c0-0.552,0.448-1,1-1h34  c0.551,0,1,0.448,1,1V43.5z M46.5,52.5h-11v2h11V52.5z M53.5,52.5h-4v2h4V52.5z"></path></svg>