<svg height='100px' width='100px'  fill="#000000" xmlns="http://www.w3.org/2000/svg" xmlns:xlink="http://www.w3.org/1999/xlink" version="1.1" x="0px" y="0px" viewBox="0 0 100 100" enable-background="new 0 0 100 100" xml:space="preserve"><path d="M53.5,52.5v-2h-12v-3l-4,4l4,4v-3H53.5z M61.5,45.5l-4-4v3h-12v2h12v3L61.5,45.5z M70.5,48.5c0-11.579-9.42-21-21-21  s-21,9.421-21,21s9.42,21,21,21S70.5,60.079,70.5,48.5z M30.5,48.5c0-10.477,8.523-19,19-19s19,8.523,19,19s-8.523,19-19,19  S30.5,58.977,30.5,48.5z"></path></svg>